<svg viewBox="0 0 872 739" fill="none" xmlns="http://www.w3.org/2000/svg">
<g opacity="0.69">
<g filter="url(#filter0_b_0_155)">
<path fill-rule="evenodd" clip-rule="evenodd" d="M814.312 312.634C816.657 309.851 820.817 309.502 823.593 311.856L840.28 326.003C852.657 334.634 861.291 347.059 865.152 361.935C870.135 381.134 863.401 406.265 849.933 456.529L849.933 456.529C849.933 456.53 849.933 456.53 849.933 456.53L812.927 594.639C799.459 644.903 792.725 670.035 777.453 689.233C764.02 706.121 746.127 719.85 726.339 728.455C703.842 738.237 677.823 738.237 625.786 738.237H482.805C430.768 738.237 404.749 738.237 387.495 728.455C384.886 726.976 382.415 725.346 380.088 723.574C380.087 723.573 380.086 723.573 380.085 723.574C380.085 723.576 380.084 723.576 380.083 723.575L380.02 723.522C378.374 722.266 376.801 720.938 375.304 719.543L353.057 700.775C350.798 698.87 351.862 695.19 354.789 694.783C356.918 694.487 358.243 692.32 357.671 690.247C357.578 689.911 357.487 689.573 357.399 689.233C352.416 670.035 359.15 644.903 372.618 594.639L409.625 456.53C423.093 406.266 429.827 381.134 445.098 361.935C458.531 345.048 476.424 331.318 496.213 322.714C518.71 312.932 544.728 312.932 596.765 312.932H739.746C770.486 312.932 792.147 312.932 808.285 314.948C810.558 315.232 812.835 314.385 814.312 312.634Z" fill="#00A3FF" fill-opacity="0.2"/>
<path fill-rule="evenodd" clip-rule="evenodd" d="M814.312 312.634C816.657 309.851 820.817 309.502 823.593 311.856L840.28 326.003C852.657 334.634 861.291 347.059 865.152 361.935C870.135 381.134 863.401 406.265 849.933 456.529L849.933 456.529C849.933 456.53 849.933 456.53 849.933 456.53L812.927 594.639C799.459 644.903 792.725 670.035 777.453 689.233C764.02 706.121 746.127 719.85 726.339 728.455C703.842 738.237 677.823 738.237 625.786 738.237H482.805C430.768 738.237 404.749 738.237 387.495 728.455C384.886 726.976 382.415 725.346 380.088 723.574C380.087 723.573 380.086 723.573 380.085 723.574C380.085 723.576 380.084 723.576 380.083 723.575L380.02 723.522C378.374 722.266 376.801 720.938 375.304 719.543L353.057 700.775C350.798 698.87 351.862 695.19 354.789 694.783C356.918 694.487 358.243 692.32 357.671 690.247C357.578 689.911 357.487 689.573 357.399 689.233C352.416 670.035 359.15 644.903 372.618 594.639L409.625 456.53C423.093 406.266 429.827 381.134 445.098 361.935C458.531 345.048 476.424 331.318 496.213 322.714C518.71 312.932 544.728 312.932 596.765 312.932H739.746C770.486 312.932 792.147 312.932 808.285 314.948C810.558 315.232 812.835 314.385 814.312 312.634Z" fill="url(#paint0_linear_0_155)" fill-opacity="0.63"/>
<path fill-rule="evenodd" clip-rule="evenodd" d="M814.312 312.634C816.657 309.851 820.817 309.502 823.593 311.856L840.28 326.003C852.657 334.634 861.291 347.059 865.152 361.935C870.135 381.134 863.401 406.265 849.933 456.529L849.933 456.529C849.933 456.53 849.933 456.53 849.933 456.53L812.927 594.639C799.459 644.903 792.725 670.035 777.453 689.233C764.02 706.121 746.127 719.85 726.339 728.455C703.842 738.237 677.823 738.237 625.786 738.237H482.805C430.768 738.237 404.749 738.237 387.495 728.455C384.886 726.976 382.415 725.346 380.088 723.574C380.087 723.573 380.086 723.573 380.085 723.574C380.085 723.576 380.084 723.576 380.083 723.575L380.02 723.522C378.374 722.266 376.801 720.938 375.304 719.543L353.057 700.775C350.798 698.87 351.862 695.19 354.789 694.783C356.918 694.487 358.243 692.32 357.671 690.247C357.578 689.911 357.487 689.573 357.399 689.233C352.416 670.035 359.15 644.903 372.618 594.639L409.625 456.53C423.093 406.266 429.827 381.134 445.098 361.935C458.531 345.048 476.424 331.318 496.213 322.714C518.71 312.932 544.728 312.932 596.765 312.932H739.746C770.486 312.932 792.147 312.932 808.285 314.948C810.558 315.232 812.835 314.385 814.312 312.634Z" fill="url(#paint1_linear_0_155)" fill-opacity="0.26"/>
<path fill-rule="evenodd" clip-rule="evenodd" d="M814.312 312.634C816.657 309.851 820.817 309.502 823.593 311.856L840.28 326.003C852.657 334.634 861.291 347.059 865.152 361.935C870.135 381.134 863.401 406.265 849.933 456.529L849.933 456.529C849.933 456.53 849.933 456.53 849.933 456.53L812.927 594.639C799.459 644.903 792.725 670.035 777.453 689.233C764.02 706.121 746.127 719.85 726.339 728.455C703.842 738.237 677.823 738.237 625.786 738.237H482.805C430.768 738.237 404.749 738.237 387.495 728.455C384.886 726.976 382.415 725.346 380.088 723.574C380.087 723.573 380.086 723.573 380.085 723.574C380.085 723.576 380.084 723.576 380.083 723.575L380.02 723.522C378.374 722.266 376.801 720.938 375.304 719.543L353.057 700.775C350.798 698.87 351.862 695.19 354.789 694.783C356.918 694.487 358.243 692.32 357.671 690.247C357.578 689.911 357.487 689.573 357.399 689.233C352.416 670.035 359.15 644.903 372.618 594.639L409.625 456.53C423.093 406.266 429.827 381.134 445.098 361.935C458.531 345.048 476.424 331.318 496.213 322.714C518.71 312.932 544.728 312.932 596.765 312.932H739.746C770.486 312.932 792.147 312.932 808.285 314.948C810.558 315.232 812.835 314.385 814.312 312.634Z" fill="url(#paint2_linear_0_155)" fill-opacity="0.19"/>
</g>
<g filter="url(#filter1_b_0_155)">
<rect width="440.309" height="440.309" rx="92.9149" transform="matrix(1 0 -0.258819 0.965926 424.875 293.421)" fill="url(#paint3_linear_0_155)" fill-opacity="0.2"/>
<rect width="440.309" height="440.309" rx="92.9149" transform="matrix(1 0 -0.258819 0.965926 424.875 293.421)" fill="white" fill-opacity="0.17"/>
<rect x="1.37734" y="1.79498" width="436.592" height="436.592" rx="91.0566" transform="matrix(1 0 -0.258819 0.965926 425.34 293.482)" stroke="url(#paint4_linear_0_155)" stroke-opacity="0.2" stroke-width="3.7166"/>
</g>
</g>
<g opacity="0.69">
<g filter="url(#filter2_b_0_155)">
<path fill-rule="evenodd" clip-rule="evenodd" d="M634.271 168.537C636.616 165.754 640.776 165.406 643.552 167.759L660.239 181.906C672.615 190.537 681.25 202.963 685.111 217.839C690.094 237.037 683.36 262.169 669.892 312.432L669.892 312.433C669.892 312.433 669.892 312.433 669.892 312.433L632.886 450.542C619.418 500.806 612.684 525.938 597.412 545.137C583.979 562.024 566.086 575.754 546.297 584.358C523.801 594.14 497.782 594.14 445.745 594.14H302.764C250.727 594.14 224.708 594.14 207.454 584.358C204.845 582.879 202.373 581.249 200.047 579.477C200.046 579.476 200.045 579.477 200.044 579.478C200.044 579.479 200.043 579.479 200.042 579.478L199.979 579.426C198.333 578.169 196.76 576.841 195.263 575.446L173.016 556.678C170.757 554.773 171.821 551.093 174.748 550.686C176.877 550.39 178.202 548.223 177.63 546.151C177.537 545.814 177.446 545.476 177.358 545.137C172.375 525.938 179.109 500.806 192.577 450.542L229.583 312.433C243.052 262.169 249.786 237.037 265.057 217.839C278.49 200.951 296.383 187.221 316.172 178.617C338.669 168.835 364.687 168.835 416.724 168.835H559.705C590.445 168.835 612.106 168.835 628.244 170.851C630.517 171.136 632.794 170.289 634.271 168.537Z" fill="#00A3FF" fill-opacity="0.2"/>
<path fill-rule="evenodd" clip-rule="evenodd" d="M634.271 168.537C636.616 165.754 640.776 165.406 643.552 167.759L660.239 181.906C672.615 190.537 681.25 202.963 685.111 217.839C690.094 237.037 683.36 262.169 669.892 312.432L669.892 312.433C669.892 312.433 669.892 312.433 669.892 312.433L632.886 450.542C619.418 500.806 612.684 525.938 597.412 545.137C583.979 562.024 566.086 575.754 546.297 584.358C523.801 594.14 497.782 594.14 445.745 594.14H302.764C250.727 594.14 224.708 594.14 207.454 584.358C204.845 582.879 202.373 581.249 200.047 579.477C200.046 579.476 200.045 579.477 200.044 579.478C200.044 579.479 200.043 579.479 200.042 579.478L199.979 579.426C198.333 578.169 196.76 576.841 195.263 575.446L173.016 556.678C170.757 554.773 171.821 551.093 174.748 550.686C176.877 550.39 178.202 548.223 177.63 546.151C177.537 545.814 177.446 545.476 177.358 545.137C172.375 525.938 179.109 500.806 192.577 450.542L229.583 312.433C243.052 262.169 249.786 237.037 265.057 217.839C278.49 200.951 296.383 187.221 316.172 178.617C338.669 168.835 364.687 168.835 416.724 168.835H559.705C590.445 168.835 612.106 168.835 628.244 170.851C630.517 171.136 632.794 170.289 634.271 168.537Z" fill="url(#paint5_linear_0_155)" fill-opacity="0.63"/>
<path fill-rule="evenodd" clip-rule="evenodd" d="M634.271 168.537C636.616 165.754 640.776 165.406 643.552 167.759L660.239 181.906C672.615 190.537 681.25 202.963 685.111 217.839C690.094 237.037 683.36 262.169 669.892 312.432L669.892 312.433C669.892 312.433 669.892 312.433 669.892 312.433L632.886 450.542C619.418 500.806 612.684 525.938 597.412 545.137C583.979 562.024 566.086 575.754 546.297 584.358C523.801 594.14 497.782 594.14 445.745 594.14H302.764C250.727 594.14 224.708 594.14 207.454 584.358C204.845 582.879 202.373 581.249 200.047 579.477C200.046 579.476 200.045 579.477 200.044 579.478C200.044 579.479 200.043 579.479 200.042 579.478L199.979 579.426C198.333 578.169 196.76 576.841 195.263 575.446L173.016 556.678C170.757 554.773 171.821 551.093 174.748 550.686C176.877 550.39 178.202 548.223 177.63 546.151C177.537 545.814 177.446 545.476 177.358 545.137C172.375 525.938 179.109 500.806 192.577 450.542L229.583 312.433C243.052 262.169 249.786 237.037 265.057 217.839C278.49 200.951 296.383 187.221 316.172 178.617C338.669 168.835 364.687 168.835 416.724 168.835H559.705C590.445 168.835 612.106 168.835 628.244 170.851C630.517 171.136 632.794 170.289 634.271 168.537Z" fill="url(#paint6_linear_0_155)" fill-opacity="0.26"/>
<path fill-rule="evenodd" clip-rule="evenodd" d="M634.271 168.537C636.616 165.754 640.776 165.406 643.552 167.759L660.239 181.906C672.615 190.537 681.25 202.963 685.111 217.839C690.094 237.037 683.36 262.169 669.892 312.432L669.892 312.433C669.892 312.433 669.892 312.433 669.892 312.433L632.886 450.542C619.418 500.806 612.684 525.938 597.412 545.137C583.979 562.024 566.086 575.754 546.297 584.358C523.801 594.14 497.782 594.14 445.745 594.14H302.764C250.727 594.14 224.708 594.14 207.454 584.358C204.845 582.879 202.373 581.249 200.047 579.477C200.046 579.476 200.045 579.477 200.044 579.478C200.044 579.479 200.043 579.479 200.042 579.478L199.979 579.426C198.333 578.169 196.76 576.841 195.263 575.446L173.016 556.678C170.757 554.773 171.821 551.093 174.748 550.686C176.877 550.39 178.202 548.223 177.63 546.151C177.537 545.814 177.446 545.476 177.358 545.137C172.375 525.938 179.109 500.806 192.577 450.542L229.583 312.433C243.052 262.169 249.786 237.037 265.057 217.839C278.49 200.951 296.383 187.221 316.172 178.617C338.669 168.835 364.687 168.835 416.724 168.835H559.705C590.445 168.835 612.106 168.835 628.244 170.851C630.517 171.136 632.794 170.289 634.271 168.537Z" fill="url(#paint7_linear_0_155)" fill-opacity="0.19"/>
</g>
<g filter="url(#filter3_b_0_155)">
<rect width="440.309" height="440.309" rx="92.9149" transform="matrix(1 0 -0.258819 0.965926 244.834 149.323)" fill="url(#paint8_linear_0_155)" fill-opacity="0.2"/>
<rect width="440.309" height="440.309" rx="92.9149" transform="matrix(1 0 -0.258819 0.965926 244.834 149.323)" fill="white" fill-opacity="0.17"/>
<rect x="1.37734" y="1.79498" width="436.592" height="436.592" rx="91.0566" transform="matrix(1 0 -0.258819 0.965926 245.299 149.384)" stroke="url(#paint9_linear_0_155)" stroke-opacity="0.2" stroke-width="3.7166"/>
</g>
</g>
<g filter="url(#filter4_b_0_155)">
<path fill-rule="evenodd" clip-rule="evenodd" d="M575.429 99.9871C577.775 97.2043 581.934 96.8558 584.711 99.2095L601.397 113.357C613.774 121.987 622.409 134.413 626.27 149.289C631.253 168.487 624.518 193.619 611.05 243.882L611.05 243.883C611.05 243.883 611.05 243.883 611.05 243.883L574.044 381.992C560.576 432.256 553.842 457.388 538.57 476.587C525.137 493.474 507.244 507.204 487.456 515.808C464.959 525.59 438.94 525.59 386.903 525.59H243.922C191.885 525.59 165.867 525.59 148.612 515.808C146.003 514.329 143.531 512.699 141.204 510.927C141.203 510.926 141.201 510.926 141.201 510.928C141.2 510.929 141.199 510.93 141.197 510.929L141.105 510.851C139.482 509.61 137.93 508.3 136.451 506.925L114.173 488.13C111.914 486.225 112.978 482.544 115.905 482.137C118.035 481.841 119.36 479.674 118.788 477.601C118.695 477.264 118.604 476.926 118.516 476.587C113.533 457.388 120.267 432.256 133.736 381.992L170.742 243.883C184.21 193.619 190.944 168.487 206.215 149.289C219.648 132.402 237.541 118.672 257.33 110.067C279.827 100.285 305.845 100.285 357.883 100.285H500.863C531.604 100.285 553.264 100.285 569.402 102.302C571.675 102.586 573.952 101.739 575.429 99.9871Z" fill="#00A3FF" fill-opacity="0.5"/>
<path fill-rule="evenodd" clip-rule="evenodd" d="M575.429 99.9871C577.775 97.2043 581.934 96.8558 584.711 99.2095L601.397 113.357C613.774 121.987 622.409 134.413 626.27 149.289C631.253 168.487 624.518 193.619 611.05 243.882L611.05 243.883C611.05 243.883 611.05 243.883 611.05 243.883L574.044 381.992C560.576 432.256 553.842 457.388 538.57 476.587C525.137 493.474 507.244 507.204 487.456 515.808C464.959 525.59 438.94 525.59 386.903 525.59H243.922C191.885 525.59 165.867 525.59 148.612 515.808C146.003 514.329 143.531 512.699 141.204 510.927C141.203 510.926 141.201 510.926 141.201 510.928C141.2 510.929 141.199 510.93 141.197 510.929L141.105 510.851C139.482 509.61 137.93 508.3 136.451 506.925L114.173 488.13C111.914 486.225 112.978 482.544 115.905 482.137C118.035 481.841 119.36 479.674 118.788 477.601C118.695 477.264 118.604 476.926 118.516 476.587C113.533 457.388 120.267 432.256 133.736 381.992L170.742 243.883C184.21 193.619 190.944 168.487 206.215 149.289C219.648 132.402 237.541 118.672 257.33 110.067C279.827 100.285 305.845 100.285 357.883 100.285H500.863C531.604 100.285 553.264 100.285 569.402 102.302C571.675 102.586 573.952 101.739 575.429 99.9871Z" fill="url(#paint10_linear_0_155)" fill-opacity="0.63"/>
<path fill-rule="evenodd" clip-rule="evenodd" d="M575.429 99.9871C577.775 97.2043 581.934 96.8558 584.711 99.2095L601.397 113.357C613.774 121.987 622.409 134.413 626.27 149.289C631.253 168.487 624.518 193.619 611.05 243.882L611.05 243.883C611.05 243.883 611.05 243.883 611.05 243.883L574.044 381.992C560.576 432.256 553.842 457.388 538.57 476.587C525.137 493.474 507.244 507.204 487.456 515.808C464.959 525.59 438.94 525.59 386.903 525.59H243.922C191.885 525.59 165.867 525.59 148.612 515.808C146.003 514.329 143.531 512.699 141.204 510.927C141.203 510.926 141.201 510.926 141.201 510.928C141.2 510.929 141.199 510.93 141.197 510.929L141.105 510.851C139.482 509.61 137.93 508.3 136.451 506.925L114.173 488.13C111.914 486.225 112.978 482.544 115.905 482.137C118.035 481.841 119.36 479.674 118.788 477.601C118.695 477.264 118.604 476.926 118.516 476.587C113.533 457.388 120.267 432.256 133.736 381.992L170.742 243.883C184.21 193.619 190.944 168.487 206.215 149.289C219.648 132.402 237.541 118.672 257.33 110.067C279.827 100.285 305.845 100.285 357.883 100.285H500.863C531.604 100.285 553.264 100.285 569.402 102.302C571.675 102.586 573.952 101.739 575.429 99.9871Z" fill="url(#paint11_linear_0_155)" fill-opacity="0.2"/>
<path fill-rule="evenodd" clip-rule="evenodd" d="M575.429 99.9871C577.775 97.2043 581.934 96.8558 584.711 99.2095L601.397 113.357C613.774 121.987 622.409 134.413 626.27 149.289C631.253 168.487 624.518 193.619 611.05 243.882L611.05 243.883C611.05 243.883 611.05 243.883 611.05 243.883L574.044 381.992C560.576 432.256 553.842 457.388 538.57 476.587C525.137 493.474 507.244 507.204 487.456 515.808C464.959 525.59 438.94 525.59 386.903 525.59H243.922C191.885 525.59 165.867 525.59 148.612 515.808C146.003 514.329 143.531 512.699 141.204 510.927C141.203 510.926 141.201 510.926 141.201 510.928C141.2 510.929 141.199 510.93 141.197 510.929L141.105 510.851C139.482 509.61 137.93 508.3 136.451 506.925L114.173 488.13C111.914 486.225 112.978 482.544 115.905 482.137C118.035 481.841 119.36 479.674 118.788 477.601C118.695 477.264 118.604 476.926 118.516 476.587C113.533 457.388 120.267 432.256 133.736 381.992L170.742 243.883C184.21 193.619 190.944 168.487 206.215 149.289C219.648 132.402 237.541 118.672 257.33 110.067C279.827 100.285 305.845 100.285 357.883 100.285H500.863C531.604 100.285 553.264 100.285 569.402 102.302C571.675 102.586 573.952 101.739 575.429 99.9871Z" fill="url(#paint12_linear_0_155)" fill-opacity="0.3"/>
</g>
<g filter="url(#filter5_b_0_155)">
<rect width="440.309" height="440.309" rx="92.9149" transform="matrix(1 0 -0.258819 0.965926 185.99 80.7725)" fill="url(#paint13_linear_0_155)" fill-opacity="0.4"/>
<rect width="440.309" height="440.309" rx="92.9149" transform="matrix(1 0 -0.258819 0.965926 185.99 80.7725)" fill="white" fill-opacity="0.2"/>
<rect x="1.37734" y="1.79498" width="436.592" height="436.592" rx="91.0566" transform="matrix(1 0 -0.258819 0.965926 186.455 80.8336)" stroke="url(#paint14_linear_0_155)" stroke-opacity="0.3" stroke-width="3.7166"/>
</g>
<path fill-rule="evenodd" clip-rule="evenodd" d="M509.736 24.0198C512.081 21.2374 516.241 20.8889 519.017 23.2423L535.697 37.3844C548.077 46.0152 556.715 58.4427 560.576 73.3212C565.559 92.5195 558.825 117.652 545.357 167.916L508.351 306.024C494.883 356.289 488.148 381.421 472.877 400.619C459.444 417.506 441.551 431.236 421.762 439.841C399.266 449.623 373.247 449.623 321.21 449.623H178.229C126.192 449.623 100.173 449.623 82.9187 439.841C80.31 438.362 77.8384 436.731 75.5116 434.96C75.5102 434.958 75.5082 434.959 75.5077 434.961C75.5072 434.962 75.5051 434.963 75.5037 434.962L75.3988 434.873C73.7846 433.639 72.2404 432.335 70.7689 430.967L48.4799 412.164C46.2211 410.258 47.2848 406.577 50.212 406.171C52.3421 405.874 53.6674 403.707 53.0947 401.634C53.0016 401.297 52.911 400.959 52.8228 400.619C47.8399 381.421 54.574 356.289 68.0422 306.024L105.048 167.916C118.517 117.652 125.251 92.5195 140.522 73.3212C153.955 56.4338 171.848 42.704 191.637 34.0994C214.133 24.3174 240.152 24.3174 292.189 24.3174H435.17C465.911 24.3174 487.572 24.3174 503.71 26.3341C505.983 26.6181 508.259 25.7713 509.736 24.0198Z" fill="#00A3FF"/>
<path fill-rule="evenodd" clip-rule="evenodd" d="M509.736 24.0198C512.081 21.2374 516.241 20.8889 519.017 23.2423L535.697 37.3844C548.077 46.0152 556.715 58.4427 560.576 73.3212C565.559 92.5195 558.825 117.652 545.357 167.916L508.351 306.024C494.883 356.289 488.148 381.421 472.877 400.619C459.444 417.506 441.551 431.236 421.762 439.841C399.266 449.623 373.247 449.623 321.21 449.623H178.229C126.192 449.623 100.173 449.623 82.9187 439.841C80.31 438.362 77.8384 436.731 75.5116 434.96C75.5102 434.958 75.5082 434.959 75.5077 434.961C75.5072 434.962 75.5051 434.963 75.5037 434.962L75.3988 434.873C73.7846 433.639 72.2404 432.335 70.7689 430.967L48.4799 412.164C46.2211 410.258 47.2848 406.577 50.212 406.171C52.3421 405.874 53.6674 403.707 53.0947 401.634C53.0016 401.297 52.911 400.959 52.8228 400.619C47.8399 381.421 54.574 356.289 68.0422 306.024L105.048 167.916C118.517 117.652 125.251 92.5195 140.522 73.3212C153.955 56.4338 171.848 42.704 191.637 34.0994C214.133 24.3174 240.152 24.3174 292.189 24.3174H435.17C465.911 24.3174 487.572 24.3174 503.71 26.3341C505.983 26.6181 508.259 25.7713 509.736 24.0198Z" fill="url(#paint15_linear_0_155)" fill-opacity="0.63"/>
<path fill-rule="evenodd" clip-rule="evenodd" d="M509.736 24.0198C512.081 21.2374 516.241 20.8889 519.017 23.2423L535.697 37.3844C548.077 46.0152 556.715 58.4427 560.576 73.3212C565.559 92.5195 558.825 117.652 545.357 167.916L508.351 306.024C494.883 356.289 488.148 381.421 472.877 400.619C459.444 417.506 441.551 431.236 421.762 439.841C399.266 449.623 373.247 449.623 321.21 449.623H178.229C126.192 449.623 100.173 449.623 82.9187 439.841C80.31 438.362 77.8384 436.731 75.5116 434.96C75.5102 434.958 75.5082 434.959 75.5077 434.961C75.5072 434.962 75.5051 434.963 75.5037 434.962L75.3988 434.873C73.7846 433.639 72.2404 432.335 70.7689 430.967L48.4799 412.164C46.2211 410.258 47.2848 406.577 50.212 406.171C52.3421 405.874 53.6674 403.707 53.0947 401.634C53.0016 401.297 52.911 400.959 52.8228 400.619C47.8399 381.421 54.574 356.289 68.0422 306.024L105.048 167.916C118.517 117.652 125.251 92.5195 140.522 73.3212C153.955 56.4338 171.848 42.704 191.637 34.0994C214.133 24.3174 240.152 24.3174 292.189 24.3174H435.17C465.911 24.3174 487.572 24.3174 503.71 26.3341C505.983 26.6181 508.259 25.7713 509.736 24.0198Z" fill="url(#paint16_linear_0_155)" fill-opacity="0.2"/>
<path fill-rule="evenodd" clip-rule="evenodd" d="M509.736 24.0198C512.081 21.2374 516.241 20.8889 519.017 23.2423L535.697 37.3844C548.077 46.0152 556.715 58.4427 560.576 73.3212C565.559 92.5195 558.825 117.652 545.357 167.916L508.351 306.024C494.883 356.289 488.148 381.421 472.877 400.619C459.444 417.506 441.551 431.236 421.762 439.841C399.266 449.623 373.247 449.623 321.21 449.623H178.229C126.192 449.623 100.173 449.623 82.9187 439.841C80.31 438.362 77.8384 436.731 75.5116 434.96C75.5102 434.958 75.5082 434.959 75.5077 434.961C75.5072 434.962 75.5051 434.963 75.5037 434.962L75.3988 434.873C73.7846 433.639 72.2404 432.335 70.7689 430.967L48.4799 412.164C46.2211 410.258 47.2848 406.577 50.212 406.171C52.3421 405.874 53.6674 403.707 53.0947 401.634C53.0016 401.297 52.911 400.959 52.8228 400.619C47.8399 381.421 54.574 356.289 68.0422 306.024L105.048 167.916C118.517 117.652 125.251 92.5195 140.522 73.3212C153.955 56.4338 171.848 42.704 191.637 34.0994C214.133 24.3174 240.152 24.3174 292.189 24.3174H435.17C465.911 24.3174 487.572 24.3174 503.71 26.3341C505.983 26.6181 508.259 25.7713 509.736 24.0198Z" fill="url(#paint17_linear_0_155)" fill-opacity="0.3"/>
<rect x="1.37734" y="1.79498" width="436.592" height="436.592" rx="91.0566" transform="matrix(1 0 -0.258819 0.965926 120.761 4.8678)" fill="url(#paint18_linear_0_155)" stroke="url(#paint19_linear_0_155)" stroke-width="3.7166"/>
<mask id="mask0_0_155" style="mask-type:alpha" maskUnits="userSpaceOnUse" x="113" y="58" width="341" height="319">
<circle cx="164.849" cy="164.849" r="149.482" transform="matrix(0.275856 0.836516 -0.995435 0.482963 402.09 0.00195312)" stroke="black" stroke-width="30.7341"/>
<circle cx="164.849" cy="164.849" r="149.482" transform="matrix(0.275856 0.836516 -0.995435 0.482963 402.09 0.00195312)" stroke="url(#paint20_radial_0_155)" stroke-width="30.7341"/>
</mask>
<g mask="url(#mask0_0_155)">
<path d="M401.435 302.756L417.49 318.426L506.831 133.37L279.495 -16.9572L286.924 133.389L407.945 227.08L402.896 245.922L376.741 269.987L373.31 282.793L387.342 292.816L401.435 302.756Z" fill="#738DD0"/>
<path d="M401.435 302.756L417.49 318.426L506.831 133.37L279.495 -16.9572L286.924 133.389L407.945 227.08L402.896 245.922L376.741 269.987L373.31 282.793L387.342 292.816L401.435 302.756Z" fill="url(#paint21_linear_0_155)"/>
<path d="M325.949 56.7387L290.509 55.2226L139.314 113.654L76.4328 325.93L165.993 278.678L193.351 148.914L276.691 106.792L314.991 97.6323L317.562 88.0393L322.555 69.4047L325.949 56.7387Z" fill="#D9D9D9"/>
<path d="M325.949 56.7387L290.509 55.2226L139.314 113.654L76.4328 325.93L165.993 278.678L193.351 148.914L276.691 106.792L314.991 97.6323L317.562 88.0393L322.555 69.4047L325.949 56.7387Z" fill="url(#paint22_radial_0_155)"/>
<path d="M325.949 56.7387L290.509 55.2226L139.314 113.654L76.4328 325.93L165.993 278.678L193.351 148.914L276.691 106.792L314.991 97.6323L317.562 88.0393L322.555 69.4047L325.949 56.7387Z" fill="url(#paint23_linear_0_155)"/>
<path d="M325.949 56.7387L290.509 55.2226L139.314 113.654L76.4328 325.93L165.993 278.678L193.351 148.914L276.691 106.792L314.991 97.6323L317.562 88.0393L322.555 69.4047L325.949 56.7387Z" fill="url(#paint24_linear_0_155)"/>
<path d="M118.562 303.556L148.378 360.862L255.168 410.961L431.48 324.497L371.423 281.004L256.651 334.237L195.618 324.034L162.432 278.14L154.494 284.941L135.084 295.143L118.562 303.556Z" fill="#D9D9D9"/>
<path d="M118.562 303.556L148.378 360.862L255.168 410.961L431.48 324.497L371.423 281.004L256.651 334.237L195.618 324.034L162.432 278.14L154.494 284.941L135.084 295.143L118.562 303.556Z" fill="url(#paint25_radial_0_155)"/>
<path d="M118.562 303.556L148.378 360.862L255.168 410.961L431.48 324.497L371.423 281.004L256.651 334.237L195.618 324.034L162.432 278.14L154.494 284.941L135.084 295.143L118.562 303.556Z" fill="url(#paint26_linear_0_155)"/>
</g>
<g filter="url(#filter6_d_0_155)">
<path d="M330.8 244.489H221.598L241.276 171.047C245.024 157.06 254.371 143.645 267.261 133.754C280.151 123.863 295.528 118.307 310.009 118.307C324.491 118.307 336.89 123.863 344.479 133.754C352.069 143.645 354.227 157.06 350.479 171.047L330.8 244.489ZM249.17 223.437H314.51L328.547 171.047C329.847 166.807 330.257 162.579 329.753 158.614C329.248 154.65 327.839 151.032 325.61 147.976C323.381 144.92 320.378 142.49 316.78 140.829C313.183 139.169 309.064 138.313 304.671 138.313C300.279 138.313 295.701 139.169 291.214 140.829C286.726 142.49 282.421 144.92 278.554 147.976C274.688 151.032 271.34 154.65 268.711 158.614C266.082 162.579 264.226 166.807 263.253 171.047L249.17 223.437Z" fill="url(#paint27_linear_0_155)"/>
<path d="M330.8 244.489H221.598L241.276 171.047C245.024 157.06 254.371 143.645 267.261 133.754C280.151 123.863 295.528 118.307 310.009 118.307C324.491 118.307 336.89 123.863 344.479 133.754C352.069 143.645 354.227 157.06 350.479 171.047L330.8 244.489ZM249.17 223.437H314.51L328.547 171.047C329.847 166.807 330.257 162.579 329.753 158.614C329.248 154.65 327.839 151.032 325.61 147.976C323.381 144.92 320.378 142.49 316.78 140.829C313.183 139.169 309.064 138.313 304.671 138.313C300.279 138.313 295.701 139.169 291.214 140.829C286.726 142.49 282.421 144.92 278.554 147.976C274.688 151.032 271.34 154.65 268.711 158.614C266.082 162.579 264.226 166.807 263.253 171.047L249.17 223.437Z" fill="url(#paint28_linear_0_155)"/>
<path fill-rule="evenodd" clip-rule="evenodd" d="M215.989 214.515C218.519 205.072 228.495 197.418 238.27 197.418H238.278H339.374H339.381C339.381 197.418 339.381 197.418 339.381 197.418C349.152 197.422 355.022 205.075 352.492 214.515L333.391 285.803C330.861 295.245 320.885 302.899 311.11 302.899H210.007C200.231 302.899 194.358 295.245 196.888 285.803L215.989 214.515Z" fill="url(#paint29_linear_0_155)"/>
<path fill-rule="evenodd" clip-rule="evenodd" d="M215.989 214.515C218.519 205.072 228.495 197.418 238.27 197.418H238.278H339.374H339.381C339.381 197.418 339.381 197.418 339.381 197.418C349.152 197.422 355.022 205.075 352.492 214.515L333.391 285.803C330.861 295.245 320.885 302.899 311.11 302.899H210.007C200.231 302.899 194.358 295.245 196.888 285.803L215.989 214.515Z" fill="white"/>
<path d="M290.903 244.653C291.815 241.174 291.375 237.823 289.666 235.231C287.957 232.64 285.097 230.988 281.626 230.588C278.155 230.187 274.314 231.066 270.827 233.059C267.34 235.051 264.449 238.018 262.699 241.401C261.577 243.533 260.953 245.76 260.876 247.904C260.799 250.048 261.272 252.051 262.257 253.751C262.988 255.12 263.113 256.811 262.611 258.542L262.046 260.651C261.427 263.139 261.849 265.508 263.22 267.251C264.591 268.993 266.802 269.969 269.378 269.969C271.984 269.969 274.752 268.969 277.072 267.188C279.392 265.408 281.075 262.993 281.75 260.476L282.315 258.366C282.763 256.603 283.817 254.884 285.306 253.488C288.069 250.988 290.045 247.869 290.903 244.653Z" fill="url(#paint30_linear_0_155)"/>
<path d="M290.903 244.653C291.815 241.174 291.375 237.823 289.666 235.231C287.957 232.64 285.097 230.988 281.626 230.588C278.155 230.187 274.314 231.066 270.827 233.059C267.34 235.051 264.449 238.018 262.699 241.401C261.577 243.533 260.953 245.76 260.876 247.904C260.799 250.048 261.272 252.051 262.257 253.751C262.988 255.12 263.113 256.811 262.611 258.542L262.046 260.651C261.427 263.139 261.849 265.508 263.22 267.251C264.591 268.993 266.802 269.969 269.378 269.969C271.984 269.969 274.752 268.969 277.072 267.188C279.392 265.408 281.075 262.993 281.75 260.476L282.315 258.366C282.763 256.603 283.817 254.884 285.306 253.488C288.069 250.988 290.045 247.869 290.903 244.653Z" fill="#295BFF"/>
</g>
<rect x="1.37734" y="1.79498" width="436.592" height="436.592" rx="91.0566" transform="matrix(1 0 -0.258819 0.965926 120.761 4.8678)" fill="url(#paint31_radial_0_155)" fill-opacity="0.2" stroke="url(#paint32_linear_0_155)" stroke-width="3.7166"/>
<defs>
<filter id="filter0_b_0_155" x="323.614" y="282.069" width="571.406" height="484.395" filterUnits="userSpaceOnUse" color-interpolation-filters="sRGB">
<feFlood flood-opacity="0" result="BackgroundImageFix"/>
<feGaussianBlur in="BackgroundImageFix" stdDeviation="14.1133"/>
<feComposite in2="SourceAlpha" operator="in" result="effect1_backgroundBlur_0_155"/>
<feBlend mode="normal" in="SourceGraphic" in2="effect1_backgroundBlur_0_155" result="shape"/>
</filter>
<filter id="filter1_b_0_155" x="316.235" y="277.124" width="543.628" height="457.899" filterUnits="userSpaceOnUse" color-interpolation-filters="sRGB">
<feFlood flood-opacity="0" result="BackgroundImageFix"/>
<feGaussianBlur in="BackgroundImageFix" stdDeviation="8.14831"/>
<feComposite in2="SourceAlpha" operator="in" result="effect1_backgroundBlur_0_155"/>
<feBlend mode="normal" in="SourceGraphic" in2="effect1_backgroundBlur_0_155" result="shape"/>
</filter>
<filter id="filter2_b_0_155" x="143.573" y="137.972" width="571.406" height="484.395" filterUnits="userSpaceOnUse" color-interpolation-filters="sRGB">
<feFlood flood-opacity="0" result="BackgroundImageFix"/>
<feGaussianBlur in="BackgroundImageFix" stdDeviation="14.1133"/>
<feComposite in2="SourceAlpha" operator="in" result="effect1_backgroundBlur_0_155"/>
<feBlend mode="normal" in="SourceGraphic" in2="effect1_backgroundBlur_0_155" result="shape"/>
</filter>
<filter id="filter3_b_0_155" x="136.194" y="133.027" width="543.628" height="457.899" filterUnits="userSpaceOnUse" color-interpolation-filters="sRGB">
<feFlood flood-opacity="0" result="BackgroundImageFix"/>
<feGaussianBlur in="BackgroundImageFix" stdDeviation="8.14831"/>
<feComposite in2="SourceAlpha" operator="in" result="effect1_backgroundBlur_0_155"/>
<feBlend mode="normal" in="SourceGraphic" in2="effect1_backgroundBlur_0_155" result="shape"/>
</filter>
<filter id="filter4_b_0_155" x="84.7299" y="69.4224" width="571.407" height="484.395" filterUnits="userSpaceOnUse" color-interpolation-filters="sRGB">
<feFlood flood-opacity="0" result="BackgroundImageFix"/>
<feGaussianBlur in="BackgroundImageFix" stdDeviation="14.1133"/>
<feComposite in2="SourceAlpha" operator="in" result="effect1_backgroundBlur_0_155"/>
<feBlend mode="normal" in="SourceGraphic" in2="effect1_backgroundBlur_0_155" result="shape"/>
</filter>
<filter id="filter5_b_0_155" x="77.3502" y="64.4758" width="543.628" height="457.899" filterUnits="userSpaceOnUse" color-interpolation-filters="sRGB">
<feFlood flood-opacity="0" result="BackgroundImageFix"/>
<feGaussianBlur in="BackgroundImageFix" stdDeviation="8.14831"/>
<feComposite in2="SourceAlpha" operator="in" result="effect1_backgroundBlur_0_155"/>
<feBlend mode="normal" in="SourceGraphic" in2="effect1_backgroundBlur_0_155" result="shape"/>
</filter>
<filter id="filter6_d_0_155" x="189.305" y="112.219" width="170.77" height="198.583" filterUnits="userSpaceOnUse" color-interpolation-filters="sRGB">
<feFlood flood-opacity="0" result="BackgroundImageFix"/>
<feColorMatrix in="SourceAlpha" type="matrix" values="0 0 0 0 0 0 0 0 0 0 0 0 0 0 0 0 0 0 127 0" result="hardAlpha"/>
<feOffset dy="0.907375"/>
<feGaussianBlur stdDeviation="3.49745"/>
<feComposite in2="hardAlpha" operator="out"/>
<feColorMatrix type="matrix" values="0 0 0 0 0.0573958 0 0 0 0 0.28201 0 0 0 0 0.725 0 0 0 0.3 0"/>
<feBlend mode="normal" in2="BackgroundImageFix" result="effect1_dropShadow_0_155"/>
<feBlend mode="normal" in="SourceGraphic" in2="effect1_dropShadow_0_155" result="shape"/>
</filter>
<linearGradient id="paint0_linear_0_155" x1="647.814" y1="509.641" x2="572.522" y2="743.344" gradientUnits="userSpaceOnUse">
<stop stop-color="#3985FF" stop-opacity="0"/>
<stop offset="1" stop-color="#3985FF"/>
</linearGradient>
<linearGradient id="paint1_linear_0_155" x1="716.591" y1="299.317" x2="706.791" y2="551.905" gradientUnits="userSpaceOnUse">
<stop stop-color="white"/>
<stop offset="1" stop-color="white" stop-opacity="0"/>
</linearGradient>
<linearGradient id="paint2_linear_0_155" x1="795.706" y1="676.922" x2="644.427" y2="745.335" gradientUnits="userSpaceOnUse">
<stop stop-color="white" stop-opacity="0"/>
<stop offset="0.455018" stop-color="white"/>
<stop offset="1" stop-color="white" stop-opacity="0"/>
</linearGradient>
<linearGradient id="paint3_linear_0_155" x1="194.474" y1="368.887" x2="320.937" y2="56.3456" gradientUnits="userSpaceOnUse">
<stop stop-color="#3996FF"/>
<stop offset="1" stop-color="#00A3FF"/>
</linearGradient>
<linearGradient id="paint4_linear_0_155" x1="428.992" y1="297.616" x2="112.414" y2="409.376" gradientUnits="userSpaceOnUse">
<stop stop-color="white" stop-opacity="0.3"/>
<stop offset="1" stop-color="white" stop-opacity="0"/>
</linearGradient>
<linearGradient id="paint5_linear_0_155" x1="467.773" y1="365.544" x2="392.481" y2="599.247" gradientUnits="userSpaceOnUse">
<stop stop-color="#3985FF" stop-opacity="0"/>
<stop offset="1" stop-color="#3985FF"/>
</linearGradient>
<linearGradient id="paint6_linear_0_155" x1="536.55" y1="155.22" x2="526.75" y2="407.809" gradientUnits="userSpaceOnUse">
<stop stop-color="white"/>
<stop offset="1" stop-color="white" stop-opacity="0"/>
</linearGradient>
<linearGradient id="paint7_linear_0_155" x1="615.665" y1="532.826" x2="464.386" y2="601.239" gradientUnits="userSpaceOnUse">
<stop stop-color="white" stop-opacity="0"/>
<stop offset="0.455018" stop-color="white"/>
<stop offset="1" stop-color="white" stop-opacity="0"/>
</linearGradient>
<linearGradient id="paint8_linear_0_155" x1="194.474" y1="368.887" x2="320.937" y2="56.3456" gradientUnits="userSpaceOnUse">
<stop stop-color="#3996FF"/>
<stop offset="1" stop-color="#00A3FF"/>
</linearGradient>
<linearGradient id="paint9_linear_0_155" x1="428.992" y1="297.616" x2="112.414" y2="409.376" gradientUnits="userSpaceOnUse">
<stop stop-color="white" stop-opacity="0.3"/>
<stop offset="1" stop-color="white" stop-opacity="0"/>
</linearGradient>
<linearGradient id="paint10_linear_0_155" x1="408.931" y1="296.995" x2="333.639" y2="530.697" gradientUnits="userSpaceOnUse">
<stop stop-color="#3985FF" stop-opacity="0"/>
<stop offset="1" stop-color="#3985FF"/>
</linearGradient>
<linearGradient id="paint11_linear_0_155" x1="477.708" y1="86.6705" x2="467.908" y2="339.259" gradientUnits="userSpaceOnUse">
<stop stop-color="white"/>
<stop offset="1" stop-color="white" stop-opacity="0"/>
</linearGradient>
<linearGradient id="paint12_linear_0_155" x1="556.823" y1="464.276" x2="405.544" y2="532.689" gradientUnits="userSpaceOnUse">
<stop stop-color="white" stop-opacity="0"/>
<stop offset="0.455018" stop-color="white"/>
<stop offset="1" stop-color="white" stop-opacity="0"/>
</linearGradient>
<linearGradient id="paint13_linear_0_155" x1="194.474" y1="368.887" x2="320.937" y2="56.3456" gradientUnits="userSpaceOnUse">
<stop stop-color="#3996FF"/>
<stop offset="1" stop-color="#00A3FF"/>
</linearGradient>
<linearGradient id="paint14_linear_0_155" x1="428.992" y1="297.616" x2="112.414" y2="409.376" gradientUnits="userSpaceOnUse">
<stop stop-color="white" stop-opacity="0.3"/>
<stop offset="1" stop-color="white" stop-opacity="0"/>
</linearGradient>
<linearGradient id="paint15_linear_0_155" x1="343.237" y1="221.027" x2="267.946" y2="454.73" gradientUnits="userSpaceOnUse">
<stop stop-color="#3D39FF" stop-opacity="0"/>
<stop offset="1" stop-color="#3D39FF"/>
</linearGradient>
<linearGradient id="paint16_linear_0_155" x1="412.014" y1="10.7035" x2="402.214" y2="263.291" gradientUnits="userSpaceOnUse">
<stop stop-color="white"/>
<stop offset="1" stop-color="white" stop-opacity="0"/>
</linearGradient>
<linearGradient id="paint17_linear_0_155" x1="491.13" y1="388.308" x2="339.85" y2="456.722" gradientUnits="userSpaceOnUse">
<stop stop-color="white" stop-opacity="0"/>
<stop offset="0.455018" stop-color="white"/>
<stop offset="1" stop-color="white" stop-opacity="0"/>
</linearGradient>
<linearGradient id="paint18_linear_0_155" x1="194.474" y1="368.887" x2="320.937" y2="56.3456" gradientUnits="userSpaceOnUse">
<stop stop-color="#3D39FF"/>
<stop offset="1" stop-color="#00A3FF"/>
</linearGradient>
<linearGradient id="paint19_linear_0_155" x1="428.992" y1="297.616" x2="112.414" y2="409.376" gradientUnits="userSpaceOnUse">
<stop stop-color="white" stop-opacity="0.3"/>
<stop offset="1" stop-color="white" stop-opacity="0"/>
</linearGradient>
<radialGradient id="paint20_radial_0_155" cx="0" cy="0" r="1" gradientUnits="userSpaceOnUse" gradientTransform="translate(164.611 164.611) rotate(-135) scale(202.329)">
<stop stop-color="#8A89E8"/>
<stop offset="1" stop-color="white"/>
</radialGradient>
<linearGradient id="paint21_linear_0_155" x1="314.788" y1="94.7434" x2="420.251" y2="217.332" gradientUnits="userSpaceOnUse">
<stop stop-color="#029FFF"/>
<stop offset="1" stop-color="white"/>
</linearGradient>
<radialGradient id="paint22_radial_0_155" cx="0" cy="0" r="1" gradientUnits="userSpaceOnUse" gradientTransform="translate(202.887 173.789) rotate(-50.4299) scale(164.712 116.874)">
<stop stop-color="#C2D3FF"/>
<stop offset="1" stop-color="white"/>
</radialGradient>
<linearGradient id="paint23_linear_0_155" x1="143.508" y1="205.634" x2="263.623" y2="124.175" gradientUnits="userSpaceOnUse">
<stop stop-color="#3971FF"/>
<stop offset="1" stop-color="white"/>
</linearGradient>
<linearGradient id="paint24_linear_0_155" x1="132.705" y1="271.519" x2="104.195" y2="134.957" gradientUnits="userSpaceOnUse">
<stop stop-color="#3D39FF"/>
<stop offset="1" stop-color="white"/>
</linearGradient>
<radialGradient id="paint25_radial_0_155" cx="0" cy="0" r="1" gradientUnits="userSpaceOnUse" gradientTransform="translate(228.962 319.538) rotate(-152.912) scale(51.6142 51.2219)">
<stop stop-color="#C2D3FF"/>
<stop offset="1" stop-color="white"/>
</radialGradient>
<linearGradient id="paint26_linear_0_155" x1="371.554" y1="297.112" x2="196.396" y2="392.715" gradientUnits="userSpaceOnUse">
<stop stop-color="#314EFF"/>
<stop offset="1" stop-color="white"/>
</linearGradient>
<linearGradient id="paint27_linear_0_155" x1="285.75" y1="208.845" x2="285.75" y2="76.5535" gradientUnits="userSpaceOnUse">
<stop stop-color="#F3C57A"/>
<stop offset="0.49" stop-color="#F39369"/>
<stop offset="1" stop-color="#E94867"/>
</linearGradient>
<linearGradient id="paint28_linear_0_155" x1="357.024" y1="165.639" x2="354.562" y2="222.463" gradientUnits="userSpaceOnUse">
<stop stop-color="white"/>
<stop offset="1" stop-color="#729DF3"/>
</linearGradient>
<linearGradient id="paint29_linear_0_155" x1="168.509" y1="238.907" x2="254.07" y2="300.808" gradientUnits="userSpaceOnUse">
<stop stop-color="#273A9B"/>
<stop offset="0.56" stop-color="#202F65"/>
<stop offset="1" stop-color="#021E2F"/>
</linearGradient>
<linearGradient id="paint30_linear_0_155" x1="270.27" y1="266.632" x2="270.27" y2="220.887" gradientUnits="userSpaceOnUse">
<stop stop-color="#F3C57A"/>
<stop offset="0.49" stop-color="#F39369"/>
<stop offset="1" stop-color="#E94867"/>
</linearGradient>
<radialGradient id="paint31_radial_0_155" cx="0" cy="0" r="1" gradientUnits="userSpaceOnUse" gradientTransform="translate(325.214 51.5209) rotate(118.332) scale(441.696 537.204)">
<stop stop-color="white"/>
<stop offset="1" stop-color="white" stop-opacity="0"/>
</radialGradient>
<linearGradient id="paint32_linear_0_155" x1="428.992" y1="297.616" x2="112.414" y2="409.376" gradientUnits="userSpaceOnUse">
<stop stop-color="white" stop-opacity="0.3"/>
<stop offset="1" stop-color="white" stop-opacity="0"/>
</linearGradient>
</defs>
</svg>
