<svg width="45" height="45" viewBox="0 0 45 45" fill="none" xmlns="http://www.w3.org/2000/svg">
<g clip-path="url(#clip0_565_380)">
<path fill-rule="evenodd" clip-rule="evenodd" d="M8.75366 8.14905H23.6122C24.7575 8.14903 25.6956 8.14902 26.4582 8.21133C27.2479 8.27586 27.9632 8.41362 28.6318 8.75428C29.6766 9.28665 30.5261 10.1361 31.0585 11.181C31.3991 11.8495 31.5369 12.5648 31.6014 13.3546C31.6637 14.1172 31.6637 15.0552 31.6637 16.2005V22.5495C31.6637 23.6949 31.6637 24.6329 31.6014 25.3955C31.5369 26.1852 31.3991 26.9005 31.0585 27.569C30.5261 28.6139 29.6766 29.4634 28.6318 29.9957C27.9632 30.3364 27.2479 30.4742 26.4582 30.5387C25.6956 30.601 24.7576 30.601 23.6123 30.601H17.481V33.6779H21.856C22.5729 33.6779 23.1541 34.2591 23.1541 34.976C23.1541 35.6929 22.5729 36.274 21.856 36.274H10.5098C9.79293 36.274 9.21177 35.6929 9.21177 34.976C9.21177 34.2591 9.79293 33.6779 10.5098 33.6779H14.8848V30.601H8.75359C7.60826 30.601 6.67026 30.601 5.90766 30.5387C5.11789 30.4742 4.40265 30.3364 3.73408 29.9957C2.68924 29.4634 1.83975 28.6139 1.30738 27.569C0.966725 26.9005 0.828956 26.1852 0.764429 25.3955C0.702121 24.6328 0.702134 23.6948 0.702149 22.5495V16.2006C0.702134 15.0552 0.702121 14.1172 0.764429 13.3546C0.828956 12.5648 0.966725 11.8495 1.30738 11.181C1.83975 10.1361 2.68924 9.28665 3.73408 8.75428C4.40265 8.41362 5.11789 8.27586 5.90766 8.21133C6.67028 8.14902 7.6083 8.14903 8.75366 8.14905ZM23.5579 28.0048C24.7708 28.0048 25.6024 28.0038 26.2468 27.9512C26.876 27.8997 27.2115 27.8056 27.4531 27.6826C28.0095 27.3991 28.4618 26.9468 28.7453 26.3904C28.8684 26.1488 28.9625 25.8133 29.0139 25.184C29.0665 24.5397 29.0675 23.7081 29.0675 22.4952V16.2548C29.0675 15.0419 29.0665 14.2104 29.0139 13.566C28.9625 12.9367 28.8684 12.6012 28.7453 12.3596C28.4618 11.8033 28.0095 11.3509 27.4531 11.0675C27.2115 10.9444 26.876 10.8503 26.2468 10.7989C25.6024 10.7462 24.7708 10.7452 23.5579 10.7452H8.80792C7.59504 10.7452 6.76345 10.7462 6.11907 10.7989C5.48985 10.8503 5.15429 10.9444 4.91271 11.0675C4.35636 11.3509 3.90404 11.8033 3.62057 12.3596C3.49747 12.6012 3.40337 12.9367 3.35196 13.566C3.29931 14.2104 3.2983 15.0419 3.2983 16.2548V22.4952C3.2983 23.7081 3.29931 24.5397 3.35196 25.184C3.40337 25.8133 3.49747 26.1488 3.62057 26.3904C3.90404 26.9468 4.35636 27.3991 4.91271 27.6826C5.15429 27.8056 5.48985 27.8997 6.11907 27.9512C6.76345 28.0038 7.59504 28.0048 8.80792 28.0048H23.5579Z" fill="white"/>
<path fill-rule="evenodd" clip-rule="evenodd" d="M8.75366 8.14905H23.6122C24.7575 8.14903 25.6956 8.14902 26.4582 8.21133C27.2479 8.27586 27.9632 8.41362 28.6318 8.75428C29.6766 9.28665 30.5261 10.1361 31.0585 11.181C31.3991 11.8495 31.5369 12.5648 31.6014 13.3546C31.6637 14.1172 31.6637 15.0552 31.6637 16.2005V22.5495C31.6637 23.6949 31.6637 24.6329 31.6014 25.3955C31.5369 26.1852 31.3991 26.9005 31.0585 27.569C30.5261 28.6139 29.6766 29.4634 28.6318 29.9957C27.9632 30.3364 27.2479 30.4742 26.4582 30.5387C25.6956 30.601 24.7576 30.601 23.6123 30.601H17.481V33.6779H21.856C22.5729 33.6779 23.1541 34.2591 23.1541 34.976C23.1541 35.6929 22.5729 36.274 21.856 36.274H10.5098C9.79293 36.274 9.21177 35.6929 9.21177 34.976C9.21177 34.2591 9.79293 33.6779 10.5098 33.6779H14.8848V30.601H8.75359C7.60826 30.601 6.67026 30.601 5.90766 30.5387C5.11789 30.4742 4.40265 30.3364 3.73408 29.9957C2.68924 29.4634 1.83975 28.6139 1.30738 27.569C0.966725 26.9005 0.828956 26.1852 0.764429 25.3955C0.702121 24.6328 0.702134 23.6948 0.702149 22.5495V16.2006C0.702134 15.0552 0.702121 14.1172 0.764429 13.3546C0.828956 12.5648 0.966725 11.8495 1.30738 11.181C1.83975 10.1361 2.68924 9.28665 3.73408 8.75428C4.40265 8.41362 5.11789 8.27586 5.90766 8.21133C6.67028 8.14902 7.6083 8.14903 8.75366 8.14905ZM23.5579 28.0048C24.7708 28.0048 25.6024 28.0038 26.2468 27.9512C26.876 27.8997 27.2115 27.8056 27.4531 27.6826C28.0095 27.3991 28.4618 26.9468 28.7453 26.3904C28.8684 26.1488 28.9625 25.8133 29.0139 25.184C29.0665 24.5397 29.0675 23.7081 29.0675 22.4952V16.2548C29.0675 15.0419 29.0665 14.2104 29.0139 13.566C28.9625 12.9367 28.8684 12.6012 28.7453 12.3596C28.4618 11.8033 28.0095 11.3509 27.4531 11.0675C27.2115 10.9444 26.876 10.8503 26.2468 10.7989C25.6024 10.7462 24.7708 10.7452 23.5579 10.7452H8.80792C7.59504 10.7452 6.76345 10.7462 6.11907 10.7989C5.48985 10.8503 5.15429 10.9444 4.91271 11.0675C4.35636 11.3509 3.90404 11.8033 3.62057 12.3596C3.49747 12.6012 3.40337 12.9367 3.35196 13.566C3.29931 14.2104 3.2983 15.0419 3.2983 16.2548V22.4952C3.2983 23.7081 3.29931 24.5397 3.35196 25.184C3.40337 25.8133 3.49747 26.1488 3.62057 26.3904C3.90404 26.9468 4.35636 27.3991 4.91271 27.6826C5.15429 27.8056 5.48985 27.8997 6.11907 27.9512C6.76345 28.0038 7.59504 28.0048 8.80792 28.0048H23.5579Z" fill="url(#paint0_linear_565_380)"/>
</g>
<defs>
<linearGradient id="paint0_linear_565_380" x1="41.2216" y1="38.0026" x2="11.5509" y2="8.3804" gradientUnits="userSpaceOnUse">
<stop offset="0.1539" stop-color="#209DF9"/>
<stop offset="0.5451" stop-color="#209DF9"/>
<stop offset="1" stop-color="#2842F7"/>
</linearGradient>
<clipPath id="clip0_565_380">
<rect width="34.0385" height="34.0385" fill="white" transform="translate(0.398438 5.19226)"/>
</clipPath>
</defs>
</svg>
