<svg width="61" height="62" viewBox="0 0 61 62" fill="none" xmlns="http://www.w3.org/2000/svg">
<g filter="url(#filter0_d_0_226)">
<rect x="7.91602" y="6.96582" width="45.6811" height="45.6811" rx="13.2502" fill="white"/>
<path fill-rule="evenodd" clip-rule="evenodd" d="M37.8489 18.79C38.8552 18.79 39.0019 20.0096 38.2621 20.6918L38.0529 20.8848C37.7253 21.1868 37.296 21.3546 36.8504 21.3546H22.8562C22.4022 21.3546 22.0342 21.7226 22.0342 22.1765V37.1692C22.0342 37.6232 22.4022 37.9912 22.8562 37.9912H37.8489C38.3028 37.9912 38.6708 37.6232 38.6708 37.1692V32.0189C38.6708 31.6602 38.821 31.318 39.085 31.0752C39.9069 30.3191 41.2354 30.9021 41.2354 32.0189V37.1692C41.2354 39.0395 39.7192 40.5557 37.8489 40.5557H22.8562C20.9859 40.5557 19.4697 39.0395 19.4697 37.1692V22.1765C19.4697 20.3062 20.9859 18.79 22.8562 18.79H37.8489ZM41.5778 23.0828C41.7174 23.2358 41.8257 23.415 41.8965 23.6102C41.9672 23.8054 41.999 24.0127 41.99 24.2203C41.981 24.4278 41.9314 24.6316 41.8441 24.8198C41.7567 25.0081 41.6333 25.1771 41.481 25.3173L31.6572 34.3836C31.3671 34.6517 30.9878 34.8006 30.5941 34.8009C30.5641 34.8021 30.534 34.7997 30.5046 34.7936C30.2948 34.7823 30.0894 34.7289 29.9005 34.6364C29.7115 34.544 29.5429 34.4143 29.4046 34.2552L24.477 28.5418C24.2101 28.2237 24.0783 27.8126 24.1101 27.3975C24.1419 26.9824 24.3348 26.5966 24.647 26.3235C24.9592 26.0503 25.3656 25.9118 25.7785 25.9378C26.1913 25.9639 26.5774 26.1524 26.8532 26.4627L30.7222 30.9463L39.3543 22.9837C39.6628 22.7014 40.0698 22.5533 40.4863 22.5719C40.9029 22.5905 41.2953 22.7741 41.5778 23.0828Z" fill="url(#paint0_linear_0_226)"/>
</g>
<defs>
<filter id="filter0_d_0_226" x="0.655447" y="0.915347" width="60.2022" height="60.2022" filterUnits="userSpaceOnUse" color-interpolation-filters="sRGB">
<feFlood flood-opacity="0" result="BackgroundImageFix"/>
<feColorMatrix in="SourceAlpha" type="matrix" values="0 0 0 0 0 0 0 0 0 0 0 0 0 0 0 0 0 0 127 0" result="hardAlpha"/>
<feOffset dy="1.21009"/>
<feGaussianBlur stdDeviation="3.63028"/>
<feComposite in2="hardAlpha" operator="out"/>
<feColorMatrix type="matrix" values="0 0 0 0 1 0 0 0 0 1 0 0 0 0 1 0 0 0 0.25 0"/>
<feBlend mode="normal" in2="BackgroundImageFix" result="effect1_dropShadow_0_226"/>
<feBlend mode="normal" in="SourceGraphic" in2="effect1_dropShadow_0_226" result="shape"/>
</filter>
<linearGradient id="paint0_linear_0_226" x1="18.4075" y1="11.6785" x2="43.8055" y2="40.4369" gradientUnits="userSpaceOnUse">
<stop offset="0.1539" stop-color="#209DF9"/>
<stop offset="0.5451" stop-color="#209DF9"/>
<stop offset="1" stop-color="#2842F7"/>
</linearGradient>
</defs>
</svg>
