<svg width="53" height="51" viewBox="0 0 53 51" fill="none" xmlns="http://www.w3.org/2000/svg">
<g filter="url(#filter0_d_565_385)">
<path d="M38.9097 20.9583C38.7135 20.7621 38.4857 20.6102 38.2452 20.5026V9.0925H29.6575V10.8834H36.4542V20.509C36.2201 20.6165 35.9986 20.7621 35.8088 20.9519L34.9671 21.7936C34.1127 22.648 34.1127 24.0402 34.9671 24.8946L35.8088 25.7362C35.9986 25.9261 36.2201 26.078 36.4542 26.1792V29.0966C36.4542 31.6596 35.043 33.9948 32.7774 35.1846L24.81 39.374V35.5959C26.5503 34.9567 30.5182 33.2291 30.5182 30.7863V19.8508C30.7903 19.7432 31.0435 19.5787 31.2523 19.3635L32.094 18.5218C32.5053 18.1105 32.7395 17.5536 32.7395 16.9714C32.7395 16.3828 32.5116 15.8323 32.094 15.4209L31.2523 14.5792C30.398 13.7249 29.0057 13.7249 28.1514 14.5792L27.3097 15.4209C26.4554 16.2752 26.4554 17.6675 27.3097 18.5218L28.1514 19.3635C28.3222 19.5344 28.5184 19.6736 28.7273 19.7749V30.7863C28.7273 31.6786 26.7148 32.8873 24.81 33.6721V12.9085C25.0504 12.8009 25.2719 12.6554 25.4681 12.4592L26.3098 11.6175C27.1641 10.7632 27.1641 9.37095 26.3098 8.51661L25.4681 7.67493C24.6138 6.8206 23.2215 6.8206 22.3672 7.67493L21.5255 8.51661C21.1078 8.93429 20.88 9.48486 20.88 10.0671C20.88 10.6493 21.1078 11.2062 21.5255 11.6175L22.3672 12.4592C22.5634 12.6554 22.7849 12.8009 23.0254 12.9085V33.6784C21.1205 32.8873 19.1081 31.6786 19.1081 30.7926V19.8128C19.3485 19.7053 19.5637 19.5534 19.7536 19.3635L20.5952 18.5218C21.0066 18.1105 21.2407 17.5536 21.2407 16.9714C21.2407 16.3828 21.0129 15.8323 20.5952 15.4209L19.7536 14.5792C18.8992 13.7249 17.507 13.7249 16.6526 14.5792L15.811 15.4209C15.3933 15.8323 15.1655 16.3892 15.1655 16.9714C15.1655 17.5599 15.3933 18.1105 15.811 18.5218L16.6526 19.3635C16.8488 19.5597 17.0703 19.7116 17.3171 19.8192V30.7863C17.3171 33.2291 21.2914 34.9567 23.0254 35.5959V39.3233L15.0769 35.1782C12.7923 33.9885 11.3747 31.6533 11.3747 29.0776V26.1602C11.5962 26.0527 11.8051 25.9134 11.9886 25.7299L12.8303 24.8882C13.6846 24.0339 13.6846 22.6416 12.8303 21.7873L11.9823 20.9583C11.7987 20.7748 11.5899 20.6355 11.3684 20.5279V10.8834H17.931V9.0925H9.57746V20.4836C9.32433 20.5912 9.08385 20.7494 8.87501 20.9519L8.03333 21.7936C7.17899 22.648 7.17899 24.0402 8.03333 24.8946L8.87501 25.7362C9.07752 25.9387 9.318 26.097 9.57746 26.2109V29.084C9.57746 32.3241 11.3621 35.2732 14.2415 36.773L23.9683 41.842L33.6128 36.7793C36.4732 35.2795 38.2515 32.3368 38.2515 29.1029V26.1919C38.492 26.0843 38.7198 25.9387 38.916 25.7362L39.7577 24.8946C40.612 24.0402 40.612 22.648 39.7577 21.7936L38.9097 20.9583ZM28.5754 17.2625C28.4172 17.1043 28.4172 16.8511 28.5754 16.6929L29.4171 15.8512C29.493 15.7753 29.6006 15.731 29.7018 15.731C29.8031 15.731 29.9107 15.769 29.9866 15.8512L30.8283 16.6929C30.9295 16.7942 30.9485 16.9144 30.9485 16.9777C30.9485 17.041 30.9359 17.1612 30.8283 17.2625L29.9866 18.1042C29.8854 18.2054 29.7651 18.2244 29.7018 18.2244C29.6385 18.2244 29.5183 18.2117 29.4171 18.1042L28.5754 17.2625ZM18.1904 18.2181C18.1272 18.2181 18.0069 18.2054 17.9057 18.0978L17.064 17.2562C16.9627 17.1549 16.9437 17.0347 16.9437 16.9714C16.9437 16.9081 16.9564 16.7879 17.064 16.6866L17.9057 15.8449C18.0069 15.7437 18.1272 15.7247 18.1904 15.7247C18.2537 15.7247 18.374 15.7373 18.4752 15.8449L19.3169 16.6866C19.4182 16.7879 19.4371 16.9081 19.4371 16.9714C19.4371 17.0347 19.4245 17.1549 19.3169 17.2562L18.4752 18.0978C18.374 18.2054 18.2537 18.2181 18.1904 18.2181ZM10.4255 24.5908C10.3622 24.5908 10.2419 24.5781 10.1407 24.4705L9.29901 23.6289C9.1408 23.4707 9.1408 23.2175 9.29901 23.0593L10.1407 22.224C10.2166 22.148 10.3242 22.1037 10.4255 22.1037C10.5267 22.1037 10.6343 22.1417 10.7103 22.224L11.5519 23.0656C11.7101 23.2238 11.7101 23.477 11.5519 23.6352L10.7103 24.4769C10.609 24.5781 10.4888 24.5908 10.4255 24.5908ZM23.6266 11.1935L22.7849 10.3519C22.6836 10.2506 22.6646 10.1304 22.6646 10.0671C22.6646 10.0038 22.6773 9.88355 22.7849 9.78229L23.6266 8.94061C23.7848 8.7824 24.0379 8.7824 24.1961 8.94061L25.0378 9.78229C25.196 9.9405 25.196 10.1936 25.0378 10.3519L24.1961 11.1935C24.0379 11.3517 23.7848 11.3517 23.6266 11.1935ZM38.4857 23.6352L37.644 24.4769C37.4858 24.6351 37.2326 24.6351 37.0744 24.4769L36.2328 23.6352C36.0745 23.477 36.0745 23.2238 36.2328 23.0656L37.0744 22.224C37.1504 22.148 37.258 22.1037 37.3592 22.1037C37.4605 22.1037 37.5681 22.1417 37.644 22.224L38.4857 23.0656C38.6439 23.2175 38.6439 23.477 38.4857 23.6352Z" fill="#2457ED"/>
<path d="M38.9097 20.9583C38.7135 20.7621 38.4857 20.6102 38.2452 20.5026V9.0925H29.6575V10.8834H36.4542V20.509C36.2201 20.6165 35.9986 20.7621 35.8088 20.9519L34.9671 21.7936C34.1127 22.648 34.1127 24.0402 34.9671 24.8946L35.8088 25.7362C35.9986 25.9261 36.2201 26.078 36.4542 26.1792V29.0966C36.4542 31.6596 35.043 33.9948 32.7774 35.1846L24.81 39.374V35.5959C26.5503 34.9567 30.5182 33.2291 30.5182 30.7863V19.8508C30.7903 19.7432 31.0435 19.5787 31.2523 19.3635L32.094 18.5218C32.5053 18.1105 32.7395 17.5536 32.7395 16.9714C32.7395 16.3828 32.5116 15.8323 32.094 15.4209L31.2523 14.5792C30.398 13.7249 29.0057 13.7249 28.1514 14.5792L27.3097 15.4209C26.4554 16.2752 26.4554 17.6675 27.3097 18.5218L28.1514 19.3635C28.3222 19.5344 28.5184 19.6736 28.7273 19.7749V30.7863C28.7273 31.6786 26.7148 32.8873 24.81 33.6721V12.9085C25.0504 12.8009 25.2719 12.6554 25.4681 12.4592L26.3098 11.6175C27.1641 10.7632 27.1641 9.37095 26.3098 8.51661L25.4681 7.67493C24.6138 6.8206 23.2215 6.8206 22.3672 7.67493L21.5255 8.51661C21.1078 8.93429 20.88 9.48486 20.88 10.0671C20.88 10.6493 21.1078 11.2062 21.5255 11.6175L22.3672 12.4592C22.5634 12.6554 22.7849 12.8009 23.0254 12.9085V33.6784C21.1205 32.8873 19.1081 31.6786 19.1081 30.7926V19.8128C19.3485 19.7053 19.5637 19.5534 19.7536 19.3635L20.5952 18.5218C21.0066 18.1105 21.2407 17.5536 21.2407 16.9714C21.2407 16.3828 21.0129 15.8323 20.5952 15.4209L19.7536 14.5792C18.8992 13.7249 17.507 13.7249 16.6526 14.5792L15.811 15.4209C15.3933 15.8323 15.1655 16.3892 15.1655 16.9714C15.1655 17.5599 15.3933 18.1105 15.811 18.5218L16.6526 19.3635C16.8488 19.5597 17.0703 19.7116 17.3171 19.8192V30.7863C17.3171 33.2291 21.2914 34.9567 23.0254 35.5959V39.3233L15.0769 35.1782C12.7923 33.9885 11.3747 31.6533 11.3747 29.0776V26.1602C11.5962 26.0527 11.8051 25.9134 11.9886 25.7299L12.8303 24.8882C13.6846 24.0339 13.6846 22.6416 12.8303 21.7873L11.9823 20.9583C11.7987 20.7748 11.5899 20.6355 11.3684 20.5279V10.8834H17.931V9.0925H9.57746V20.4836C9.32433 20.5912 9.08385 20.7494 8.87501 20.9519L8.03333 21.7936C7.17899 22.648 7.17899 24.0402 8.03333 24.8946L8.87501 25.7362C9.07752 25.9387 9.318 26.097 9.57746 26.2109V29.084C9.57746 32.3241 11.3621 35.2732 14.2415 36.773L23.9683 41.842L33.6128 36.7793C36.4732 35.2795 38.2515 32.3368 38.2515 29.1029V26.1919C38.492 26.0843 38.7198 25.9387 38.916 25.7362L39.7577 24.8946C40.612 24.0402 40.612 22.648 39.7577 21.7936L38.9097 20.9583ZM28.5754 17.2625C28.4172 17.1043 28.4172 16.8511 28.5754 16.6929L29.4171 15.8512C29.493 15.7753 29.6006 15.731 29.7018 15.731C29.8031 15.731 29.9107 15.769 29.9866 15.8512L30.8283 16.6929C30.9295 16.7942 30.9485 16.9144 30.9485 16.9777C30.9485 17.041 30.9359 17.1612 30.8283 17.2625L29.9866 18.1042C29.8854 18.2054 29.7651 18.2244 29.7018 18.2244C29.6385 18.2244 29.5183 18.2117 29.4171 18.1042L28.5754 17.2625ZM18.1904 18.2181C18.1272 18.2181 18.0069 18.2054 17.9057 18.0978L17.064 17.2562C16.9627 17.1549 16.9437 17.0347 16.9437 16.9714C16.9437 16.9081 16.9564 16.7879 17.064 16.6866L17.9057 15.8449C18.0069 15.7437 18.1272 15.7247 18.1904 15.7247C18.2537 15.7247 18.374 15.7373 18.4752 15.8449L19.3169 16.6866C19.4182 16.7879 19.4371 16.9081 19.4371 16.9714C19.4371 17.0347 19.4245 17.1549 19.3169 17.2562L18.4752 18.0978C18.374 18.2054 18.2537 18.2181 18.1904 18.2181ZM10.4255 24.5908C10.3622 24.5908 10.2419 24.5781 10.1407 24.4705L9.29901 23.6289C9.1408 23.4707 9.1408 23.2175 9.29901 23.0593L10.1407 22.224C10.2166 22.148 10.3242 22.1037 10.4255 22.1037C10.5267 22.1037 10.6343 22.1417 10.7103 22.224L11.5519 23.0656C11.7101 23.2238 11.7101 23.477 11.5519 23.6352L10.7103 24.4769C10.609 24.5781 10.4888 24.5908 10.4255 24.5908ZM23.6266 11.1935L22.7849 10.3519C22.6836 10.2506 22.6646 10.1304 22.6646 10.0671C22.6646 10.0038 22.6773 9.88355 22.7849 9.78229L23.6266 8.94061C23.7848 8.7824 24.0379 8.7824 24.1961 8.94061L25.0378 9.78229C25.196 9.9405 25.196 10.1936 25.0378 10.3519L24.1961 11.1935C24.0379 11.3517 23.7848 11.3517 23.6266 11.1935ZM38.4857 23.6352L37.644 24.4769C37.4858 24.6351 37.2326 24.6351 37.0744 24.4769L36.2328 23.6352C36.0745 23.477 36.0745 23.2238 36.2328 23.0656L37.0744 22.224C37.1504 22.148 37.258 22.1037 37.3592 22.1037C37.4605 22.1037 37.5681 22.1417 37.644 22.224L38.4857 23.0656C38.6439 23.2175 38.6439 23.477 38.4857 23.6352Z" fill="url(#paint0_linear_565_385)"/>
</g>
<defs>
<filter id="filter0_d_565_385" x="-0.260569" y="-4.05047" width="60.2023" height="60.2022" filterUnits="userSpaceOnUse" color-interpolation-filters="sRGB">
<feFlood flood-opacity="0" result="BackgroundImageFix"/>
<feColorMatrix in="SourceAlpha" type="matrix" values="0 0 0 0 0 0 0 0 0 0 0 0 0 0 0 0 0 0 127 0" result="hardAlpha"/>
<feOffset dy="1.21009"/>
<feGaussianBlur stdDeviation="3.63028"/>
<feComposite in2="hardAlpha" operator="out"/>
<feColorMatrix type="matrix" values="0 0 0 0 1 0 0 0 0 1 0 0 0 0 1 0 0 0 0.25 0"/>
<feBlend mode="normal" in2="BackgroundImageFix" result="effect1_dropShadow_565_385"/>
<feBlend mode="normal" in="SourceGraphic" in2="effect1_dropShadow_565_385" result="shape"/>
</filter>
<linearGradient id="paint0_linear_565_385" x1="53.0305" y1="45.9688" x2="13.0886" y2="11.9378" gradientUnits="userSpaceOnUse">
<stop offset="0.1539" stop-color="#209DF9"/>
<stop offset="0.5451" stop-color="#209DF9"/>
<stop offset="1" stop-color="#2842F7"/>
</linearGradient>
</defs>
</svg>
