<svg width="61" height="61" viewBox="0 0 61 61" fill="none" xmlns="http://www.w3.org/2000/svg">
<g filter="url(#filter0_d_0_218)">
<rect x="7.60156" y="6.4834" width="45.6811" height="45.6811" rx="13.2502" fill="white"/>
<path d="M17.3208 36.9007C16.2139 37.5398 14.7826 37.1645 14.2954 35.9829C13.4286 33.8808 12.9778 31.6225 12.9766 29.3338C12.975 26.271 13.7788 23.2615 15.3075 20.6074C16.8361 17.9533 19.0358 15.7478 21.686 14.2122C23.6662 13.0648 25.8458 12.3215 28.0991 12.0164C29.3656 11.8448 30.4084 12.8946 30.4111 14.1727C30.4138 15.4509 29.3716 16.468 28.1146 16.6999C26.674 16.9655 25.2838 17.4769 24.0065 18.217C22.0587 19.3457 20.4419 20.9667 19.3183 22.9175C18.1948 24.8683 17.604 27.0802 17.6051 29.3314C17.6059 30.8077 17.8612 32.2667 18.3543 33.6461C18.7846 34.8497 18.4277 36.2616 17.3208 36.9007Z" fill="url(#paint0_radial_0_218)"/>
<path d="M30.4429 14.1727C30.4429 12.8945 31.4835 11.8426 32.7504 12.0115C35.0043 12.3119 37.1855 13.0506 39.1681 14.1939C41.8214 15.7239 44.0257 17.9248 45.56 20.5757C47.0942 23.2266 47.9043 26.2344 47.9091 29.2973C47.9127 31.5859 47.4666 33.8451 46.6042 35.9491C46.1195 37.1317 44.689 37.5099 43.5807 36.8732C42.4725 36.2364 42.1127 34.8252 42.5404 33.6208C43.0306 32.2404 43.2829 30.7808 43.2806 29.3045C43.277 27.0533 42.6816 24.8426 41.5539 22.8942C40.4263 20.9458 38.8061 19.3281 36.8559 18.2035C35.577 17.4661 34.1858 16.9577 32.7447 16.695C31.4872 16.4658 30.4429 15.4508 30.4429 14.1727Z" fill="url(#paint1_radial_0_218)"/>
<path d="M43.5649 36.9007C44.6718 37.5398 45.0625 38.9669 44.2827 39.9797C42.8957 41.7814 41.1653 43.301 39.1839 44.4464C36.5322 45.9792 33.524 46.7878 30.4611 46.791C27.3983 46.7942 24.3884 45.9919 21.7335 44.4646C19.7497 43.3234 18.0162 41.8074 16.6253 40.0086C15.8435 38.9975 16.2312 37.5695 17.3367 36.9282C18.4423 36.2868 19.8443 36.6808 20.6735 37.6534C21.6239 38.7682 22.7618 39.7164 24.0415 40.4526C25.9928 41.5751 28.2051 42.1648 30.4563 42.1624C32.7075 42.1601 34.9185 41.5658 36.8675 40.4391C38.1456 39.7003 39.2816 38.7497 40.2296 37.6329C41.0568 36.6586 42.458 36.2616 43.5649 36.9007Z" fill="url(#paint2_radial_0_218)"/>
</g>
<defs>
<filter id="filter0_d_0_218" x="0.340994" y="0.432925" width="60.2022" height="60.2022" filterUnits="userSpaceOnUse" color-interpolation-filters="sRGB">
<feFlood flood-opacity="0" result="BackgroundImageFix"/>
<feColorMatrix in="SourceAlpha" type="matrix" values="0 0 0 0 0 0 0 0 0 0 0 0 0 0 0 0 0 0 127 0" result="hardAlpha"/>
<feOffset dy="1.21009"/>
<feGaussianBlur stdDeviation="3.63028"/>
<feComposite in2="hardAlpha" operator="out"/>
<feColorMatrix type="matrix" values="0 0 0 0 1 0 0 0 0 1 0 0 0 0 1 0 0 0 0.25 0"/>
<feBlend mode="normal" in2="BackgroundImageFix" result="effect1_dropShadow_0_218"/>
<feBlend mode="normal" in="SourceGraphic" in2="effect1_dropShadow_0_218" result="shape"/>
</filter>
<radialGradient id="paint0_radial_0_218" cx="0" cy="0" r="1" gradientUnits="userSpaceOnUse" gradientTransform="translate(25.1178 11.8584) rotate(115.963) scale(24.9352)">
<stop offset="0.0811967" stop-color="#209DF9"/>
<stop offset="0.881729" stop-color="#E6F2FA"/>
</radialGradient>
<radialGradient id="paint1_radial_0_218" cx="0" cy="0" r="1" gradientUnits="userSpaceOnUse" gradientTransform="translate(46.4714 37.4721) rotate(-120.171) scale(28.3955)">
<stop offset="0.0361323" stop-color="#2842F7"/>
<stop offset="0.305917" stop-color="#209DF9"/>
<stop offset="0.882715" stop-color="#E6F2FA"/>
</radialGradient>
<radialGradient id="paint2_radial_0_218" cx="0" cy="0" r="1" gradientUnits="userSpaceOnUse" gradientTransform="translate(18.4082 43.0102) rotate(-5.91044) scale(24.3051)">
<stop stop-color="#209DF9"/>
<stop offset="0.934523" stop-color="#E6F2FA"/>
</radialGradient>
</defs>
</svg>
