<svg width="61" height="61" viewBox="0 0 61 61" fill="none" xmlns="http://www.w3.org/2000/svg">
<g filter="url(#filter0_d_0_203)">
<rect x="7.91602" y="6.4834" width="45.6811" height="45.6811" rx="13.2502" fill="white"/>
<path fill-rule="evenodd" clip-rule="evenodd" d="M42.8863 13.0986C41.8424 13.0986 40.9961 13.9449 40.9961 14.9889V32.0011C42.3633 32.0078 43.6502 32.3543 44.7766 32.9606V14.9889C44.7766 13.9449 43.9303 13.0986 42.8863 13.0986ZM38.4758 22.1569V32.389C36.9764 32.8726 35.6685 33.7827 34.6953 34.9765V22.1569C34.6953 21.1129 35.5416 20.2666 36.5856 20.2666C37.6295 20.2666 38.4758 21.1129 38.4758 22.1569ZM22.0937 26.7242C22.0937 25.6802 22.94 24.834 23.9839 24.834C25.0279 24.834 25.8742 25.6802 25.8742 26.7242V43.7365C25.8742 44.7804 25.0279 45.6267 23.9839 45.6267C22.94 45.6267 22.0937 44.7804 22.0937 43.7365V26.7242ZM15.793 39.484C15.793 38.44 16.6393 37.5938 17.6832 37.5938C18.7272 37.5938 19.5735 38.44 19.5735 39.484V43.7371C19.5735 44.781 18.7272 45.6273 17.6832 45.6273C16.6393 45.6273 15.793 44.781 15.793 43.7371V39.484ZM30.2848 33.0254C29.2408 33.0254 28.3945 33.8717 28.3945 34.9156V43.7368C28.3945 44.7808 29.2408 45.6271 30.2848 45.6271C31.3287 45.6271 32.175 44.7808 32.175 43.7368V34.9156C32.175 33.8717 31.3287 33.0254 30.2848 33.0254ZM40.7986 45.6273C44.1262 45.6273 46.8237 42.9298 46.8237 39.6021C46.8237 36.2745 44.1262 33.577 40.7986 33.577C37.471 33.577 34.7734 36.2745 34.7734 39.6021C34.7734 42.9298 37.471 45.6273 40.7986 45.6273Z" fill="url(#paint0_linear_0_203)"/>
<path d="M39.1565 38.6184V38.0671C39.1565 37.6284 39.3335 37.2077 39.6486 36.8975C39.9637 36.5873 40.3911 36.4131 40.8367 36.4131C41.2824 36.4131 41.7097 36.5873 42.0248 36.8975C42.3399 37.2077 42.517 37.6284 42.517 38.0671V38.6184H42.797C42.9455 38.6184 43.088 38.6765 43.193 38.7799C43.2981 38.8833 43.3571 39.0235 43.3571 39.1697V41.375C43.3571 41.5212 43.2981 41.6614 43.193 41.7648C43.088 41.8682 42.9455 41.9263 42.797 41.9263H38.8765C38.7279 41.9263 38.5855 41.8682 38.4804 41.7648C38.3754 41.6614 38.3164 41.5212 38.3164 41.375V39.1697C38.3164 38.8665 38.5684 38.6184 38.8765 38.6184H39.1565ZM40.5567 40.4736V41.0993H41.1168V40.4736C41.2236 40.4129 41.307 40.3192 41.3542 40.2071C41.4014 40.095 41.4096 39.9707 41.3777 39.8534C41.3458 39.7362 41.2755 39.6326 41.1777 39.5587C41.0799 39.4848 40.96 39.4448 40.8367 39.4448C40.7135 39.4448 40.5936 39.4848 40.4958 39.5587C40.398 39.6326 40.3277 39.7362 40.2958 39.8534C40.2638 39.9707 40.2721 40.095 40.3193 40.2071C40.3665 40.3192 40.4499 40.4129 40.5567 40.4736ZM39.9966 38.0671V38.6184H41.6769V38.0671C41.6769 37.8477 41.5883 37.6374 41.4308 37.4823C41.2732 37.3272 41.0596 37.2401 40.8367 37.2401C40.6139 37.2401 40.4002 37.3272 40.2427 37.4823C40.0851 37.6374 39.9966 37.8477 39.9966 38.0671Z" fill="white"/>
</g>
<defs>
<filter id="filter0_d_0_203" x="0.655447" y="0.432925" width="60.2022" height="60.2022" filterUnits="userSpaceOnUse" color-interpolation-filters="sRGB">
<feFlood flood-opacity="0" result="BackgroundImageFix"/>
<feColorMatrix in="SourceAlpha" type="matrix" values="0 0 0 0 0 0 0 0 0 0 0 0 0 0 0 0 0 0 127 0" result="hardAlpha"/>
<feOffset dy="1.21009"/>
<feGaussianBlur stdDeviation="3.63028"/>
<feComposite in2="hardAlpha" operator="out"/>
<feColorMatrix type="matrix" values="0 0 0 0 1 0 0 0 0 1 0 0 0 0 1 0 0 0 0.25 0"/>
<feBlend mode="normal" in2="BackgroundImageFix" result="effect1_dropShadow_0_203"/>
<feBlend mode="normal" in="SourceGraphic" in2="effect1_dropShadow_0_203" result="shape"/>
</filter>
<linearGradient id="paint0_linear_0_203" x1="14.3295" y1="2.47053" x2="52.5448" y2="42.3633" gradientUnits="userSpaceOnUse">
<stop offset="0.1539" stop-color="#209DF9"/>
<stop offset="0.5451" stop-color="#209DF9"/>
<stop offset="1" stop-color="#2842F7"/>
</linearGradient>
</defs>
</svg>
