<svg width="61" height="62" viewBox="0 0 61 62" fill="none" xmlns="http://www.w3.org/2000/svg">
<g filter="url(#filter0_d_0_235)">
<rect x="7.60156" y="6.96582" width="45.6811" height="45.6811" rx="13.2502" fill="white"/>
<path fill-rule="evenodd" clip-rule="evenodd" d="M38.6611 27.9939C38.5185 27.6498 38.3096 27.3372 38.0462 27.0739C37.6561 26.6835 37.1604 26.4154 36.6201 26.3026C36.0797 26.1897 35.5182 26.2371 35.0044 26.4388L29.8586 21.2931C30.0966 20.6867 30.1185 20.0168 29.9207 19.3961C29.7228 18.7755 29.3173 18.2419 28.7723 17.8851C28.2273 17.5282 27.576 17.37 26.928 17.4369C26.28 17.5038 25.6749 17.7917 25.2142 18.2524L22.0068 21.4609C21.5454 21.9214 21.2568 22.5268 21.1896 23.1751C21.1223 23.8235 21.2805 24.4752 21.6375 25.0206C21.9944 25.566 22.5284 25.9717 23.1495 26.1695C23.7706 26.3673 24.4409 26.345 25.0475 26.1065L25.9446 27.0025L17.5608 34.2691C17.2324 34.5541 16.9661 34.9036 16.7785 35.296C16.591 35.6884 16.4863 36.1152 16.4709 36.5498C16.4555 36.9844 16.5298 37.4175 16.6891 37.8221C16.8484 38.2268 17.0892 38.5943 17.3967 38.9018C17.7043 39.2093 18.0718 39.4502 18.4764 39.6095C18.8811 39.7688 19.3142 39.843 19.7488 39.8277C20.1834 39.8123 20.6102 39.7075 21.0026 39.52C21.3949 39.3325 21.7445 39.0662 22.0295 38.7377L29.2961 30.354L30.1932 31.2511C29.9553 31.8575 29.9334 32.5273 30.1312 33.148C30.3291 33.7687 30.7346 34.3023 31.2796 34.6591C31.8246 35.0159 32.4759 35.1742 33.1239 35.1073C33.7718 35.0404 34.377 34.7524 34.8377 34.2918L38.0462 31.0844C38.3096 30.8211 38.5185 30.5084 38.6611 30.1644C38.8036 29.8203 38.877 29.4516 38.877 29.0791C38.877 28.7067 38.8036 28.338 38.6611 27.9939ZM25.1231 40.3071C25.1231 39.3857 25.87 38.6387 26.7915 38.6387H42.747C43.6685 38.6387 44.4154 39.3857 44.4154 40.3071C44.4154 41.2285 43.6685 41.9755 42.747 41.9755H26.7915C25.87 41.9755 25.1231 41.2285 25.1231 40.3071Z" fill="url(#paint0_linear_0_235)"/>
</g>
<defs>
<filter id="filter0_d_0_235" x="0.340994" y="0.915347" width="60.2022" height="60.2022" filterUnits="userSpaceOnUse" color-interpolation-filters="sRGB">
<feFlood flood-opacity="0" result="BackgroundImageFix"/>
<feColorMatrix in="SourceAlpha" type="matrix" values="0 0 0 0 0 0 0 0 0 0 0 0 0 0 0 0 0 0 127 0" result="hardAlpha"/>
<feOffset dy="1.21009"/>
<feGaussianBlur stdDeviation="3.63028"/>
<feComposite in2="hardAlpha" operator="out"/>
<feColorMatrix type="matrix" values="0 0 0 0 1 0 0 0 0 1 0 0 0 0 1 0 0 0 0.25 0"/>
<feBlend mode="normal" in2="BackgroundImageFix" result="effect1_dropShadow_0_235"/>
<feBlend mode="normal" in="SourceGraphic" in2="effect1_dropShadow_0_235" result="shape"/>
</filter>
<linearGradient id="paint0_linear_0_235" x1="17.5465" y1="4.26516" x2="41.5698" y2="46.9393" gradientUnits="userSpaceOnUse">
<stop offset="0.1539" stop-color="#209DF9"/>
<stop offset="0.5451" stop-color="#209DF9"/>
<stop offset="1" stop-color="#2842F7"/>
</linearGradient>
</defs>
</svg>
