<svg width="53" height="52" viewBox="0 0 53 52" fill="none" xmlns="http://www.w3.org/2000/svg">
<g filter="url(#filter0_d_565_382)">
<path fill-rule="evenodd" clip-rule="evenodd" d="M8.27315 6.84863H38.084V24.5888C38.084 28.5403 36.4528 31.8749 34.1392 34.5926C30.9434 38.344 26.416 40.9283 23.087 42.3956L22.6709 42.579L22.2548 42.3956C18.9258 40.9283 14.3984 38.344 11.2026 34.5926C8.87236 31.8749 7.25781 28.5403 7.25781 24.5888V6.84863H8.27315ZM22.2881 35.8597H19.2421L21.2727 33.8923C21.6056 33.5755 21.8553 33.2587 22.0218 32.9753C22.1882 32.6919 22.2714 32.3584 22.2714 32.0083C22.2714 31.458 22.0883 31.0079 21.7055 30.7078C21.3227 30.4076 20.8566 30.2409 20.3073 30.2409C19.7747 30.2409 19.3253 30.391 18.9591 30.7078C18.5929 31.0246 18.3599 31.408 18.2933 31.8915L19.1256 32.0249C19.1755 31.7081 19.3086 31.4414 19.525 31.2413C19.7414 31.0412 19.9911 30.9412 20.3073 30.9412C20.6236 30.9412 20.8899 31.0412 21.1063 31.2413C21.3227 31.4414 21.4225 31.6915 21.4225 32.0249C21.4225 32.4418 21.1895 32.8753 20.7401 33.3421L18.26 35.8097V36.6267H22.3214V35.8597H22.2881ZM26.2495 30.3743H25.2342L23.603 32.9419C23.2035 33.5755 23.0038 34.1758 23.0038 34.7093C23.0038 35.3095 23.2035 35.793 23.6197 36.1765C24.0191 36.56 24.5351 36.7601 25.1676 36.7601C25.7835 36.7601 26.2995 36.56 26.6989 36.1765C27.0984 35.793 27.3148 35.2929 27.3148 34.6759C27.3148 34.1091 27.1317 33.6422 26.7489 33.2754C26.3827 32.9086 25.9166 32.7252 25.3674 32.7252C25.0345 32.7252 24.7848 32.7752 24.585 32.8919L24.5684 32.8753L26.2495 30.3743ZM23.8693 34.7426C23.8693 35.1094 23.9858 35.4262 24.2355 35.6763C24.4685 35.9264 24.7848 36.0598 25.1676 36.0598C25.5504 36.0598 25.8501 35.9431 26.0997 35.693C26.3328 35.4429 26.4493 35.1261 26.4493 34.7426C26.4493 34.3592 26.3328 34.0424 26.0997 33.8089C25.8667 33.5589 25.5504 33.4421 25.1843 33.4421C24.8014 33.4421 24.4852 33.5589 24.2355 33.8089C23.9858 34.0257 23.8693 34.3425 23.8693 34.7426ZM31.3928 11.4504H29.5286L25.0677 15.552L29.5452 21.0374H31.4094C24.3187 12.3841 31.9254 21.671 26.932 15.552C31.9254 10.9835 24.3187 17.9195 31.3928 11.4504ZM14.6814 12.4841H17.6775V21.0207H18.8259V12.4841H21.8387V11.4504H14.6814V12.4841ZM24.7848 21.0207C24.7848 5.89827 24.7848 22.1378 24.7848 11.4504H23.6197V21.0207H24.7848ZM32.5246 33.3421L22.6709 25.0556L12.8172 33.3421C15.6468 36.6267 19.6083 38.9609 22.6709 40.3448C25.7335 38.9609 29.7116 36.6267 32.5246 33.3421ZM24.3021 24.6388L33.3901 32.275C35.0047 30.0909 36.07 27.5232 36.07 24.5721V8.88274H9.28848V24.5888C9.28848 27.5399 10.3537 30.1075 11.9683 32.2917L21.0564 24.6554H16.3126V26.5895C16.3126 26.9563 16.013 27.2731 15.6301 27.2731H11.7519C11.3857 27.2731 11.0695 26.973 11.0695 26.5895V21.3542C11.0695 20.9874 11.3691 20.6706 11.7519 20.6706H15.6468C16.013 20.6706 16.3292 20.9707 16.3292 21.3542V23.2883H34.006C34.3722 23.2883 34.6884 23.5884 34.6884 23.9719C34.6884 24.3387 34.3888 24.6554 34.006 24.6554H32.6744V26.2394C32.6744 26.6062 32.3748 26.923 31.992 26.923H31.3761C31.0099 26.923 30.6937 26.6229 30.6937 26.2394V24.6554H24.3021V24.6388ZM14.9644 22.0378H12.4177V25.9059H14.9644V23.9719V22.0378Z" fill="url(#paint0_linear_565_382)"/>
</g>
<defs>
<filter id="filter0_d_565_382" x="-0.260569" y="-6.05047" width="60.2023" height="60.2022" filterUnits="userSpaceOnUse" color-interpolation-filters="sRGB">
<feFlood flood-opacity="0" result="BackgroundImageFix"/>
<feColorMatrix in="SourceAlpha" type="matrix" values="0 0 0 0 0 0 0 0 0 0 0 0 0 0 0 0 0 0 127 0" result="hardAlpha"/>
<feOffset dy="1.21009"/>
<feGaussianBlur stdDeviation="3.63028"/>
<feComposite in2="hardAlpha" operator="out"/>
<feColorMatrix type="matrix" values="0 0 0 0 1 0 0 0 0 1 0 0 0 0 1 0 0 0 0.25 0"/>
<feBlend mode="normal" in2="BackgroundImageFix" result="effect1_dropShadow_565_382"/>
<feBlend mode="normal" in="SourceGraphic" in2="effect1_dropShadow_565_382" result="shape"/>
</filter>
<linearGradient id="paint0_linear_565_382" x1="49.8818" y1="46.8151" x2="9.66529" y2="15.6392" gradientUnits="userSpaceOnUse">
<stop offset="0.1539" stop-color="#209DF9"/>
<stop offset="0.5451" stop-color="#209DF9"/>
<stop offset="1" stop-color="#2842F7"/>
</linearGradient>
</defs>
</svg>
