<svg viewBox="0 0 127 56" fill="none" xmlns="http://www.w3.org/2000/svg">
<path d="M36.9763 8.77612V28.1009C36.9763 32.4696 34.6186 36.5235 30.807 38.6882L28.41 40.0657L23.1838 37.0745L28.2528 34.162C30.4533 32.9026 31.7893 30.5805 31.7893 28.0615V13.9714H10.963V28.1009C10.963 30.6198 12.3384 32.9419 14.4996 34.2014L31.7893 44.0409V49.9839L11.9847 38.6882C8.17309 36.5235 5.8154 32.4696 5.8154 28.1009V8.77612H36.9763Z" fill="#020F3E" fill-opacity="0.5"/>
<path d="M82.7926 31.5251H86.4077L77.4484 11.0195H74.9729L65.9743 31.4857H69.6288L71.4363 27.3531H80.985L82.7926 31.5251ZM72.8116 24.2045L76.2303 16.3722L79.649 24.2045H72.8116Z" fill="#020F3E" fill-opacity="0.5"/>
<path d="M101.143 18.7338C102.558 20.2294 103.265 22.0399 103.265 24.1652C103.265 26.3299 102.558 28.1404 101.143 29.636C99.7287 31.1316 97.9997 31.8794 95.9957 31.8794C93.7559 31.8794 92.0662 31.0529 90.8874 29.4392V36.7598L87.7438 34.9493V16.884H90.8874V19.0094C92.0662 17.3563 93.7952 16.5298 95.9957 16.5298C97.9997 16.4904 99.7287 17.2382 101.143 18.7338ZM95.4849 28.8882C96.7816 28.8882 97.9211 28.4553 98.7856 27.5894C99.6501 26.6842 100.082 25.5821 100.082 24.2046C100.082 22.8664 99.6501 21.7644 98.7856 20.8592C97.9211 19.9539 96.7816 19.521 95.4849 19.521C94.1881 19.521 93.0486 19.9539 92.1841 20.8592C91.3196 21.7251 90.8874 22.8664 90.8874 24.2046C90.8874 25.5428 91.3196 26.6448 92.1841 27.5894C93.0879 28.4553 94.1881 28.8882 95.4849 28.8882Z" fill="#020F3E" fill-opacity="0.5"/>
<path d="M119.534 18.7338C120.949 20.2294 121.656 22.0399 121.656 24.1652C121.656 26.3299 120.949 28.1404 119.534 29.636C118.119 31.1316 116.39 31.8794 114.386 31.8794C112.147 31.8794 110.457 31.0529 109.278 29.4392V36.7598L106.134 34.9493V16.884H109.278V19.0094C110.457 17.3563 112.186 16.5298 114.386 16.5298C116.43 16.4904 118.119 17.2382 119.534 18.7338ZM113.915 28.8882C115.212 28.8882 116.351 28.4553 117.216 27.5894C118.08 26.6842 118.512 25.5821 118.512 24.2046C118.512 22.8664 118.08 21.7644 117.216 20.8592C116.351 19.9539 115.212 19.521 113.915 19.521C112.618 19.521 111.479 19.9539 110.614 20.8592C109.75 21.7251 109.317 22.8664 109.317 24.2046C109.317 25.5428 109.75 26.6448 110.614 27.5894C111.479 28.4553 112.579 28.8882 113.915 28.8882Z" fill="#020F3E" fill-opacity="0.5"/>
<path d="M66.3285 21.2526C66.3285 18.3008 65.3068 15.7819 63.2242 13.7353C61.1809 11.6493 58.666 10.626 55.7189 10.626C52.7718 10.626 50.2569 11.6493 48.1743 13.7353C46.1309 15.7819 45.1093 18.3008 45.1093 21.2526C45.1093 24.2045 46.1309 26.7234 48.1743 28.8094C48.9209 29.5572 50.807 30.7773 51.3571 31.0921C51.4357 31.1315 62.7527 37.5468 62.7527 37.5468V33.8866L58.4695 31.5644C60.2771 31.1315 61.8489 30.1869 63.2242 28.8094C65.3068 26.7234 66.3285 24.2045 66.3285 21.2526ZM60.8665 26.5266C59.4912 27.9041 57.7622 28.6126 55.7189 28.6126C53.6755 28.6126 51.9466 27.9041 50.532 26.5266C49.1566 25.1097 48.4493 23.378 48.4493 21.2526C48.4493 19.1273 49.1566 17.3956 50.532 16.018C51.9466 14.6011 53.6755 13.8927 55.7189 13.8927C57.7622 13.8927 59.4912 14.6011 60.8665 16.018C62.2811 17.3956 62.9884 19.1667 62.9884 21.2526C62.9884 23.378 62.2811 25.1097 60.8665 26.5266Z" fill="#020F3E" fill-opacity="0.5"/>
</svg>
