<svg viewBox="0 0 256 92" fill="none" xmlns="http://www.w3.org/2000/svg">
<path fill-rule="evenodd" clip-rule="evenodd" d="M69.0128 42.8583V0.246094H0L4.05958 11.133L11.4509 11.6653H57.5619V42.8583C57.5619 48.4066 54.5536 53.5678 49.7177 56.3097L34.5145 64.9225L32.9618 74.3095L46.0948 71.4869L55.3623 66.2451C63.7888 61.4709 69.0128 52.5033 69.0128 42.8583Z" fill="url(#paint0_linear_444_1030)"/>
<path fill-rule="evenodd" clip-rule="evenodd" d="M69.0128 42.8583V0.246094H0L4.05958 11.133L11.4509 11.6653H57.5619V42.8583C57.5619 48.4066 54.5536 53.5678 49.7177 56.3097L34.5145 64.9225L32.9618 74.3095L46.0948 71.4869L55.3623 66.2451C63.7888 61.4709 69.0128 52.5033 69.0128 42.8583Z" fill="url(#paint1_linear_444_1030)"/>
<path fill-rule="evenodd" clip-rule="evenodd" d="M0 0.246094V42.8583C0 52.5034 5.22408 61.471 13.6505 66.2289L57.5619 91.0995V77.9707L46.0948 71.4708L34.4983 64.9064L19.279 56.2936C14.443 53.5517 11.4348 48.4066 11.4348 42.8422V11.6653L0 0.246094Z" fill="url(#paint2_linear_444_1030)"/>
<path fill-rule="evenodd" clip-rule="evenodd" d="M0 0.246094V42.8583C0 52.5034 5.22408 61.471 13.6505 66.2289L57.5619 91.0995V77.9707L46.0948 71.4708L34.4983 64.9064L19.279 56.2936C14.443 53.5517 11.4348 48.4066 11.4348 42.8422V11.6653L0 0.246094Z" fill="url(#paint3_linear_444_1030)"/>
<path fill-rule="evenodd" clip-rule="evenodd" d="M147.717 34.2954L155.254 17.0215L162.791 34.2954H147.717ZM121.289 39.3921C118.249 42.4243 114.432 43.9727 109.903 43.9727C105.375 43.9727 101.558 42.4243 98.4361 39.3921C95.3954 36.2954 93.8428 32.4245 93.8428 27.7632C93.8428 23.102 95.3954 19.2473 98.4361 16.1989C101.541 13.1022 105.358 11.5538 109.903 11.5538C114.432 11.5538 118.249 13.1022 121.289 16.1989C124.395 19.2311 125.947 23.102 125.947 27.7632C125.947 32.4245 124.395 36.2792 121.289 39.3921ZM133.387 27.7632C133.387 21.2472 131.123 15.6828 126.53 11.1667C122.001 6.58615 116.421 4.32812 109.887 4.32812C103.353 4.32812 97.7729 6.58615 93.1796 11.1667C88.651 15.6828 86.3867 21.2472 86.3867 27.7632C86.3867 34.2793 88.651 39.8437 93.1796 44.4243C94.8617 46.0694 99.0345 48.7307 100.264 49.4403C100.474 49.5532 125.478 63.7304 125.478 63.7304V55.6338L115.968 50.4887C119.931 49.4887 123.457 47.4726 126.513 44.4404C131.123 39.8437 133.387 34.2793 133.387 27.7632ZM238.791 44.5533C241.702 44.5533 244.16 43.5856 246.101 41.6501C248.042 39.6502 249.012 37.1986 249.012 34.2309C249.012 31.2632 248.042 28.8116 246.101 26.8762C244.16 24.8762 241.702 23.9085 238.791 23.9085C235.88 23.9085 233.421 24.8762 231.48 26.8762C229.539 28.8116 228.569 31.2632 228.569 34.2309C228.569 37.1986 229.539 39.6502 231.48 41.6501C233.405 43.5856 235.88 44.5533 238.791 44.5533ZM251.277 22.2149C254.447 25.5052 255.999 29.5052 255.999 34.2309C255.999 39.005 254.447 43.0049 251.277 46.3113C248.107 49.6016 244.354 51.2145 239.874 51.2145C234.958 51.2145 231.205 49.4081 228.537 45.7952V61.9563L221.55 58.0047V18.086H228.537V22.7311C231.189 19.0537 234.941 17.2473 239.874 17.2473C244.354 17.2473 248.107 18.9247 251.277 22.2149ZM198.001 44.5533C200.912 44.5533 203.371 43.5856 205.311 41.6501C207.252 39.6502 208.223 37.1986 208.223 34.2309C208.223 31.2632 207.252 28.8116 205.311 26.8762C203.371 24.8762 200.912 23.9085 198.001 23.9085C195.09 23.9085 192.631 24.8762 190.69 26.8762C188.75 28.8116 187.779 31.2632 187.779 34.2309C187.779 37.1986 188.75 39.6502 190.69 41.6501C192.631 43.5856 195.09 44.5533 198.001 44.5533ZM210.503 22.2149C213.673 25.5052 215.226 29.5052 215.226 34.2309C215.226 39.005 213.673 43.0049 210.503 46.3113C207.333 49.6016 203.581 51.2145 199.101 51.2145C194.184 51.2145 190.432 49.4081 187.763 45.7952V61.9563L180.776 58.0047V18.086H187.763V22.7311C190.415 19.0537 194.168 17.2473 199.101 17.2473C203.565 17.2473 207.333 18.9247 210.503 22.2149ZM169.81 50.3597H177.832L157.987 5.16682H152.537L132.595 50.3597H140.682L144.66 41.263H165.848L169.81 50.3597Z" fill="white"/>
<defs>
<linearGradient id="paint0_linear_444_1030" x1="9.61958" y1="2.6696" x2="55.2377" y2="41.0436" gradientUnits="userSpaceOnUse">
<stop stop-color="#719ACD"/>
<stop offset="0.43" stop-color="#719ACD"/>
<stop offset="1" stop-color="#485CAB"/>
</linearGradient>
<linearGradient id="paint1_linear_444_1030" x1="-5.66662" y1="-32.729" x2="66.4454" y2="56.8784" gradientUnits="userSpaceOnUse">
<stop offset="0.1539" stop-color="#209DF9"/>
<stop offset="0.5451" stop-color="#209DF9"/>
<stop offset="1" stop-color="#2842F7"/>
</linearGradient>
<linearGradient id="paint2_linear_444_1030" x1="39.3825" y1="81.3782" x2="-1.62843" y2="14.6121" gradientUnits="userSpaceOnUse">
<stop stop-color="#97C9E6"/>
<stop offset="0.76" stop-color="#719BCD"/>
<stop offset="1" stop-color="#719ACD"/>
</linearGradient>
<linearGradient id="paint3_linear_444_1030" x1="44.9438" y1="88.3235" x2="-55.7115" y2="-60.9754" gradientUnits="userSpaceOnUse">
<stop stop-color="#3BD5FF"/>
<stop offset="0.3901" stop-color="#209DF9"/>
<stop offset="0.5562" stop-color="#209DF9"/>
</linearGradient>
</defs>
</svg>
