<svg width="124" height="58" viewBox="0 0 124 58" fill="none" xmlns="http://www.w3.org/2000/svg">
<path d="M94.3516 23.5771V33.0697H96.422V29.192H100.837V33.0697H102.908V23.5771H100.837V27.469H96.422V23.5771H94.3516Z" fill="#545C89"/>
<path d="M107.572 29.2412H108.861L112.04 33.0705H114.716L110.479 28.1607L114.181 23.5771H111.801L108.715 27.6458H107.572V23.5771H105.5V33.0705H107.572V29.2412Z" fill="#545C89"/>
<path d="M90.7901 33.0697H92.9705L88.927 23.5771H86.8146L82.6738 33.0697H84.7719L85.6042 31.1582H90.0061L90.7901 33.0697ZM86.2237 29.5746L87.8281 25.7633L89.336 29.5746H86.2237Z" fill="#545C89"/>
<path d="M78.3417 27.2773H75.8212V25.1577H81.2381L81.2428 23.5771H73.75V33.0697H78.0743C80.5 33.0697 81.8916 31.9829 81.8916 30.0879C81.8916 28.2757 80.6305 27.2773 78.3417 27.2773ZM77.981 31.4892H75.8212V28.8579H77.981C79.2959 28.8579 79.9082 29.2984 79.9082 30.1739C79.9082 31.0682 79.2595 31.4892 77.981 31.4892Z" fill="#545C89"/>
<path d="M57.2663 25.1577L59.4348 23.5771H52.1777V33.0705H59.4348V31.4892H54.2489V29.0589H58.6722V27.4784H54.2489V25.1577H57.2663Z" fill="#545C89"/>
<path d="M46.7031 27.2773H44.1825V25.1577H48.2055L50.374 23.5771H42.1113V33.0705H46.4357C48.8613 33.0705 50.2521 31.9829 50.2521 30.0879C50.2521 28.2757 48.9918 27.2773 46.7031 27.2773ZM46.3423 31.4892H44.1825V28.8579H46.3423C47.6564 28.8579 48.2687 29.2984 48.2687 30.1739C48.2687 31.0682 47.6208 31.4892 46.3423 31.4892Z" fill="#545C89"/>
<path d="M65.3181 23.5771H61.3672V33.0697H63.4376V30.3813H65.3181C67.8395 30.3813 69.4059 29.0699 69.4059 26.9745C69.4059 24.8791 67.8395 23.5771 65.3181 23.5771ZM65.2722 28.8007H63.4376V25.1577H65.2722C66.5998 25.1577 67.3292 25.8048 67.3292 26.9792C67.3292 28.1537 66.599 28.8007 65.2722 28.8007Z" fill="#545C89"/>
<path d="M38.5542 31.0154C38.0054 31.3095 37.3904 31.4618 36.7662 31.4583C34.8991 31.4583 33.5439 30.1399 33.5439 28.3238C33.5439 26.5078 34.8991 25.1933 36.7662 25.1933C37.4411 25.1836 38.1013 25.3881 38.6499 25.777L40.1357 24.6941L40.0376 24.6088C39.1673 23.8553 38.0115 23.457 36.6863 23.457C35.2488 23.457 33.9442 23.9359 33.0131 24.8067C32.0819 25.6776 31.5605 26.9139 31.5605 28.2753C31.5605 29.6368 32.0748 30.8934 33.0083 31.7963C33.9419 32.6992 35.2457 33.2 36.6729 33.2C38.1657 33.2 39.4695 32.6852 40.354 31.7486L39.0131 30.7713L38.5542 31.0154Z" fill="#545C89"/>
<mask id="mask0_565_95" style="mask-type:luminance" maskUnits="userSpaceOnUse" x="10" y="20" width="17" height="17">
<path d="M26.6395 28.2804C26.6397 27.8105 26.5973 27.3415 26.5129 26.879L24.8096 28.12C24.8096 28.1732 24.8096 28.2272 24.8096 28.2765C24.8115 29.6229 24.3573 30.9311 23.5195 31.9924C22.6817 33.0537 21.5086 33.8068 20.1874 34.1316C18.8662 34.4564 17.4731 34.3341 16.2304 33.7844C14.9877 33.2346 13.967 32.2889 13.3312 31.0984C12.6954 29.9078 12.4812 28.5409 12.7228 27.2158C12.9643 25.8908 13.6476 24.6839 14.6638 23.7879C15.6799 22.8918 16.9702 22.3582 18.3288 22.2722C19.6874 22.1862 21.036 22.5528 22.1593 23.3134L23.6981 22.1914C22.3018 21.077 20.5639 20.4651 18.7697 20.4562C16.9755 20.4472 15.2315 21.0417 13.8239 22.142C12.4163 23.2424 11.4287 24.7833 11.0231 26.5119C10.6176 28.2404 10.8181 30.054 11.592 31.655C12.3658 33.256 13.6669 34.5493 15.2817 35.3227C16.8966 36.0961 18.7293 36.3036 20.4791 35.9112C22.2289 35.5188 23.7919 34.5499 24.9116 33.1633C26.0313 31.7767 26.6411 30.0549 26.6411 28.2804H26.6395Z" fill="white"/>
</mask>
<g mask="url(#mask0_565_95)">
<mask id="mask1_565_95" style="mask-type:luminance" maskUnits="userSpaceOnUse" x="10" y="20" width="18" height="17">
<path d="M27.0307 20.0654H10.416V36.4975H27.0307V20.0654Z" fill="white"/>
</mask>
<g mask="url(#mask1_565_95)">
<mask id="mask2_565_95" style="mask-type:luminance" maskUnits="userSpaceOnUse" x="10" y="20" width="18" height="17">
<path d="M27.0307 20.0596H10.416V36.4916H27.0307V20.0596Z" fill="white"/>
</mask>
<g mask="url(#mask2_565_95)">
<rect x="10.3887" y="20.0264" width="16.6708" height="16.4876" fill="#545C89"/>
</g>
</g>
</g>
<path d="M24.9792 23.4912C25.3553 23.9717 25.6738 24.4937 25.9285 25.0467L18.7189 30.3016L15.707 28.4339V26.1875L18.7189 28.0544L24.9792 23.4912Z" fill="#545C89"/>
</svg>
