<svg width="125" height="53" viewBox="0 0 125 53" fill="none" xmlns="http://www.w3.org/2000/svg">
<g clip-path="url(#clip0_565_136)">
<path d="M99.5903 29.124L100.378 29.2315C100.199 30.109 99.4649 30.5746 98.6233 30.5746C97.316 30.5746 96.6892 29.6434 96.6892 28.4256C96.6892 27.2079 97.3518 26.2946 98.6591 26.2946C99.4649 26.2946 100.056 26.6886 100.342 27.4228L99.5903 27.7451C99.4112 27.3153 99.1068 27.0109 98.6233 27.0109C97.7816 27.0109 97.4951 27.6914 97.4951 28.4256C97.4951 29.1957 97.8174 29.8582 98.6591 29.8582C99.1605 29.8762 99.4649 29.6075 99.5903 29.124ZM72.084 35.3201H73.0868C73.4808 35.3201 73.7673 35.1231 73.7673 34.7292C73.7673 34.3352 73.4808 34.1561 73.0868 34.1561H72.084V35.3201ZM71.3139 36.0364V31.8997H74.3224V32.616H72.084V33.4398H73.2121C74.0359 33.4398 74.5373 33.8159 74.5373 34.6933C74.5373 35.535 74.0359 36.0364 73.2121 36.0364H71.3139ZM75.0029 36.0364V31.8997H75.7909V35.3201H75.9162L76.9549 31.8997H78.4054V36.0364H77.6175V32.616H77.51L76.4893 36.0364H75.0029ZM79.9096 33.9949H80.8588C81.2706 33.9949 81.5393 33.6726 81.5393 33.2786C81.5393 32.8667 81.2885 32.5981 80.8588 32.5981H79.9096V33.9949ZM79.1396 36.0364V31.8997H80.8588C81.7183 31.8997 82.3093 32.4011 82.3093 33.2786C82.3093 34.1561 81.7183 34.6754 80.8588 34.6754H79.9096V36.0185H79.1396V36.0364ZM82.3272 36.0364L83.6166 33.8517L82.363 31.8997H83.2942L84.2254 33.5293H84.5478V31.8997H85.3357V33.5293H85.658L86.5892 31.8997H87.5204L86.2669 33.8517L87.5563 36.0364H86.643L85.658 34.2277H85.3357V36.0364H84.5478V34.2277H84.2254L83.2405 36.0364H82.3272ZM89.0426 34.2636H90.2424L89.741 32.5981H89.5798L89.0426 34.2636ZM87.7174 36.0364L89.0963 31.8997H90.2424L91.6213 36.0364H90.7976L90.4573 34.9978H88.8098L88.4696 36.0364H87.7174ZM71.296 30.5208V26.3841H72.7645L73.4808 29.8045H73.5882L74.2508 26.3841H75.7192V30.5208H74.9313V27.0825H74.8238L74.1971 30.5029H72.8898L72.1914 27.0825H72.084V30.5029H71.296V30.5208ZM78.28 29.8762C79.1396 29.8762 79.4978 29.2136 79.4978 28.4435C79.4978 27.6377 79.0859 27.0288 78.2263 27.0288C77.3667 27.0288 77.0265 27.6914 77.0265 28.4435C77.0265 29.2136 77.4205 29.8762 78.28 29.8762ZM78.2621 30.5925C76.9728 30.5925 76.2207 29.6613 76.2207 28.4435C76.2207 27.2258 76.9728 26.3125 78.2621 26.3125C79.5515 26.3125 80.3036 27.2258 80.3036 28.4435C80.3036 29.6613 79.5515 30.5925 78.2621 30.5925ZM83.6166 29.124L84.4045 29.2315C84.2254 30.109 83.4912 30.5746 82.6495 30.5746C81.3423 30.5746 80.7155 29.6434 80.7155 28.4256C80.7155 27.2079 81.3781 26.2946 82.6854 26.2946C83.4912 26.2946 84.0822 26.6886 84.3687 27.4228L83.6166 27.7451C83.4375 27.3153 83.133 27.0109 82.6495 27.0109C81.8079 27.0109 81.5213 27.6914 81.5213 28.4256C81.5213 29.1957 81.8437 29.8582 82.6854 29.8582C83.1868 29.8762 83.4912 29.6075 83.6166 29.124ZM84.9955 30.5208V26.3841H85.7834V27.9958H86.1953L87.4667 26.3841H88.4158L86.8579 28.2824L88.4696 30.5029H87.5204L86.1953 28.6942H85.7834V30.5029H84.9955V30.5208ZM90.511 29.8762C91.3706 29.8762 91.7288 29.2136 91.7288 28.4435C91.7288 27.6377 91.3169 27.0288 90.4573 27.0288C89.5977 27.0288 89.2575 27.6914 89.2575 28.4435C89.2575 29.2136 89.6336 29.8762 90.511 29.8762ZM90.4752 30.5925C89.1859 30.5925 88.4517 29.6613 88.4517 28.4435C88.4517 27.2258 89.1859 26.3125 90.4752 26.3125C91.7646 26.3125 92.5167 27.2258 92.5167 28.4435C92.5167 29.6613 91.7825 30.5925 90.4752 30.5925ZM93.8061 28.0675H94.8089C95.1492 28.0675 95.3999 27.9242 95.3999 27.584C95.3999 27.2079 95.1671 27.1005 94.8089 27.1005H93.8061V28.0675ZM93.8061 29.8045H94.8805C95.2566 29.8045 95.5073 29.6792 95.5073 29.2852C95.5073 28.8912 95.2387 28.748 94.8805 28.748H93.8061V29.8045ZM93.0539 30.5208V26.3841H94.9343C95.6147 26.3841 96.152 26.6707 96.152 27.387C96.152 27.8705 95.9729 28.2286 95.5431 28.3898C96.0087 28.5152 96.2594 28.8733 96.2594 29.3568C96.2594 30.109 95.7222 30.5029 95.0059 30.5029H93.0539V30.5208ZM100.969 30.5208V26.3841H101.757V27.9958H102.169L103.423 26.3841H104.372L102.832 28.3182L104.425 30.5208H103.476L102.169 28.7121H101.757V30.5208H100.969ZM105.912 28.748H107.112L106.61 27.0825H106.449L105.912 28.748ZM104.569 30.5208L105.965 26.3841H107.112L108.49 30.5208H107.667L107.326 29.4822H105.661L105.321 30.5208H104.569ZM111.32 28.2465V27.0825H110.407C109.995 27.0825 109.708 27.2079 109.708 27.6556C109.708 28.1033 109.995 28.2286 110.407 28.2286H111.32V28.2465ZM108.866 30.5208L109.046 29.3926C109.099 29.0345 109.278 28.7838 109.619 28.6047C109.189 28.4256 108.902 28.0137 108.902 27.5302C108.902 26.7423 109.619 26.3662 110.317 26.3662H112.054V30.5029H111.284V28.927H110.371C109.995 28.927 109.869 29.0524 109.816 29.4464L109.654 30.5208H108.866ZM22.5332 39.815V22.4982H39.8679V12.0938H67.5712V39.815H22.5332Z" fill="#545C89"/>
<path d="M31.9697 34.3534H31.5936L29.8207 26.3845H26.5078V36.0368H28.227V28.0678H28.603L30.3222 36.0368H33.2411L34.9961 28.0678H35.3722V36.0368H37.0913V26.3845H33.7784L31.9697 34.3534ZM49.4297 36.0368H55.4647V34.3534H51.1847V31.9359H54.8737V30.3242H51.1847V28.0678H55.4647V26.3845H49.4297V36.0368ZM43.2516 34.5862C41.2817 34.5862 40.3684 33.1178 40.3684 31.2017C40.3684 29.2856 41.2817 27.8171 43.2516 27.8171C45.2214 27.8171 46.1347 29.2856 46.1347 31.2017C46.1347 33.1178 45.2214 34.5862 43.2516 34.5862ZM43.2516 26.1338C40.2968 26.1338 38.5776 28.1753 38.5776 31.1659C38.5776 34.1565 40.2968 36.2696 43.2516 36.2696C46.2063 36.2696 47.9255 34.1565 47.9255 31.1659C47.9255 28.1753 46.2063 26.1338 43.2516 26.1338ZM56.6824 36.0368H58.5448L60.64 32.2224L62.8785 36.0368H64.7409L61.7503 30.9868L64.5618 26.3845H62.6994L60.7295 29.8228L58.7239 26.3845H56.8615L59.5476 30.9331L56.6824 36.0368Z" fill="white"/>
</g>
<defs>
<clipPath id="clip0_565_136">
<rect width="125" height="53" fill="white"/>
</clipPath>
</defs>
</svg>
