<svg width="125" height="58" viewBox="0 0 125 58" fill="none" xmlns="http://www.w3.org/2000/svg">
<path d="M19.6493 13.752C11.8456 13.752 5.45312 20.0614 5.45312 27.9481C5.45312 35.7519 11.7625 42.1443 19.6493 42.1443C27.4531 42.1443 33.8455 35.8349 33.8455 27.9481C33.8455 20.0614 27.4531 13.752 19.6493 13.752ZM19.6493 40.9821C12.4267 40.9821 6.61538 35.1708 6.61538 27.9481C6.61538 20.7255 12.4267 14.9142 19.6493 14.9142C26.8719 14.9142 32.6832 20.7255 32.6832 27.9481C32.7663 35.0877 26.8719 40.9821 19.6493 40.9821Z" fill="#545C89"/>
<path d="M19.649 38.492C20.1471 38.492 20.3962 38.1599 20.4792 37.7448C20.5622 37.9108 20.7282 38.0769 20.8943 38.1599C21.0603 38.1599 21.3094 38.1599 21.4754 38.0769C21.6414 37.9938 21.8075 37.8278 21.8905 37.6618C21.9735 37.4957 21.9735 37.2467 21.8905 37.0806C22.1395 37.4127 22.4716 37.4957 22.8867 37.3297C23.3848 37.0806 23.5509 36.7486 23.3018 36.2505C22.7207 34.8391 22.1395 33.5108 21.5584 32.0995C21.4754 31.9335 21.4754 31.8505 21.3924 31.6844C21.3094 31.6014 21.3094 31.5184 21.2263 31.4354C21.2263 31.3524 21.1433 31.3524 21.0603 31.2693C21.9735 31.3524 22.3886 31.6844 22.6377 31.8505C22.7207 31.9335 22.7207 31.9335 22.9697 31.8505C23.0527 31.8505 23.2188 31.8505 23.3018 31.8505C23.3848 31.9335 23.5509 32.0165 23.6339 32.0165C23.966 32.2656 24.298 32.5146 24.6301 32.7637C24.7961 32.9297 24.9622 33.0957 24.9622 33.3448C24.9622 33.5108 24.4641 33.9259 24.381 34.092C24.049 34.424 24.5471 34.9222 25.2112 34.9222C25.0452 34.7561 24.9622 34.5901 25.0452 34.424C25.1282 34.424 25.2112 34.424 25.3773 34.341C25.5433 34.258 25.4603 33.8429 25.5433 33.7599C25.7924 33.5108 26.4565 33.5108 26.9546 33.5108C27.1207 33.5108 27.3697 33.4278 27.2867 33.1788C27.5358 33.1788 27.6188 33.4278 27.6188 33.5939C27.8678 33.4278 28.0339 32.8467 27.2037 32.6807C27.3697 32.5146 27.6188 32.5146 27.7848 32.6807C27.9508 32.4316 27.5358 32.0165 26.8716 32.2656C26.8716 32.2656 26.5395 31.8505 25.7093 32.8467C25.6263 32.7637 25.4603 32.6807 25.3773 32.5976C25.0452 32.2656 24.215 31.4354 24.215 31.4354C24.215 30.9373 24.132 30.0241 23.5509 29.5259C23.3018 29.2769 23.0528 29.1939 22.4716 29.0278C22.4716 29.0278 22.7207 28.6127 22.8037 28.4467C23.3018 28.9448 24.298 29.1108 24.298 28.2807C25.1282 29.1108 25.8754 28.6127 25.8754 28.1146C25.8754 28.3637 25.9584 28.6127 26.0414 28.8618C26.1244 29.1109 26.5395 30.1901 27.4527 30.1901C27.4527 30.5222 27.4527 31.7674 28.615 32.0165C28.698 32.0165 28.698 32.0165 28.781 32.0995C29.2791 32.6807 31.1886 33.2618 31.3546 33.0957C31.1886 33.0127 30.9395 32.8467 30.9395 32.1825C30.9395 31.7675 30.8565 29.4429 30.8565 26.2052C30.8565 25.0429 30.7735 21.3071 27.0376 20.809C26.4565 20.726 25.9584 20.809 25.4603 21.1411C24.7961 21.6392 24.4641 22.4694 24.8792 23.3826V23.4656C25.0452 23.7146 24.9622 23.8807 24.7961 24.0467C24.4641 24.3788 24.132 24.5448 23.7169 24.6278C23.4678 24.6278 23.2188 24.5448 23.0527 24.3788C22.6377 23.9637 22.3886 23.4656 22.2226 22.8844C22.0565 21.8052 22.3056 21.2241 22.3056 21.1411C22.6377 20.5599 23.2188 20.0618 23.966 20.0618C24.298 19.3977 25.2942 19.6467 25.2942 19.6467C25.5433 19.7297 25.6263 19.7297 25.7093 19.8958C25.7093 19.8958 26.1244 19.2316 25.7093 18.9826C25.2942 18.7335 24.381 18.6505 24.381 18.6505C24.381 18.2354 23.7169 17.9033 22.3886 18.1524C20.8943 18.4014 20.5622 17.8203 20.5622 17.8203C20.4792 18.5675 21.0603 18.8996 21.2263 19.0656C20.6452 19.7297 19.815 20.975 19.649 22.7184C19.4829 20.975 18.6528 19.7297 18.0716 19.0656C18.2377 18.9826 18.8188 18.5675 18.7358 17.8203C18.7358 17.8203 18.4037 18.4014 16.9094 18.1524C15.6641 17.9033 14.9169 18.2354 14.9169 18.6505C14.9169 18.6505 14.0037 18.7335 13.5886 18.9826C13.1735 19.2316 13.5886 19.8958 13.5886 19.8958C13.6716 19.8128 13.7547 19.7297 14.0037 19.6467C14.0037 19.6467 14.9999 19.3977 15.332 20.0618C16.0792 20.1448 16.6603 20.5599 16.9924 21.1411C16.9924 21.1411 17.3245 21.7222 17.0754 22.8844C16.9924 23.4656 16.6603 23.9637 16.2452 24.3788C16.0792 24.5448 15.8301 24.7109 15.5811 24.6278C15.166 24.5448 14.8339 24.3788 14.5018 24.0467C14.3358 23.8807 14.2528 23.7146 14.4188 23.4656V23.3826C14.8339 22.4694 14.5018 21.6392 13.8377 21.1411C13.3396 20.809 12.8415 20.726 12.2603 20.809C8.60751 21.3071 8.44147 25.0429 8.44147 26.2052C8.44147 29.4429 8.35845 31.7675 8.35845 32.1825C8.35845 32.8467 8.1094 33.0127 7.94336 33.0957C8.19242 33.2618 10.1018 32.6807 10.5169 32.0995C10.5169 32.0995 10.6 32.0165 10.683 32.0165C11.8452 31.7674 11.8452 30.5222 11.8452 30.1901C12.7584 30.1901 13.1735 29.1109 13.2565 28.8618C13.3396 28.6127 13.4226 28.3637 13.4226 28.1146C13.4226 28.6127 14.1698 29.0278 14.9999 28.2807C14.9999 29.1108 15.9962 28.9448 16.4943 28.4467C16.5773 28.6127 16.8264 29.0278 16.8264 29.0278C16.2452 29.1109 15.9962 29.2769 15.7471 29.5259C15.083 30.1071 15.083 31.0203 15.083 31.4354C15.083 31.4354 14.2528 32.2656 13.9207 32.5976C13.8377 32.6807 13.6716 32.7637 13.5886 32.8467C12.6754 31.8505 12.4264 32.2656 12.4264 32.2656C11.7622 32.0165 11.4301 32.4316 11.5132 32.6807C11.6792 32.5146 11.9283 32.5976 12.0943 32.6807C11.1811 32.8467 11.4301 33.5108 11.6792 33.5939C11.6792 33.4278 11.7622 33.1788 12.0113 33.1788C12.0113 33.4278 12.1773 33.5108 12.3433 33.5108C12.7584 33.5108 13.5056 33.5108 13.7547 33.7599C13.9207 33.8429 13.8377 34.258 13.9207 34.341C14.0037 34.424 14.1698 34.424 14.2528 34.424C14.2528 34.5901 14.2528 34.6731 14.0867 34.9222C14.7509 35.0052 15.166 34.424 14.9169 34.092C14.7509 33.9259 14.3358 33.5108 14.3358 33.3448C14.3358 33.1788 14.5018 32.9297 14.6679 32.7637C14.9999 32.5146 15.332 32.2656 15.6641 32.0165C15.7471 31.9335 15.8301 31.8505 15.9962 31.8505C16.0792 31.7674 16.2452 31.7674 16.3282 31.8505C16.5773 31.9335 16.5773 31.9335 16.6603 31.8505C16.9094 31.6844 17.3245 31.3524 18.2377 31.2693C18.1546 31.2693 18.1546 31.3524 18.0716 31.4354C17.9886 31.5184 17.9886 31.6014 17.9056 31.6844C17.8226 31.7674 17.8226 31.9335 17.7396 32.0995C17.1584 33.5108 16.5773 34.8391 15.9962 36.2505C15.8301 36.7486 15.9962 37.0806 16.4113 37.3297C16.7433 37.4957 17.1584 37.4127 17.4075 37.0806C17.3245 37.3297 17.3245 37.4957 17.4075 37.6618C17.4905 37.8278 17.6565 37.9938 17.8226 38.0769C17.9886 38.1599 18.2377 38.1599 18.4037 38.1599C18.6528 38.0769 18.7358 37.9938 18.8188 37.7448C18.9018 38.1599 19.1509 38.492 19.649 38.492Z" fill="#545C89"/>
<path d="M43.558 22.9639C44.3051 22.9639 45.9655 22.8809 46.8787 22.7979C46.8787 22.9639 46.8787 23.2129 46.8787 23.296C46.8787 23.379 46.8787 23.628 46.8787 23.7941C46.0485 23.7111 44.7202 23.628 44.3052 23.628C43.9731 23.628 42.8938 23.628 42.2297 23.7111V27.1978H42.9768C44.4712 27.1978 47.4599 27.4469 47.4599 30.0205C47.4599 32.0959 45.7165 33.0091 43.475 33.0091C43.2259 33.0091 42.3127 33.0091 41.6485 33.0091C41.3995 33.0091 41.0674 33.0091 40.8184 33.0091C40.9014 31.4318 40.9014 29.3563 40.9014 27.6129C40.9014 26.0356 40.9014 23.628 40.8184 22.8809C41.7316 22.8809 43.2259 22.9639 43.558 22.9639ZM42.2297 32.179C42.5618 32.179 43.0599 32.179 43.3919 32.179C45.0523 32.179 45.9655 31.4318 45.9655 29.9375C45.9655 28.3601 44.8033 27.862 42.1467 27.862V32.179H42.2297Z" fill="#545C89"/>
<path d="M49.0343 26.6974C49.6154 26.0332 50.6116 25.7012 51.4418 25.7012C52.9361 25.7012 53.9323 26.4483 53.9323 28.1917V31.6785C53.9323 32.4257 54.0984 32.5917 54.3474 32.5917C54.4305 32.5917 54.5965 32.5917 54.6795 32.5087L54.7625 32.8408C54.3474 33.0898 53.9323 33.0898 53.6833 33.0898C53.1852 33.0898 52.9361 32.8408 52.8531 32.5087L52.7701 32.1766C52.0229 32.7578 51.1927 33.0898 50.5286 33.0898C49.2833 33.0898 48.4531 32.4257 48.4531 31.2634C48.4531 30.0181 49.3663 29.437 50.6946 29.188L52.1059 28.9389C52.6041 28.8559 52.8531 28.6898 52.8531 28.3578C52.8531 26.8634 52.189 26.4483 51.1097 26.4483C50.2795 26.4483 49.6984 26.6974 49.2003 27.6106H49.0343V26.6974ZM52.8531 29.354L51.9399 29.52C50.9437 29.6861 49.7814 30.0181 49.7814 31.0974C49.7814 31.9276 50.1965 32.3427 51.1097 32.3427C51.6909 32.3427 52.189 32.1766 52.7701 31.5125V29.354H52.8531Z" fill="#545C89"/>
<path d="M56.755 25.9512C56.921 25.9512 57.1701 25.9512 57.4191 25.9512C57.3361 27.0304 57.2531 28.7738 57.2531 28.8568C57.8342 28.8568 58.6644 28.9398 59.1625 28.9398C59.6606 28.9398 60.4908 28.9398 60.9059 28.8568C60.9059 28.7738 60.9059 27.0304 60.8229 25.9512C61.072 25.9512 61.404 25.9512 61.5701 25.9512C61.7361 25.9512 61.9852 25.9512 62.2342 25.9512C62.1512 27.0304 62.0682 28.7738 62.0682 29.521C62.0682 30.1021 62.0682 32.0115 62.2342 33.0908C61.9852 33.0908 61.8191 33.0908 61.5701 33.0908C61.321 33.0908 61.072 33.0908 60.8229 33.0908C60.9059 32.0115 60.9059 30.1021 60.9059 29.687C60.3248 29.604 59.4116 29.604 59.1625 29.604C58.7474 29.604 57.8342 29.604 57.2531 29.687C57.2531 30.1851 57.2531 32.0115 57.4191 33.0908C57.1701 33.0908 57.004 33.0908 56.755 33.0908C56.5059 33.0908 56.2569 33.0908 56.0078 33.0908C56.0908 32.0115 56.1738 30.1021 56.1738 29.521C56.1738 28.7738 56.1738 27.0304 56.0078 25.9512C56.2569 25.9512 56.589 25.9512 56.755 25.9512Z" fill="#545C89"/>
<path d="M64.8077 25.9551C64.9738 25.9551 65.2228 25.9551 65.4719 25.9551C65.3889 27.0343 65.3889 28.7777 65.3889 29.0268H65.6379C66.136 29.0268 68.4605 26.3702 68.7096 25.9551C68.8756 25.9551 69.2077 25.9551 69.3737 25.9551C69.5398 25.9551 69.8719 25.9551 70.0379 25.9551L66.7172 28.9438C67.1322 29.4419 69.3737 31.9324 70.37 33.0117C69.9549 33.0117 69.7058 33.0117 69.5398 33.0117C69.2907 33.0117 68.8756 33.0117 68.6266 33.0117C68.1285 32.1815 66.5511 30.3551 65.6379 29.3589H65.3889C65.3889 29.857 65.3889 31.9324 65.4719 33.0117C65.3058 33.0117 65.0568 33.0117 64.8077 33.0117C64.5587 33.0117 64.3096 33.0117 64.0605 33.0117C64.1436 31.9324 64.2266 30.023 64.2266 29.4419C64.2266 28.6947 64.2266 26.9513 64.0605 25.8721C64.3096 25.9551 64.5587 25.9551 64.8077 25.9551Z" fill="#545C89"/>
<path d="M76.4357 22.8809C76.9339 22.8809 77.515 22.7979 77.9301 22.7979C80.5037 22.7979 81.4999 23.545 81.4999 25.3714C81.4999 27.6129 79.5905 28.3601 77.2659 28.3601C77.0999 28.3601 76.6018 28.3601 76.3527 28.2771V30.6846C76.3527 31.3488 76.3527 32.262 76.4357 32.9261C76.1867 32.9261 75.9376 32.9261 75.6886 32.9261C75.4395 32.9261 75.1074 32.9261 74.9414 32.9261C75.0244 31.3488 75.0244 29.2733 75.0244 27.5299C75.0244 25.9526 75.0244 23.545 74.9414 22.7979C75.5225 22.7979 76.1037 22.8809 76.4357 22.8809ZM77.0169 27.6129C79.0093 27.6129 80.0886 26.8658 80.0886 25.3714C80.0886 23.9601 79.0093 23.628 77.598 23.628C77.3489 23.628 76.5188 23.628 76.3527 23.628V27.5299C76.6018 27.6129 76.8508 27.6129 77.0169 27.6129Z" fill="#545C89"/>
<path d="M88.8066 29.4399C88.8066 31.5984 87.3953 33.1758 85.2368 33.1758C83.0783 33.1758 81.75 31.5984 81.75 29.606C81.75 27.2814 83.2443 25.7871 85.4028 25.7871C87.4783 25.7871 88.8066 27.2814 88.8066 29.4399ZM83.0783 29.5229C83.0783 31.1003 83.7424 32.5946 85.2368 32.5946C86.6481 32.5946 87.4783 31.1833 87.4783 29.3569C87.4783 27.8626 86.8972 26.2852 85.3198 26.2852C83.8255 26.2852 83.0783 27.8626 83.0783 29.5229Z" fill="#545C89"/>
<path d="M95.6091 27.4494H95.4431C94.945 26.6192 94.2808 26.3702 93.5337 26.3702C91.8733 26.3702 91.1261 27.9475 91.1261 29.5249C91.1261 31.2683 92.1224 32.6796 93.8658 32.6796C94.4469 32.6796 94.945 32.5966 95.7752 31.6834L95.9412 31.8494L95.7752 32.5136C95.111 32.9287 94.3639 33.1777 93.4507 33.1777C91.2922 33.1777 89.8809 31.6834 89.8809 29.5249C89.8809 27.2834 91.4582 25.8721 93.6997 25.8721C94.4469 25.8721 95.1941 26.0381 96.1073 26.4532L95.6091 27.4494Z" fill="#545C89"/>
<path d="M102.753 27.4494H102.587C102.089 26.6192 101.424 26.3702 100.677 26.3702C99.0169 26.3702 98.2697 27.9475 98.2697 29.5249C98.2697 31.2683 99.2659 32.6796 101.009 32.6796C101.59 32.6796 102.089 32.5966 102.919 31.6834L103.002 31.8494L102.836 32.5136C102.172 32.9287 101.424 33.1777 100.511 33.1777C98.3527 33.1777 96.9414 31.6834 96.9414 29.5249C96.9414 27.2834 98.5188 25.8721 100.76 25.8721C101.507 25.8721 102.255 26.0381 103.168 26.4532L102.753 27.4494Z" fill="#545C89"/>
<path d="M104.823 32.9267C104.74 32.9267 104.491 32.9267 104.408 32.9267C104.491 31.8475 104.574 29.938 104.574 29.3569C104.574 28.6097 104.574 26.8664 104.408 25.7871C104.657 25.7871 104.989 25.7871 105.155 25.7871C105.321 25.7871 105.57 25.7871 105.82 25.7871C105.736 26.8664 105.653 28.6097 105.653 29.3569C105.653 29.938 105.653 30.7682 105.653 31.1833C106.401 30.2701 109.14 26.7833 109.804 25.8701C109.97 25.8701 110.053 25.8701 110.22 25.8701C110.303 25.8701 110.635 25.8701 110.718 25.8701C110.635 26.9494 110.552 28.6928 110.552 29.4399C110.552 30.0211 110.552 31.9305 110.718 33.0097C110.469 33.0097 110.303 33.0097 110.053 33.0097C109.804 33.0097 109.555 33.0097 109.306 33.0097C109.389 31.9305 109.472 30.0211 109.472 29.4399C109.472 28.6928 109.472 27.7796 109.472 27.5305C108.559 28.5267 105.986 31.7645 105.238 33.0097C105.072 32.9267 104.906 32.9267 104.823 32.9267Z" fill="#545C89"/>
<path d="M112.712 32.9267C112.629 32.9267 112.38 32.9267 112.297 32.9267C112.38 31.8475 112.38 29.938 112.38 29.3569C112.38 28.6097 112.38 26.8664 112.297 25.7871C112.546 25.7871 112.878 25.7871 113.044 25.7871C113.21 25.7871 113.459 25.7871 113.708 25.7871C113.542 26.9494 113.542 28.6928 113.542 29.4399C113.542 30.0211 113.542 30.8512 113.542 31.2663C114.289 30.3531 117.029 26.8664 117.693 25.9532C117.859 25.9532 117.942 25.9532 118.108 25.9532C118.191 25.9532 118.523 25.9532 118.606 25.9532C118.523 26.9494 118.523 28.6928 118.523 29.4399C118.523 30.0211 118.523 31.9305 118.606 33.0097C118.357 33.0097 118.191 33.0097 117.942 33.0097C117.693 33.0097 117.444 33.0097 117.195 33.0097C117.278 31.9305 117.278 30.0211 117.278 29.4399C117.278 28.6928 117.278 27.7796 117.278 27.5305C116.365 28.5267 113.791 31.7645 113.044 33.0097C112.961 32.9267 112.878 32.9267 112.712 32.9267Z" fill="#545C89"/>
</svg>
