<svg width="126" height="58" viewBox="0 0 126 58" fill="none" xmlns="http://www.w3.org/2000/svg">
<g clip-path="url(#clip0_565_88)">
<path d="M7.56641 28.3747C7.56641 34.8027 12.7797 40.0375 19.1755 40.0375C25.5712 40.0375 30.7845 34.8027 30.7845 28.3747C30.7845 21.9467 25.582 16.7119 19.1755 16.7119C12.769 16.7119 7.56641 21.9467 7.56641 28.3747ZM7.96412 28.3747C7.96412 22.1617 12.9947 17.1096 19.1755 17.1096C25.3562 17.1096 30.3868 22.1617 30.3868 28.3747C30.3868 34.5877 25.367 39.6398 19.1755 39.6398C12.984 39.6398 7.96412 34.5877 7.96412 28.3747ZM11.1889 25.1822C14.1556 23.2259 17.4341 22.0865 23.0022 23.0539C23.3139 22.8712 23.4751 22.7099 23.5611 22.3445C22.1745 21.8393 20.6696 21.6673 18.7133 21.6995C16.9611 21.7533 13.8117 22.3982 12.124 23.3979L12.64 22.7529C13.8224 22.065 16.8859 21.1406 19.1755 21.0868C20.7986 21.0546 21.637 21.1513 23.5611 21.6673C23.3891 21.334 22.9914 21.1728 22.411 20.9041C20.5406 20.0656 17.0579 19.9904 14.2094 21.248C14.5856 20.9901 14.9726 20.7643 15.381 20.5709C16.3269 20.1409 17.8641 19.7217 19.7882 19.7539C21.3253 19.7754 23.1526 20.3129 24.2706 21.4308C24.4318 21.6135 24.55 21.8393 24.6145 22.0757C25.496 22.5272 26.0119 22.9464 26.3021 23.4516C26.4311 23.7204 26.4634 24.0106 26.4204 24.3008C26.7106 24.462 26.9578 24.6878 27.1513 24.9565C27.2803 25.15 27.3663 25.365 27.4093 25.6014C27.4523 25.8809 27.4738 26.1927 27.1836 26.5581C27.4845 26.7086 27.721 27.1278 27.764 27.3106C27.9038 27.977 27.4738 28.6327 26.9041 29.1379C26.2591 29.7076 24.8188 30.3956 23.6471 30.6965C21.3253 31.2877 19.2722 31.535 17.6383 31.8359C18.7348 32.1154 19.8634 32.2552 20.9921 32.2552C24.464 32.2552 27.5275 30.6105 27.5275 30.6105C27.5275 30.6105 27.463 30.8255 27.3878 31.019C25.1842 32.3519 21.68 32.9216 20.1859 32.8571C18.81 32.8034 17.4449 32.5776 16.1335 32.1692C15.7465 32.2659 15.3703 32.3949 15.0048 32.5561C16.9074 33.4268 18.3478 33.6203 19.9817 33.7385C21.637 33.8568 24.3888 33.4591 26.7106 32.6099C26.6031 32.7174 26.5494 32.8894 26.4419 32.9861C25.2487 33.6096 22.7442 34.2438 21.4758 34.2975C20.2074 34.3512 18.681 34.2975 17.3589 34.0503C16.2087 33.8245 15.2735 33.4591 14.2954 33.0291C14.1341 33.1473 14.0266 33.3193 13.9944 33.5236C17.8103 35.5336 21.4005 35.5766 25.4745 34.2975L25.0982 34.663C20.6159 36.4903 17.1116 35.7809 14.3921 34.4587C14.2954 34.4157 14.2094 34.3727 14.1126 34.3297C14.3599 34.7705 16.4344 36.2861 18.7563 36.4796C20.3579 36.6086 22.3035 36.3398 23.4644 35.8776L22.7872 36.2323C21.4973 36.8343 20.0784 37.103 18.6703 36.9955C15.9077 36.8128 14.3491 35.5766 13.6504 34.9317C13.3279 34.6307 13.1775 34.276 13.0807 33.8568C12.4573 33.5236 12.0595 33.1903 11.7371 32.6744C11.5436 32.3734 11.5866 32.0402 11.6296 31.7607C11.6403 31.6747 11.6618 31.5887 11.7048 31.5135C11.4038 31.2985 11.1029 31.062 10.9739 30.8255C10.7052 30.3311 10.8664 29.9011 11.0599 29.5786C10.8986 29.4174 10.7696 29.2239 10.6729 29.0089C10.6084 28.7832 10.5869 28.5575 10.6084 28.321C10.6837 27.9018 10.8771 27.504 11.1674 27.1923C11.7586 26.4936 12.7045 25.9454 14.3384 25.408C15.9292 24.8813 16.5742 24.7953 17.7673 24.5158C19.1647 24.1933 20.8523 24.0858 22.2497 23.5914C18.337 22.9034 14.2739 23.5269 10.9524 25.8164L11.1889 25.1822ZM24.507 22.7529C24.464 22.9464 24.2491 23.1721 24.1093 23.3226C24.5393 23.4409 24.9585 23.5914 25.3777 23.7526C25.3347 23.3764 24.894 23.0002 24.507 22.7529ZM12.4573 30.6105C12.2423 30.4923 12.0273 30.3633 11.8231 30.2236C11.7048 30.4708 11.9198 30.7503 12.1563 30.8793C12.2423 30.7825 12.3605 30.6965 12.4573 30.6105ZM25.6464 25.4725C25.9152 25.5907 26.1839 25.7304 26.4311 25.8917C26.6139 25.5477 26.4956 25.3327 26.1302 25.021C25.9904 25.1822 25.8292 25.3327 25.6464 25.4725ZM24.808 25.9884C24.2383 26.2571 23.4214 26.5259 22.239 26.8269C21.2823 27.0633 18.9282 27.4073 16.4129 27.9555C15.6068 28.1275 13.4569 28.6435 12.3928 29.5464C12.6937 29.7829 12.8765 29.8474 13.199 30.0301C13.6397 29.7506 14.2309 29.4819 15.123 29.2454C16.6709 28.8369 17.8211 28.6542 19.2185 28.4285C20.6159 28.2027 23.1956 27.6653 24.636 27.1493C25.0767 26.9988 25.4852 26.7839 25.8614 26.5044C25.7754 26.3969 24.851 25.9454 24.808 25.9884ZM13.9191 32.0402C14.1664 31.9004 14.4136 31.7715 14.6823 31.6747C14.2739 31.5027 13.8654 31.32 13.4462 31.1265C13.2742 31.234 13.1022 31.363 12.9517 31.5027C13.2742 31.6855 13.5967 31.8682 13.9191 32.0402ZM12.597 32.1692C12.5863 32.4272 12.7475 32.6636 13.0915 32.9431C13.1345 32.8034 13.2097 32.6744 13.2957 32.5669C13.0592 32.4379 12.8227 32.3089 12.597 32.1692ZM14.5426 27.3643C17.3804 26.5259 20.3471 26.2679 23.3569 25.4725C22.1852 25.15 21.5403 25.021 20.2934 25.1607C18.4338 25.3865 16.5957 25.7519 14.8006 26.2786C14.1341 26.4829 10.6299 27.4825 11.6403 28.8799C11.6403 28.8907 12.2423 28.0415 14.5426 27.3643ZM25.1735 24.4513C24.636 24.2148 24.0878 24.0213 23.5181 23.8708C23.2064 24.1181 22.8517 24.3223 22.4647 24.462C23.2279 24.6018 23.7976 24.806 24.4425 24.9995C24.5715 25.064 25.0875 24.5695 25.1735 24.4513ZM26.5709 27.1923C26.4849 27.2676 26.3881 27.3428 26.2806 27.4181C25.6357 27.9125 24.6253 28.3102 23.2171 28.6865C20.3041 29.4711 18.1865 29.5894 15.7787 30.1806C15.295 30.2988 14.8221 30.4493 14.3706 30.6428C14.8221 30.8685 15.3058 31.0835 15.8002 31.277C16.7354 30.9975 17.6921 30.7718 18.6595 30.6213C19.197 30.5246 20.8631 30.2343 22.0562 29.9763C24.2383 29.5141 27.4093 28.5037 26.5709 27.1923Z" fill="#545C89"/>
<path d="M41.9141 33.4696H44.3111L44.6014 31.7067H46.246L46.5362 33.4696H48.9333L46.9124 23.2579H43.9457L41.9141 33.4696ZM45.4183 26.3429L45.859 29.4602H44.9776L45.4183 26.3429ZM51.1798 27.3318C51.5561 27.3318 52.2655 27.0846 52.2655 26.3322C52.2655 25.44 51.4593 25.3862 51.2228 25.3862C50.7714 25.3862 50.3307 25.483 49.9222 25.6765L49.9007 23.4729C50.5671 23.2902 51.2658 23.2042 51.9538 23.2042C53.8779 23.2042 54.7486 24.5586 54.7486 25.8807C54.7486 27.1706 53.9961 27.9553 53.2867 28.2563V28.353C53.9746 28.568 54.899 29.2344 54.899 30.8038C54.899 32.7279 53.5554 33.7921 51.8463 33.7921C50.9219 33.7921 50.3307 33.6523 49.6105 33.2654L49.6535 31.1478C50.1479 31.3735 50.6746 31.4702 51.2121 31.4595C51.9645 31.4595 52.2763 30.9005 52.2763 30.4921C52.2763 29.9224 51.9108 29.5354 51.1046 29.5354H50.1372V27.3318H51.1798ZM56.0277 23.2579H62.4664V33.4696H60.1124V25.7195H58.3925V33.4696H56.0384V23.2579H56.0277ZM63.7993 33.4696H66.1641V30.1051H66.9596C69.3029 30.1051 70.0123 27.9983 70.0123 26.6546C70.0123 25.311 69.1846 23.2579 66.9488 23.2579H63.7993V33.4696ZM66.1641 25.5045H66.7231C67.2605 25.5045 67.5938 25.827 67.5938 26.6761C67.5938 27.7833 67.0241 27.8585 66.7231 27.8585H66.1534L66.1641 25.5045ZM74.3872 33.5986C77.182 33.5986 78.1279 30.9758 78.1279 28.353C78.1279 25.7302 77.182 23.1074 74.3872 23.1074C71.5924 23.1074 70.6465 25.7302 70.6465 28.353C70.6465 30.9758 71.5924 33.5986 74.3872 33.5986ZM74.3872 31.1263C73.5595 31.1263 73.1296 30.1481 73.1296 28.353C73.1296 26.5579 73.5595 25.5797 74.3872 25.5797C75.2149 25.5797 75.6449 26.5579 75.6449 28.353C75.6449 30.1481 75.2149 31.1263 74.3872 31.1263ZM37.3457 23.2687H42.1828V25.8162H39.7535V33.4803H37.3457V23.2687ZM79.2458 23.2687H81.2452L83.0188 25.6765L84.8031 23.2687H86.8025V33.4803H84.4484V27.2458L83.0295 29.0302L81.6106 27.2458V33.4803H79.2566L79.2458 23.2687Z" fill="#545C89"/>
<path d="M88.3926 33.4703H91.2088C91.8215 33.4703 94.3691 33.2124 94.3798 30.1274C94.3798 27.5153 92.402 27.0639 91.1229 27.0639H90.7036V25.7095H93.8209V23.2587H88.3926V33.4703ZM90.7036 31.428V29.1062H91.0476C91.3271 29.1062 92.0688 29.1169 92.0688 30.1704C92.0688 31.2453 91.3271 31.428 91.0476 31.428H90.7036ZM102.861 23.2587H105.172V26.9349H106.817V23.2587H109.128V33.4703H106.817V29.3857H105.172V33.4703H102.861V23.2587ZM110.676 23.2587H112.987V26.9349H113.492L114.814 23.2587H117.318L115.513 28.1065L117.566 33.4703H114.857L113.535 29.3642H112.987V33.4703H110.686L110.676 23.2587ZM94.8313 33.4918H97.2284L97.5186 31.729H99.1632L99.4534 33.4918H101.85L99.8297 23.2802H96.8521L94.8313 33.4918ZM98.3463 26.3652L98.7977 29.4824H97.9056L98.3463 26.3652Z" fill="#545C89"/>
</g>
<defs>
<clipPath id="clip0_565_88">
<rect width="109.974" height="25.3342" fill="white" transform="translate(7.5918 15.832)"/>
</clipPath>
</defs>
</svg>
