<svg width="125" height="58" viewBox="0 0 125 58" fill="none" xmlns="http://www.w3.org/2000/svg">
<g clip-path="url(#clip0_565_119)">
<mask id="mask0_565_119" style="mask-type:luminance" maskUnits="userSpaceOnUse" x="14" y="18" width="98" height="23">
<path d="M111.709 18.5273H14.291V40.2376H111.709V18.5273Z" fill="white"/>
</mask>
<g mask="url(#mask0_565_119)">
<path d="M24.1966 25.6288C23.7902 25.6288 23.459 25.2976 23.459 24.8912V19.3245C23.459 18.9209 23.7902 18.5897 24.1966 18.5897H27.4169C27.8233 18.5897 28.1545 18.9209 28.1545 19.3273V24.894C28.1545 25.3004 27.8233 25.6316 27.4169 25.6316H24.1966V25.6288Z" fill="#545C89"/>
<path d="M21.222 30.127C21.0967 30.5139 20.6792 30.7254 20.2923 30.6002L15.0012 28.8801C14.6171 28.7548 14.4027 28.3373 14.528 27.9504L15.5216 24.8887C15.6469 24.5019 16.0644 24.2903 16.4485 24.4156L21.7425 26.1357C22.1265 26.2609 22.3409 26.6784 22.2156 27.0653L21.222 30.127Z" fill="#545C89"/>
<path d="M30.3843 30.1273C30.5096 30.5142 30.9271 30.7257 31.314 30.6004L36.6079 28.8803C36.9921 28.7551 37.2064 28.3376 37.0811 27.9507L36.0875 24.889C35.9622 24.5021 35.5447 24.2906 35.1606 24.4158L29.8666 26.1359C29.4798 26.2612 29.2682 26.6787 29.3935 27.0656L30.3843 30.1273Z" fill="#545C89"/>
<path d="M24.5825 34.3415C24.9109 34.5809 24.9833 35.0429 24.7467 35.3713L21.4734 39.8748C21.2341 40.2033 20.772 40.2756 20.4436 40.0363L17.8384 38.1436C17.5099 37.9042 17.4376 37.4422 17.6742 37.1137L20.9502 32.613C21.1868 32.2846 21.6516 32.2122 21.98 32.4516L24.5825 34.3415Z" fill="#545C89"/>
<path d="M27.0259 34.3415C26.6974 34.5809 26.6251 35.0429 26.8617 35.3713L30.1349 39.8748C30.3715 40.2033 30.8363 40.2756 31.1647 40.0363L33.77 38.1436C34.0984 37.9042 34.1708 37.4422 33.9342 37.1137L30.6582 32.613C30.4188 32.2846 29.9568 32.2122 29.6283 32.4516L27.0259 34.3415Z" fill="#545C89"/>
<path d="M107.868 22.0126H111.147C111.578 22.0126 111.815 22.5164 111.537 22.8476L106.32 29.0406C106.162 29.2298 106.162 29.5082 106.32 29.6947L111.581 35.9266C111.859 36.2578 111.626 36.7616 111.191 36.7616H107.907C107.754 36.7616 107.609 36.692 107.515 36.5751L101.892 29.6919C101.739 29.5054 101.739 29.2354 101.892 29.0489L107.473 22.1963C107.57 22.0822 107.715 22.0126 107.868 22.0126Z" fill="#545C89"/>
<path d="M97.4101 36.7633H100.035C100.313 36.7633 100.539 36.5378 100.539 36.2595V22.5125C100.539 22.2341 100.313 22.0087 100.035 22.0087H97.4101C97.1317 22.0087 96.9063 22.2341 96.9063 22.5125V36.2595C96.9035 36.535 97.1317 36.7633 97.4101 36.7633Z" fill="#545C89"/>
<path d="M56.0341 36.7631H53.3788C53.1005 36.7631 52.875 36.5377 52.875 36.2594V31.7336C52.875 31.4553 52.6496 31.2298 52.3712 31.2298H47.3695C47.0912 31.2298 46.863 31.4553 46.863 31.7336V36.2566C46.863 36.5349 46.6375 36.7604 46.3592 36.7604H43.7011C43.4227 36.7604 43.1973 36.5349 43.1973 36.2566V22.5123C43.1973 22.234 43.4227 22.0085 43.7011 22.0085H46.3592C46.6375 22.0085 46.863 22.234 46.863 22.5123V27.4278C46.863 27.7061 47.0884 27.9315 47.3695 27.9315H52.3712C52.6496 27.9315 52.875 27.7061 52.875 27.4278V22.5123C52.875 22.234 53.1005 22.0085 53.3788 22.0085H56.0341C56.3125 22.0085 56.5379 22.234 56.5379 22.5123V36.2566C56.5379 36.5349 56.3125 36.7631 56.0341 36.7631Z" fill="#545C89"/>
<path d="M60.7676 29.3849C60.7676 24.798 64.2412 21.7001 68.8087 21.7001C72.1042 21.7001 73.9885 23.4118 75.0323 25.2099C75.1798 25.4632 75.0713 25.7888 74.8069 25.9141L72.4354 27.0358C72.2016 27.1471 71.9205 27.0636 71.7897 26.8409C71.2024 25.8501 70.0668 25.0846 68.8087 25.0846C66.3816 25.0846 64.6671 26.9551 64.6671 29.3849C64.6671 31.812 66.3816 33.6824 68.8087 33.6824C70.0668 33.6824 71.2052 32.9198 71.7897 31.9289C71.9205 31.7063 72.2016 31.6228 72.4354 31.7341L74.8069 32.8558C75.0713 32.981 75.1798 33.3067 75.0323 33.56C73.9997 35.3274 72.0986 37.0698 68.8087 37.0698C64.2412 37.0698 60.7676 33.9524 60.7676 29.3849Z" fill="#545C89"/>
<path d="M92.083 36.7633H89.4248C89.1465 36.7633 88.9211 36.5378 88.9211 36.2595V25.8107C88.9211 25.5324 88.6956 25.307 88.4173 25.307H83.4156C83.1372 25.307 82.9118 25.5324 82.9118 25.8107V36.2567C82.9118 36.535 82.6863 36.7605 82.408 36.7605H79.7499C79.4715 36.7605 79.2461 36.535 79.2461 36.2567V22.5125C79.2461 22.2341 79.4715 22.0087 79.7499 22.0087H82.9118H88.9238H92.0857C92.3641 22.0087 92.5895 22.2341 92.5895 22.5125V36.2567C92.5895 36.535 92.3641 36.7633 92.083 36.7633Z" fill="#545C89"/>
</g>
</g>
<defs>
<clipPath id="clip0_565_119">
<rect width="97.4177" height="21.7102" fill="white" transform="translate(14.291 18.5293)"/>
</clipPath>
</defs>
</svg>
