<svg width="126" height="53" viewBox="0 0 126 53" fill="none" xmlns="http://www.w3.org/2000/svg">
<g clip-path="url(#clip0_565_141)">
<g opacity="0.42">
<path d="M57.3027 13.5364V18.088C57.3027 18.2914 57.4553 18.444 57.6587 18.444C59.9727 18.444 61.9052 17.91 63.5072 17.1472V9.3916C63.1766 10.307 61.9306 12.5447 57.6079 13.1804C57.4299 13.2312 57.3027 13.3584 57.3027 13.5364Z" fill="#545C89"/>
</g>
<g opacity="0.7">
<path d="M63.4824 17.1476V24.5726C66.7626 24.5726 69.4072 27.2171 69.4072 30.4974V11.5535C69.4072 11.5535 67.6272 15.1388 63.4824 17.1476Z" fill="#545C89"/>
</g>
<g opacity="0.91">
<path d="M63.5333 9.23963C63.5079 9.29049 63.5078 9.34134 63.4824 9.3922V17.1478C67.6272 15.1644 69.4072 11.5536 69.4072 11.5536V9.34134C69.4072 9.13792 69.2546 8.98535 69.0512 8.98535H63.8893C63.7367 8.98535 63.5841 9.08706 63.5333 9.23963Z" fill="#545C89"/>
</g>
<path d="M63.4824 24.5479V32.99C63.4824 33.1934 63.635 33.346 63.8384 33.346H69.0512C69.2546 33.346 69.4072 33.1934 69.4072 32.99V30.4726C69.4072 27.1924 66.7626 24.5479 63.4824 24.5479Z" fill="white"/>
<g opacity="0.6">
<path d="M63.4824 24.5479V32.99C63.4824 33.1934 63.635 33.346 63.8384 33.346H69.0512C69.2546 33.346 69.4072 33.1934 69.4072 32.99V30.4726C69.4072 27.1924 66.7626 24.5479 63.4824 24.5479Z" fill="#545C89"/>
</g>
<path d="M80.6958 13.6387C80.6958 14.8846 80.0855 16.1052 78.9921 16.8426C78.2293 17.3766 77.3139 17.58 76.3984 17.5037C77.1104 18.5463 77.5427 19.7923 77.5427 21.1654C77.5427 24.6236 74.8219 27.4461 71.4145 27.6241C71.2366 27.6241 71.084 27.7767 71.084 27.9801V33.0148C71.084 33.2183 71.2366 33.3708 71.44 33.3708C78.0004 33.1928 83.264 27.8021 83.264 21.1908C83.2894 18.3174 82.3232 15.7238 80.6958 13.6387Z" fill="#545C89"/>
<g opacity="0.42">
<path d="M71.1094 9.31674V14.3515C71.1094 14.5295 71.2365 14.6821 71.4145 14.7075C72.2028 14.7838 74.3896 15.216 76.3221 17.3774C76.373 17.4537 76.4747 17.4791 76.5764 17.5046C77.4155 17.5554 78.2801 17.3266 79.0175 16.8434C80.06 16.1315 80.6703 14.9872 80.7212 13.7921C80.7212 13.7158 80.6957 13.6141 80.6449 13.5632C78.4835 10.8678 75.2033 9.08788 71.4908 8.98617C71.2619 8.96074 71.1094 9.11331 71.1094 9.31674Z" fill="#545C89"/>
</g>
<path d="M59.3346 27.1172C57.097 26.2018 55.4696 24.0404 55.3424 21.4722C55.3424 21.2942 55.1899 21.1416 54.9864 21.1416H49.9517C49.7483 21.1416 49.5957 21.2942 49.5957 21.4976C49.7483 26.4306 52.8251 30.6263 57.1224 32.4062V31.084C57.1224 29.4057 58.0124 27.9309 59.3346 27.1172Z" fill="#545C89"/>
<g opacity="0.42">
<path d="M61.4439 27.6003C60.7064 27.5495 59.9945 27.3969 59.3333 27.1172C58.0111 27.9309 57.1211 29.4057 57.1211 31.084V32.4062C58.4434 32.9656 59.9182 33.2708 61.4184 33.3216C61.6219 33.3216 61.7744 33.1691 61.7744 32.9656V27.9309C61.7744 27.7529 61.6473 27.6003 61.4439 27.6003Z" fill="#545C89"/>
</g>
<g opacity="0.7">
<path d="M50.8928 19.3356H55.1902C55.3936 19.3356 55.5462 19.183 55.5462 18.9796V14.4534C55.5462 14.1228 55.1648 13.9703 54.9359 14.1991L50.6386 18.7253C50.4097 18.9542 50.5623 19.3356 50.8928 19.3356Z" fill="#545C89"/>
</g>
<path d="M49.2897 40.973H48.832L50.1543 37.3877H50.612L51.9343 40.973H51.4765L50.4086 37.9471H50.3577L49.2897 40.973ZM49.4677 39.5745H51.2986V39.9559H49.4677V39.5745Z" fill="#1D1D1B"/>
<path d="M53.7662 41.025C53.4611 41.025 53.1814 40.9487 52.9525 40.7961C52.7237 40.6436 52.5203 40.4401 52.3931 40.1604C52.266 39.8807 52.1897 39.5502 52.1897 39.1687C52.1897 38.7873 52.266 38.4568 52.3931 38.1771C52.5203 37.8973 52.7237 37.6939 52.9525 37.5414C53.1814 37.3888 53.4611 37.3125 53.7662 37.3125C53.9442 37.3125 54.1222 37.3379 54.2748 37.3888C54.4274 37.4396 54.5799 37.5159 54.7071 37.6176C54.8342 37.7193 54.9359 37.8465 55.0376 37.9991C55.1139 38.1516 55.1902 38.3042 55.2156 38.4822H54.7834C54.7579 38.355 54.7071 38.2533 54.6562 38.1516C54.6054 38.0499 54.5036 37.9736 54.4274 37.9228C54.3257 37.8465 54.2239 37.8211 54.1222 37.7702C54.0205 37.7448 53.8934 37.7193 53.7917 37.7193C53.5628 37.7193 53.3848 37.7702 53.2068 37.8973C53.0288 38.0245 52.9017 38.1771 52.7745 38.3805C52.6474 38.5839 52.622 38.8636 52.622 39.1687C52.622 39.4739 52.6728 39.7536 52.7745 39.957C52.8763 40.1604 53.0288 40.3384 53.2068 40.4401C53.3848 40.5419 53.5882 40.5927 53.7917 40.5927C53.9188 40.5927 54.0205 40.5673 54.1222 40.5419C54.2239 40.5164 54.3257 40.4656 54.4274 40.3893C54.5291 40.313 54.6054 40.2367 54.6562 40.1604C54.7071 40.0587 54.7579 39.957 54.7834 39.8299H55.1902C55.1648 40.0079 55.0885 40.1859 55.0122 40.313C54.9359 40.4656 54.8088 40.5927 54.6816 40.669C54.5545 40.7707 54.4019 40.847 54.2494 40.8979C54.0968 40.9996 53.9442 41.025 53.7662 41.025Z" fill="#1D1D1B"/>
<path d="M57.327 41.025C57.0219 41.025 56.7422 40.9487 56.5133 40.7961C56.2845 40.6436 56.0811 40.4401 55.9539 40.1604C55.8268 39.8807 55.7505 39.5502 55.7505 39.1687C55.7505 38.7873 55.8268 38.4568 55.9539 38.1771C56.0811 37.8973 56.2845 37.6939 56.5133 37.5414C56.7422 37.3888 57.0219 37.3125 57.327 37.3125C57.505 37.3125 57.683 37.3379 57.8356 37.3888C57.9882 37.4396 58.1407 37.5159 58.2679 37.6176C58.395 37.7193 58.4967 37.8465 58.5984 37.9991C58.6747 38.1516 58.751 38.3042 58.7764 38.4822H58.3441C58.3187 38.355 58.2679 38.2533 58.217 38.1516C58.1662 38.0499 58.0644 37.9736 57.9882 37.9228C57.8864 37.8465 57.7847 37.8211 57.683 37.7702C57.5813 37.7448 57.4542 37.7193 57.3525 37.7193C57.1236 37.7193 56.9456 37.7702 56.7676 37.8973C56.5896 38.0245 56.4625 38.1771 56.3353 38.3805C56.2082 38.5839 56.1828 38.8636 56.1828 39.1687C56.1828 39.4739 56.2336 39.7536 56.3353 39.957C56.437 40.1604 56.5896 40.3384 56.7676 40.4401C56.9456 40.5419 57.149 40.5927 57.3525 40.5927C57.4796 40.5927 57.5813 40.5673 57.683 40.5419C57.7847 40.5164 57.8864 40.4656 57.9882 40.3893C58.0899 40.313 58.1662 40.2367 58.217 40.1604C58.2679 40.0587 58.3187 39.957 58.3441 39.8299H58.751C58.7256 40.0079 58.6493 40.1859 58.573 40.313C58.4967 40.4656 58.3696 40.5927 58.2424 40.669C58.1153 40.7707 57.9627 40.847 57.8102 40.8979C57.6576 40.9996 57.505 41.025 57.327 41.025Z" fill="#1D1D1B"/>
<path d="M60.8854 41.025C60.5802 41.025 60.3005 40.9487 60.0717 40.7961C59.8428 40.6436 59.6394 40.4401 59.5123 40.1604C59.3851 39.8807 59.3088 39.5502 59.3088 39.1687C59.3088 38.7873 59.3851 38.4568 59.5123 38.1771C59.6394 37.8973 59.8428 37.6939 60.0717 37.5414C60.3005 37.3888 60.5802 37.3125 60.8854 37.3125C61.1905 37.3125 61.4702 37.3888 61.6991 37.5414C61.9279 37.6939 62.1313 37.8973 62.2585 38.1771C62.3856 38.4568 62.4619 38.7873 62.4619 39.1687C62.4619 39.5502 62.3856 39.8807 62.2585 40.1604C62.1313 40.4401 61.9279 40.6436 61.6991 40.7961C61.4448 40.9487 61.1905 41.025 60.8854 41.025ZM60.8854 40.6181C61.1142 40.6181 61.2922 40.5673 61.4702 40.4656C61.6482 40.3639 61.7754 40.1859 61.9025 39.9824C62.0296 39.779 62.0551 39.4993 62.0551 39.1942C62.0551 38.889 62.0042 38.6093 61.9025 38.4059C61.8008 38.2025 61.6482 38.0245 61.4702 37.9228C61.2922 37.8211 61.0888 37.7448 60.8854 37.7448C60.6565 37.7448 60.4785 37.7956 60.3005 37.9228C60.1225 38.0245 59.9954 38.2025 59.8683 38.4059C59.7665 38.6093 59.7157 38.889 59.7157 39.1942C59.7157 39.4993 59.7665 39.779 59.8683 39.9824C59.97 40.1859 60.1225 40.3639 60.3005 40.4656C60.4531 40.5673 60.6565 40.6181 60.8854 40.6181Z" fill="#1D1D1B"/>
<path d="M63.1487 40.974V37.3887H63.5555V40.5926H65.4118V37.3887H65.8186V40.974H63.1487ZM66.2 40.5672L66.1492 41.8386H65.6915V40.9995H65.4372V40.5926H66.2V40.5672Z" fill="#1D1D1B"/>
<path d="M66.7856 37.3889H67.2179V40.2114H67.2434L69.2013 37.3889H69.6336V40.9743H69.2013V38.1518H69.1759L67.2179 40.9743H66.7856V37.3889Z" fill="#1D1D1B"/>
<path d="M70.6259 40.974H70.1682L71.4905 37.3887H71.9482L73.2704 40.974H72.8127L71.7448 37.9481H71.7193L70.6259 40.974ZM70.8039 39.5755H72.6347V39.9569H70.8039V39.5755Z" fill="#1D1D1B"/>
<path d="M73.7776 40.974V37.3887H74.1844V40.5926H76.0407V37.3887H76.4475V40.974H73.7776ZM76.829 40.5672L76.7781 41.8386H76.3204V40.9995H76.0661V40.5926H76.829V40.5672Z" fill="#1D1D1B"/>
<path d="M77.4395 37.3889H77.8718V40.2114H77.8972L79.8552 37.3889H80.2874V40.9743H79.8552V38.1518H79.8043L77.8463 40.9743H77.4141V37.3889H77.4395Z" fill="#1D1D1B"/>
<path d="M81.8629 39.372H82.346L81.4815 40.9994H80.9729L81.8629 39.372ZM83.5411 40.974H83.1089V37.7701H82.346C82.1426 37.7701 81.99 37.7955 81.8883 37.8718C81.7612 37.9226 81.6849 38.0243 81.634 38.126C81.5832 38.2278 81.5577 38.3549 81.5577 38.5075C81.5577 38.66 81.5832 38.7617 81.634 38.8889C81.6849 38.9906 81.7612 39.0669 81.8883 39.1177C82.0154 39.1686 82.168 39.194 82.346 39.194H83.3123V39.5754H82.3206C82.0409 39.5754 81.812 39.5246 81.634 39.4483C81.456 39.3466 81.3289 39.2195 81.2272 39.0669C81.1509 38.9143 81.1 38.7109 81.1 38.5075C81.1 38.304 81.1509 38.1006 81.2272 37.9481C81.3035 37.7701 81.456 37.6429 81.634 37.5666C81.812 37.4649 82.0409 37.4141 82.3206 37.4141H83.5411V40.974Z" fill="#1D1D1B"/>
<path d="M57.8575 43.1101H58.4169C58.6966 43.1101 58.9255 43.1609 59.1289 43.2881C59.3323 43.4152 59.5103 43.5678 59.612 43.7966C59.7392 44.0001 59.79 44.2543 59.79 44.5341C59.79 44.8138 59.7392 45.068 59.612 45.2715C59.4849 45.4749 59.3323 45.6529 59.1289 45.78C58.9255 45.9072 58.6966 45.958 58.4169 45.958H57.8575C57.5778 45.958 57.3489 45.9072 57.1455 45.78C56.9421 45.6529 56.7641 45.5003 56.6624 45.2715C56.5352 45.068 56.4844 44.8138 56.4844 44.5341C56.4844 44.2543 56.5352 44.0001 56.6624 43.7966C56.7895 43.5932 56.9421 43.4152 57.1455 43.2881C57.3489 43.1609 57.5778 43.1101 57.8575 43.1101ZM57.8575 43.4915C57.6541 43.4915 57.4761 43.5424 57.3489 43.6186C57.1964 43.6949 57.0946 43.8221 57.0438 43.9746C56.9929 44.1272 56.9421 44.3052 56.9421 44.5341C56.9421 44.7375 56.9675 44.9155 57.0438 45.068C57.1201 45.2206 57.2218 45.3478 57.3489 45.424C57.5015 45.5003 57.6541 45.5512 57.8575 45.5512H58.4169C58.6203 45.5512 58.7983 45.5003 58.9255 45.424C59.0526 45.3478 59.1797 45.2206 59.2306 45.068C59.3069 44.9155 59.3323 44.7375 59.3323 44.5086C59.3323 44.3052 59.3069 44.1272 59.2306 43.9746C59.1543 43.8221 59.0526 43.6949 58.9255 43.6186C58.7983 43.5424 58.6203 43.4915 58.4169 43.4915H57.8575ZM58.366 42.627V46.4412H57.9338V42.627H58.366Z" fill="#1D1D1B"/>
<path d="M60.502 42.6777H60.9343V45.5002H60.9597L62.9177 42.6777H63.3499V46.2631H62.9177V43.4406H62.8668L60.9088 46.2631H60.4766V42.6777H60.502Z" fill="#1D1D1B"/>
<path d="M64.1895 46.2631V42.6777H64.6217V44.2797H66.5288V42.6777H66.9611V46.2631H66.5288V44.6611H64.6217V46.2631H64.1895Z" fill="#1D1D1B"/>
<path d="M67.5957 43.0589V42.6775H70.2911V43.0589H69.1722V46.2628H68.74V43.0589H67.5957Z" fill="#1D1D1B"/>
<path d="M70.9258 46.2631V42.6777H73.0872V43.0592H71.3581V44.2543H72.9855V44.6357H71.3581V45.8817H73.1126V46.2631H70.9258Z" fill="#1D1D1B"/>
<path d="M74.0535 42.6777L74.9689 44.178H74.9943L75.9097 42.6777H76.4183L75.2995 44.4831L76.4183 46.2885H75.9097L74.9943 44.8137H74.9689L74.0535 46.2885H73.5449L74.7146 44.4831L73.5449 42.6777H74.0535Z" fill="#1D1D1B"/>
</g>
<defs>
<clipPath id="clip0_565_141">
<rect width="35.2433" height="38.8795" fill="white" transform="translate(48.5781 8.24707)"/>
</clipPath>
</defs>
</svg>
