<svg width="124" height="133" viewBox="0 0 124 133" fill="none" xmlns="http://www.w3.org/2000/svg">
<path d="M33.6467 0.855049C34.696 0.725415 35.858 0.723244 37.2074 0.720721L86.7307 0.628158C88.0801 0.625636 89.2421 0.623464 90.2919 0.749174C94.0183 1.20655 97.486 2.89626 100.146 5.55073C102.805 8.2052 104.505 11.6727 104.975 15.404L104.998 15.6143L111.041 15.603C112.63 15.585 116.116 15.5484 118.998 17.4732C122.729 19.952 123.861 24.2232 123.87 28.7217C123.908 49.1943 113.041 62.8831 99.1485 70.5018C91.4158 84.6653 77.1005 94.5228 62.1445 94.5508C50.757 94.5721 39.9427 88.4189 32.1526 79.8945C29.5642 77.0761 27.2909 73.9828 25.3733 70.6697C11.4603 63.1405 0.212152 49.5081 0.173733 28.9529C0.165311 24.4469 1.28184 20.179 4.99557 17.6862C7.8782 15.7507 11.3642 15.7743 12.9536 15.7863L18.9959 15.775L19.018 15.5647C19.4746 11.8316 21.1612 8.3578 23.811 5.69341C26.4607 3.02902 29.922 1.32635 33.6467 0.855049ZM112.486 26.903C111.907 26.8691 111.327 26.8577 110.747 26.8687L105.102 26.8793L104.908 51.588C109.68 45.8113 112.642 38.2806 112.625 28.7428C112.623 27.8566 112.554 27.2709 112.486 26.903ZM11.4188 28.9319C11.4362 38.2219 14.3587 45.5989 19.0324 51.3129C18.5271 45.7113 18.6514 40.0184 18.7758 34.3555C18.8411 31.9021 18.8791 29.4637 18.8895 27.0404L13.2895 27.0509C12.4723 27.0524 11.9551 27.0534 11.5578 27.0917C11.4536 27.6993 11.407 28.3155 11.4188 28.9319ZM63.7397 25.4921C63.595 25.1537 63.3543 24.8654 63.0473 24.6629C62.7404 24.4605 62.3808 24.353 62.0133 24.3537C61.6458 24.3543 61.2867 24.4632 60.9805 24.6668C60.6743 24.8704 60.4346 25.1596 60.2912 25.4986L56.5224 34.6079C56.3909 34.9258 56.1747 35.2014 55.8974 35.4046C55.6201 35.6077 55.2925 35.7306 54.9502 35.7599L45.1385 36.5668C44.7694 36.5968 44.4175 36.7356 44.1271 36.9657C43.8367 37.1959 43.6208 37.5071 43.5068 37.86C43.3928 38.2129 43.3857 38.5918 43.4864 38.9487C43.5871 39.3057 43.7911 39.6248 44.0726 39.8657L51.5588 46.2654C51.8205 46.4901 52.0152 46.7827 52.1217 47.1111C52.2281 47.4395 52.242 47.7909 52.162 48.1268L49.9009 57.7139C49.8137 58.0757 49.8359 58.4553 49.9645 58.8045C50.0931 59.1537 50.3224 59.4567 50.6233 59.6751C50.9242 59.8934 51.283 60.0173 51.6543 60.0309C52.0256 60.0445 52.3925 59.9472 52.7085 59.7514L61.0953 54.5988C61.3886 54.4192 61.7255 54.3238 62.0693 54.3232C62.4131 54.3226 62.7504 54.4167 63.0444 54.5952L71.4503 59.7164C71.7671 59.911 72.1344 60.0069 72.5056 59.9919C72.8768 59.9769 73.2352 59.8517 73.5353 59.6322C73.8353 59.4128 74.0635 59.1089 74.1908 58.7592C74.3181 58.4096 74.3388 58.0299 74.2503 57.6684L71.9459 48.0898C71.8646 47.7543 71.8773 47.4028 71.9825 47.074C72.0877 46.7452 72.2813 46.4519 72.5421 46.2262L80.0119 39.7986C80.2951 39.5571 80.5002 39.2367 80.6011 38.8782C80.702 38.5196 80.6942 38.1391 80.5786 37.785C80.463 37.4309 80.2448 37.1193 79.9519 36.8898C79.659 36.6603 79.3046 36.5232 78.9337 36.4961L69.1265 35.7334C68.7828 35.7068 68.4531 35.5857 68.1736 35.3835C67.8942 35.1813 67.6758 34.9058 67.5425 34.5873L63.7397 25.4921ZM62.1135 77.9844C63.6047 77.9816 65.036 78.5723 66.0924 79.6267C67.1488 80.681 67.7438 82.1126 67.7466 83.6064L67.789 106.305C67.7966 110.348 70.4212 113.92 74.2769 115.136L87.9676 119.452C90.7596 120.332 94.0873 120.354 96.1593 122.422C97.2158 123.477 97.8108 124.908 97.8136 126.402C97.8164 127.896 97.2267 129.33 96.1742 130.388C95.1218 131.446 93.6928 132.042 92.2016 132.045L32.2278 132.157C30.7366 132.16 29.3054 131.569 28.249 130.515C27.1926 129.461 26.5975 128.029 26.5947 126.535C26.5919 125.041 27.1816 123.608 28.2341 122.549C30.2984 120.474 33.626 120.439 36.4146 119.548L50.0891 115.181C53.9403 113.951 56.5515 110.369 56.544 106.326L56.5015 83.6275C56.4987 82.1336 57.0884 80.6998 58.1409 79.6415C59.1934 78.5833 60.6223 77.9872 62.1135 77.9844Z" fill="#1875F8"/>
<path d="M33.6467 0.855049C34.696 0.725415 35.858 0.723244 37.2074 0.720721L86.7307 0.628158C88.0801 0.625636 89.2421 0.623464 90.2919 0.749174C94.0183 1.20655 97.486 2.89626 100.146 5.55073C102.805 8.2052 104.505 11.6727 104.975 15.404L104.998 15.6143L111.041 15.603C112.63 15.585 116.116 15.5484 118.998 17.4732C122.729 19.952 123.861 24.2232 123.87 28.7217C123.908 49.1943 113.041 62.8831 99.1485 70.5018C91.4158 84.6653 77.1005 94.5228 62.1445 94.5508C50.757 94.5721 39.9427 88.4189 32.1526 79.8945C29.5642 77.0761 27.2909 73.9828 25.3733 70.6697C11.4603 63.1405 0.212152 49.5081 0.173733 28.9529C0.165311 24.4469 1.28184 20.179 4.99557 17.6862C7.8782 15.7507 11.3642 15.7743 12.9536 15.7863L18.9959 15.775L19.018 15.5647C19.4746 11.8316 21.1612 8.3578 23.811 5.69341C26.4607 3.02902 29.922 1.32635 33.6467 0.855049ZM112.486 26.903C111.907 26.8691 111.327 26.8577 110.747 26.8687L105.102 26.8793L104.908 51.588C109.68 45.8113 112.642 38.2806 112.625 28.7428C112.623 27.8566 112.554 27.2709 112.486 26.903ZM11.4188 28.9319C11.4362 38.2219 14.3587 45.5989 19.0324 51.3129C18.5271 45.7113 18.6514 40.0184 18.7758 34.3555C18.8411 31.9021 18.8791 29.4637 18.8895 27.0404L13.2895 27.0509C12.4723 27.0524 11.9551 27.0534 11.5578 27.0917C11.4536 27.6993 11.407 28.3155 11.4188 28.9319ZM63.7397 25.4921C63.595 25.1537 63.3543 24.8654 63.0473 24.6629C62.7404 24.4605 62.3808 24.353 62.0133 24.3537C61.6458 24.3543 61.2867 24.4632 60.9805 24.6668C60.6743 24.8704 60.4346 25.1596 60.2912 25.4986L56.5224 34.6079C56.3909 34.9258 56.1747 35.2014 55.8974 35.4046C55.6201 35.6077 55.2925 35.7306 54.9502 35.7599L45.1385 36.5668C44.7694 36.5968 44.4175 36.7356 44.1271 36.9657C43.8367 37.1959 43.6208 37.5071 43.5068 37.86C43.3928 38.2129 43.3857 38.5918 43.4864 38.9487C43.5871 39.3057 43.7911 39.6248 44.0726 39.8657L51.5588 46.2654C51.8205 46.4901 52.0152 46.7827 52.1217 47.1111C52.2281 47.4395 52.242 47.7909 52.162 48.1268L49.9009 57.7139C49.8137 58.0757 49.8359 58.4553 49.9645 58.8045C50.0931 59.1537 50.3224 59.4567 50.6233 59.6751C50.9242 59.8934 51.283 60.0173 51.6543 60.0309C52.0256 60.0445 52.3925 59.9472 52.7085 59.7514L61.0953 54.5988C61.3886 54.4192 61.7255 54.3238 62.0693 54.3232C62.4131 54.3226 62.7504 54.4167 63.0444 54.5952L71.4503 59.7164C71.7671 59.911 72.1344 60.0069 72.5056 59.9919C72.8768 59.9769 73.2352 59.8517 73.5353 59.6322C73.8353 59.4128 74.0635 59.1089 74.1908 58.7592C74.3181 58.4096 74.3388 58.0299 74.2503 57.6684L71.9459 48.0898C71.8646 47.7543 71.8773 47.4028 71.9825 47.074C72.0877 46.7452 72.2813 46.4519 72.5421 46.2262L80.0119 39.7986C80.2951 39.5571 80.5002 39.2367 80.6011 38.8782C80.702 38.5196 80.6942 38.1391 80.5786 37.785C80.463 37.4309 80.2448 37.1193 79.9519 36.8898C79.659 36.6603 79.3046 36.5232 78.9337 36.4961L69.1265 35.7334C68.7828 35.7068 68.4531 35.5857 68.1736 35.3835C67.8942 35.1813 67.6758 34.9058 67.5425 34.5873L63.7397 25.4921ZM62.1135 77.9844C63.6047 77.9816 65.036 78.5723 66.0924 79.6267C67.1488 80.681 67.7438 82.1126 67.7466 83.6064L67.789 106.305C67.7966 110.348 70.4212 113.92 74.2769 115.136L87.9676 119.452C90.7596 120.332 94.0873 120.354 96.1593 122.422C97.2158 123.477 97.8108 124.908 97.8136 126.402C97.8164 127.896 97.2267 129.33 96.1742 130.388C95.1218 131.446 93.6928 132.042 92.2016 132.045L32.2278 132.157C30.7366 132.16 29.3054 131.569 28.249 130.515C27.1926 129.461 26.5975 128.029 26.5947 126.535C26.5919 125.041 27.1816 123.608 28.2341 122.549C30.2984 120.474 33.626 120.439 36.4146 119.548L50.0891 115.181C53.9403 113.951 56.5515 110.369 56.544 106.326L56.5015 83.6275C56.4987 82.1336 57.0884 80.6998 58.1409 79.6415C59.1934 78.5833 60.6223 77.9872 62.1135 77.9844Z" fill="url(#paint0_linear_280_96)"/>
<defs>
<linearGradient id="paint0_linear_280_96" x1="-22.7572" y1="128.158" x2="147.286" y2="24.7155" gradientUnits="userSpaceOnUse">
<stop stop-color="#F3F6FF"/>
<stop offset="1" stop-color="#1976F9" stop-opacity="0.9"/>
</linearGradient>
</defs>
</svg>
