<svg width="124" height="133" viewBox="0 0 124 133" fill="none" xmlns="http://www.w3.org/2000/svg">
<path d="M33.647 0.855293C34.6963 0.725659 35.8583 0.723488 37.2077 0.720966L86.731 0.628402C88.0804 0.62588 89.2424 0.623708 90.2922 0.749418C94.0186 1.20679 97.4863 2.89651 100.146 5.55098C102.806 8.20544 104.505 11.6729 104.976 15.4043L104.999 15.6145L111.041 15.6032C112.63 15.5852 116.116 15.5487 118.999 17.4734C122.729 19.9523 123.862 24.2234 123.87 28.722C123.908 49.1945 113.041 62.8833 99.1488 70.502C91.4161 84.6656 77.1008 94.5231 62.1448 94.551C50.7573 94.5723 39.943 88.4192 32.1529 79.8947C29.5645 77.0764 27.2912 73.9831 25.3736 70.6699C11.4606 63.1408 0.212457 49.5084 0.174038 28.9532C0.165616 24.4471 1.28215 20.1793 4.99588 17.6865C7.87851 15.751 11.3645 15.7745 12.9539 15.7866L18.9962 15.7753L19.0183 15.5649C19.4749 11.8319 21.1615 8.35804 23.8113 5.69365C26.461 3.02926 29.9223 1.32659 33.647 0.855293ZM112.486 26.9033C111.907 26.8694 111.327 26.8579 110.747 26.869L105.102 26.8795L104.908 51.5882C109.681 45.8115 112.643 38.2808 112.625 28.743C112.623 27.8568 112.555 27.2712 112.486 26.9033ZM11.4191 28.9322C11.4365 38.2222 14.359 45.5992 19.0327 51.3132C18.5274 45.7115 18.6517 40.0186 18.7761 34.3558C18.8415 31.9023 18.8794 29.464 18.8898 27.0407L13.2898 27.0511C12.4726 27.0527 11.9554 27.0536 11.5581 27.0919C11.4539 27.6996 11.4073 28.3157 11.4191 28.9322ZM63.74 25.4924C63.5953 25.1539 63.3546 24.8656 63.0476 24.6632C62.7407 24.4608 62.3811 24.3532 62.0136 24.3539C61.6461 24.3546 61.287 24.4635 60.9808 24.667C60.6746 24.8706 60.4349 25.1599 60.2915 25.4988L56.5227 34.6081C56.3912 34.9261 56.175 35.2016 55.8977 35.4048C55.6204 35.608 55.2928 35.7309 54.9505 35.7601L45.1388 36.567C44.7697 36.597 44.4178 36.7358 44.1274 36.966C43.837 37.1961 43.6211 37.5073 43.5071 37.8602C43.3931 38.2132 43.386 38.592 43.4867 38.949C43.5874 39.3059 43.7914 39.625 44.0729 39.866L51.5591 46.2656C51.8208 46.4903 52.0155 46.783 52.122 47.1114C52.2284 47.4398 52.2424 47.7912 52.1623 48.127L49.9012 57.7142C49.814 58.076 49.8362 58.4556 49.9648 58.8048C50.0934 59.1539 50.3227 59.457 50.6236 59.6753C50.9245 59.8937 51.2833 60.0175 51.6546 60.0311C52.0259 60.0447 52.3928 59.9474 52.7088 59.7517L61.0956 54.5991C61.3889 54.4194 61.7258 54.3241 62.0696 54.3234C62.4134 54.3228 62.7507 54.4169 63.0447 54.5954L71.4506 59.7167C71.7674 59.9112 72.1347 60.0071 72.5059 59.9921C72.8771 59.9771 73.2355 59.852 73.5356 59.6325C73.8356 59.413 74.0638 59.1091 74.1911 58.7595C74.3184 58.4098 74.3391 58.0301 74.2506 57.6687L71.9462 48.09C71.8649 47.7545 71.8776 47.403 71.9828 47.0742C72.088 46.7455 72.2816 46.4521 72.5424 46.2264L80.0122 39.7988C80.2954 39.5574 80.5005 39.237 80.6014 38.8784C80.7023 38.5199 80.6945 38.1393 80.5789 37.7852C80.4633 37.4312 80.2452 37.1195 79.9522 36.89C79.6593 36.6605 79.3049 36.5235 78.934 36.4964L69.1268 35.7336C68.7831 35.707 68.4534 35.5859 68.1739 35.3837C67.8945 35.1815 67.6761 34.906 67.5428 34.5875L63.74 25.4924ZM62.1138 77.9846C63.605 77.9818 65.0363 78.5726 66.0927 79.6269C67.1491 80.6813 67.7441 82.1128 67.7469 83.6067L67.7893 106.306C67.7969 110.348 70.4215 113.921 74.2772 115.136L87.9679 119.452C90.7599 120.332 94.0876 120.355 96.1596 122.423C97.2161 123.477 97.8111 124.909 97.8139 126.402C97.8167 127.896 97.227 129.33 96.1745 130.388C95.1221 131.447 93.6931 132.043 92.2019 132.046L32.2281 132.158C30.7369 132.16 29.3057 131.57 28.2493 130.515C27.1929 129.461 26.5978 128.029 26.595 126.536C26.5923 125.042 27.1819 123.608 28.2344 122.55C30.2987 120.474 33.6263 120.439 36.415 119.549L50.0895 115.181C53.9406 113.952 56.5518 110.369 56.5443 106.327L56.5018 83.6277C56.499 82.1338 57.0887 80.7001 58.1412 79.6418C59.1937 78.5835 60.6227 77.9874 62.1138 77.9846Z" fill="black"/>
<path d="M33.647 0.855293C34.6963 0.725659 35.8583 0.723488 37.2077 0.720966L86.731 0.628402C88.0804 0.62588 89.2424 0.623708 90.2922 0.749418C94.0186 1.20679 97.4863 2.89651 100.146 5.55098C102.806 8.20544 104.505 11.6729 104.976 15.4043L104.999 15.6145L111.041 15.6032C112.63 15.5852 116.116 15.5487 118.999 17.4734C122.729 19.9523 123.862 24.2234 123.87 28.722C123.908 49.1945 113.041 62.8833 99.1488 70.502C91.4161 84.6656 77.1008 94.5231 62.1448 94.551C50.7573 94.5723 39.943 88.4192 32.1529 79.8947C29.5645 77.0764 27.2912 73.9831 25.3736 70.6699C11.4606 63.1408 0.212457 49.5084 0.174038 28.9532C0.165616 24.4471 1.28215 20.1793 4.99588 17.6865C7.87851 15.751 11.3645 15.7745 12.9539 15.7866L18.9962 15.7753L19.0183 15.5649C19.4749 11.8319 21.1615 8.35804 23.8113 5.69365C26.461 3.02926 29.9223 1.32659 33.647 0.855293ZM112.486 26.9033C111.907 26.8694 111.327 26.8579 110.747 26.869L105.102 26.8795L104.908 51.5882C109.681 45.8115 112.643 38.2808 112.625 28.743C112.623 27.8568 112.555 27.2712 112.486 26.9033ZM11.4191 28.9322C11.4365 38.2222 14.359 45.5992 19.0327 51.3132C18.5274 45.7115 18.6517 40.0186 18.7761 34.3558C18.8415 31.9023 18.8794 29.464 18.8898 27.0407L13.2898 27.0511C12.4726 27.0527 11.9554 27.0536 11.5581 27.0919C11.4539 27.6996 11.4073 28.3157 11.4191 28.9322ZM63.74 25.4924C63.5953 25.1539 63.3546 24.8656 63.0476 24.6632C62.7407 24.4608 62.3811 24.3532 62.0136 24.3539C61.6461 24.3546 61.287 24.4635 60.9808 24.667C60.6746 24.8706 60.4349 25.1599 60.2915 25.4988L56.5227 34.6081C56.3912 34.9261 56.175 35.2016 55.8977 35.4048C55.6204 35.608 55.2928 35.7309 54.9505 35.7601L45.1388 36.567C44.7697 36.597 44.4178 36.7358 44.1274 36.966C43.837 37.1961 43.6211 37.5073 43.5071 37.8602C43.3931 38.2132 43.386 38.592 43.4867 38.949C43.5874 39.3059 43.7914 39.625 44.0729 39.866L51.5591 46.2656C51.8208 46.4903 52.0155 46.783 52.122 47.1114C52.2284 47.4398 52.2424 47.7912 52.1623 48.127L49.9012 57.7142C49.814 58.076 49.8362 58.4556 49.9648 58.8048C50.0934 59.1539 50.3227 59.457 50.6236 59.6753C50.9245 59.8937 51.2833 60.0175 51.6546 60.0311C52.0259 60.0447 52.3928 59.9474 52.7088 59.7517L61.0956 54.5991C61.3889 54.4194 61.7258 54.3241 62.0696 54.3234C62.4134 54.3228 62.7507 54.4169 63.0447 54.5954L71.4506 59.7167C71.7674 59.9112 72.1347 60.0071 72.5059 59.9921C72.8771 59.9771 73.2355 59.852 73.5356 59.6325C73.8356 59.413 74.0638 59.1091 74.1911 58.7595C74.3184 58.4098 74.3391 58.0301 74.2506 57.6687L71.9462 48.09C71.8649 47.7545 71.8776 47.403 71.9828 47.0742C72.088 46.7455 72.2816 46.4521 72.5424 46.2264L80.0122 39.7988C80.2954 39.5574 80.5005 39.237 80.6014 38.8784C80.7023 38.5199 80.6945 38.1393 80.5789 37.7852C80.4633 37.4312 80.2452 37.1195 79.9522 36.89C79.6593 36.6605 79.3049 36.5235 78.934 36.4964L69.1268 35.7336C68.7831 35.707 68.4534 35.5859 68.1739 35.3837C67.8945 35.1815 67.6761 34.906 67.5428 34.5875L63.74 25.4924ZM62.1138 77.9846C63.605 77.9818 65.0363 78.5726 66.0927 79.6269C67.1491 80.6813 67.7441 82.1128 67.7469 83.6067L67.7893 106.306C67.7969 110.348 70.4215 113.921 74.2772 115.136L87.9679 119.452C90.7599 120.332 94.0876 120.355 96.1596 122.423C97.2161 123.477 97.8111 124.909 97.8139 126.402C97.8167 127.896 97.227 129.33 96.1745 130.388C95.1221 131.447 93.6931 132.043 92.2019 132.046L32.2281 132.158C30.7369 132.16 29.3057 131.57 28.2493 130.515C27.1929 129.461 26.5978 128.029 26.595 126.536C26.5923 125.042 27.1819 123.608 28.2344 122.55C30.2987 120.474 33.6263 120.439 36.415 119.549L50.0895 115.181C53.9406 113.952 56.5518 110.369 56.5443 106.327L56.5018 83.6277C56.499 82.1338 57.0887 80.7001 58.1412 79.6418C59.1937 78.5835 60.6227 77.9874 62.1138 77.9846Z" fill="#1875F8"/>
<path d="M33.647 0.855293C34.6963 0.725659 35.8583 0.723488 37.2077 0.720966L86.731 0.628402C88.0804 0.62588 89.2424 0.623708 90.2922 0.749418C94.0186 1.20679 97.4863 2.89651 100.146 5.55098C102.806 8.20544 104.505 11.6729 104.976 15.4043L104.999 15.6145L111.041 15.6032C112.63 15.5852 116.116 15.5487 118.999 17.4734C122.729 19.9523 123.862 24.2234 123.87 28.722C123.908 49.1945 113.041 62.8833 99.1488 70.502C91.4161 84.6656 77.1008 94.5231 62.1448 94.551C50.7573 94.5723 39.943 88.4192 32.1529 79.8947C29.5645 77.0764 27.2912 73.9831 25.3736 70.6699C11.4606 63.1408 0.212457 49.5084 0.174038 28.9532C0.165616 24.4471 1.28215 20.1793 4.99588 17.6865C7.87851 15.751 11.3645 15.7745 12.9539 15.7866L18.9962 15.7753L19.0183 15.5649C19.4749 11.8319 21.1615 8.35804 23.8113 5.69365C26.461 3.02926 29.9223 1.32659 33.647 0.855293ZM112.486 26.9033C111.907 26.8694 111.327 26.8579 110.747 26.869L105.102 26.8795L104.908 51.5882C109.681 45.8115 112.643 38.2808 112.625 28.743C112.623 27.8568 112.555 27.2712 112.486 26.9033ZM11.4191 28.9322C11.4365 38.2222 14.359 45.5992 19.0327 51.3132C18.5274 45.7115 18.6517 40.0186 18.7761 34.3558C18.8415 31.9023 18.8794 29.464 18.8898 27.0407L13.2898 27.0511C12.4726 27.0527 11.9554 27.0536 11.5581 27.0919C11.4539 27.6996 11.4073 28.3157 11.4191 28.9322ZM63.74 25.4924C63.5953 25.1539 63.3546 24.8656 63.0476 24.6632C62.7407 24.4608 62.3811 24.3532 62.0136 24.3539C61.6461 24.3546 61.287 24.4635 60.9808 24.667C60.6746 24.8706 60.4349 25.1599 60.2915 25.4988L56.5227 34.6081C56.3912 34.9261 56.175 35.2016 55.8977 35.4048C55.6204 35.608 55.2928 35.7309 54.9505 35.7601L45.1388 36.567C44.7697 36.597 44.4178 36.7358 44.1274 36.966C43.837 37.1961 43.6211 37.5073 43.5071 37.8602C43.3931 38.2132 43.386 38.592 43.4867 38.949C43.5874 39.3059 43.7914 39.625 44.0729 39.866L51.5591 46.2656C51.8208 46.4903 52.0155 46.783 52.122 47.1114C52.2284 47.4398 52.2424 47.7912 52.1623 48.127L49.9012 57.7142C49.814 58.076 49.8362 58.4556 49.9648 58.8048C50.0934 59.1539 50.3227 59.457 50.6236 59.6753C50.9245 59.8937 51.2833 60.0175 51.6546 60.0311C52.0259 60.0447 52.3928 59.9474 52.7088 59.7517L61.0956 54.5991C61.3889 54.4194 61.7258 54.3241 62.0696 54.3234C62.4134 54.3228 62.7507 54.4169 63.0447 54.5954L71.4506 59.7167C71.7674 59.9112 72.1347 60.0071 72.5059 59.9921C72.8771 59.9771 73.2355 59.852 73.5356 59.6325C73.8356 59.413 74.0638 59.1091 74.1911 58.7595C74.3184 58.4098 74.3391 58.0301 74.2506 57.6687L71.9462 48.09C71.8649 47.7545 71.8776 47.403 71.9828 47.0742C72.088 46.7455 72.2816 46.4521 72.5424 46.2264L80.0122 39.7988C80.2954 39.5574 80.5005 39.237 80.6014 38.8784C80.7023 38.5199 80.6945 38.1393 80.5789 37.7852C80.4633 37.4312 80.2452 37.1195 79.9522 36.89C79.6593 36.6605 79.3049 36.5235 78.934 36.4964L69.1268 35.7336C68.7831 35.707 68.4534 35.5859 68.1739 35.3837C67.8945 35.1815 67.6761 34.906 67.5428 34.5875L63.74 25.4924ZM62.1138 77.9846C63.605 77.9818 65.0363 78.5726 66.0927 79.6269C67.1491 80.6813 67.7441 82.1128 67.7469 83.6067L67.7893 106.306C67.7969 110.348 70.4215 113.921 74.2772 115.136L87.9679 119.452C90.7599 120.332 94.0876 120.355 96.1596 122.423C97.2161 123.477 97.8111 124.909 97.8139 126.402C97.8167 127.896 97.227 129.33 96.1745 130.388C95.1221 131.447 93.6931 132.043 92.2019 132.046L32.2281 132.158C30.7369 132.16 29.3057 131.57 28.2493 130.515C27.1929 129.461 26.5978 128.029 26.595 126.536C26.5923 125.042 27.1819 123.608 28.2344 122.55C30.2987 120.474 33.6263 120.439 36.415 119.549L50.0895 115.181C53.9406 113.952 56.5518 110.369 56.5443 106.327L56.5018 83.6277C56.499 82.1338 57.0887 80.7001 58.1412 79.6418C59.1937 78.5835 60.6227 77.9874 62.1138 77.9846Z" fill="url(#paint0_linear_190_61)"/>
<defs>
<linearGradient id="paint0_linear_190_61" x1="-22.7569" y1="128.158" x2="147.286" y2="24.7158" gradientUnits="userSpaceOnUse">
<stop stop-color="#F3F6FF"/>
<stop offset="1" stop-color="#1976F9" stop-opacity="0.9"/>
</linearGradient>
</defs>
</svg>
