<svg width="108" height="168" viewBox="0 0 108 168" fill="none" xmlns="http://www.w3.org/2000/svg">
<path d="M57.784 114.211C57.9758 113.738 57.7101 113.204 57.2173 113.072L24.2186 104.23C23.6726 104.084 23.4196 103.455 23.7123 102.971L69.939 26.5982C70.1345 26.2752 70.5199 26.1202 70.8846 26.2179L114.612 37.9346C115.183 38.0878 115.427 38.7645 115.083 39.2466L80.4047 87.9276C80.0613 88.4097 80.3045 89.0864 80.8762 89.2396L113.186 97.897C113.84 98.0722 114.035 98.9048 113.528 99.3528L38.7602 165.359C38.0884 165.952 37.0753 165.234 37.4124 164.404L57.784 114.211Z" stroke="#1976F9" stroke-width="2.54568" stroke-linecap="round" stroke-linejoin="round"/>
<path d="M23.7917 39.5267C23.7215 39.0213 23.2244 38.6918 22.7316 38.8238L10.9089 41.9917C10.363 42.138 9.82924 41.7196 9.84094 41.1545L10.5489 6.94225C10.5567 6.56479 10.8129 6.23788 11.1776 6.14017L27.3759 1.79986C27.9476 1.64667 28.4966 2.11111 28.4402 2.70031L26.3311 24.7472C26.2747 25.3364 26.8237 25.8008 27.3954 25.6476L38.5292 22.6643C39.1831 22.4892 39.7688 23.1124 39.5533 23.7541L28.0028 58.152C27.7176 59.0015 26.4813 58.8863 26.3579 57.9986L23.7917 39.5267Z" stroke="#1976F9" stroke-width="2.54568" stroke-linecap="round" stroke-linejoin="round"/>
<path d="M18.3329 64.2646L8.61777 57.2075" stroke="#1976F9" stroke-width="2.54568" stroke-linecap="round" stroke-linejoin="round"/>
<path d="M57.8342 161.749L92.2855 145.809" stroke="#1976F9" stroke-width="2.54568" stroke-linecap="round" stroke-linejoin="round"/>
<path d="M58.6827 168.811L79.8967 164.407" stroke="#1976F9" stroke-width="2.54568" stroke-linecap="round" stroke-linejoin="round"/>
</svg>
