<svg viewBox="0 0 342 119" fill="none" xmlns="http://www.w3.org/2000/svg">
<path d="M203.692 31.3213C201.33 27.4293 189.257 26.59 185.274 25.9749C162.3 22.4266 138.912 23.476 115.904 26.3759C87.14 30.0013 55.6905 35.198 31.1995 48.8976C15.6932 57.5714 -6.06522 80.3645 9.53649 96.1464C20.577 107.315 36.2115 110.084 53.1059 112.119C106.611 118.564 163.154 111.383 215.376 101.76C240.281 97.1706 277.871 88.0899 301.703 78.1023C315.493 72.3229 342.903 58.9847 337.24 42.2146C331.229 24.4125 294.919 11.6216 275.902 7.66344C250.929 2.46564 224.712 3.72561 199.311 4.85658" stroke="#1976F9" stroke-width="7.43713" stroke-linecap="round"/>
</svg>
