<svg width="81" height="49" viewBox="0 0 81 49" fill="none" xmlns="http://www.w3.org/2000/svg">
<path d="M38.8245 11.3757C38.519 20.0206 37.6121 28.579 38.0236 37.221C38.032 37.3957 38.0551 39.8343 37.7761 39.1285C37.0852 37.3809 36.8354 35.6915 36.7132 33.8575C36.0699 24.2087 34.1068 14.5703 34.1068 4.88162C34.1068 3.57686 35.2159 3.93499 36.1016 4.5904C38.5433 6.39721 40.8617 8.58599 43.1345 10.5603C49.3587 15.9672 55.5582 21.4042 61.6411 26.9702C66.3875 31.3132 71.022 35.7543 75.4593 40.4098C76.1481 41.1325 77.3805 42.4948 77.061 43.6132C77.0095 43.7934 76.8198 44.0824 76.6241 44.1373C74.8298 44.641 70.9782 43.8835 69.8243 43.7296C58.1196 42.169 46.4861 40.0143 34.8931 37.7889C27.8271 36.4324 20.7997 34.5932 13.6927 33.4498C10.8112 32.9862 7.8271 32.3432 4.89798 32.3432C0.672556 32.3432 12.5108 28.618 16.5174 27.276C29.7123 22.8567 42.8967 18.4847 56.0061 13.8219C61.6963 11.798 67.5909 9.9436 73.5664 8.95862C74.622 8.78462 75.4221 8.55113 76.3912 8.27427C77.1363 8.06137 75.2422 9.31915 74.6148 9.77402C63.6322 17.7364 53.1474 26.7052 42.8724 35.5465C40.2864 37.7717 37.5863 39.8957 34.8931 42.0007C33.789 42.8637 32.7815 43.8273 31.6606 44.6615" stroke="#1976F9" stroke-width="7" stroke-linecap="round"/>
</svg>
