<svg width="110" height="69" viewBox="0 0 110 69" fill="none" xmlns="http://www.w3.org/2000/svg">
<rect x="0.0488281" y="21.0234" width="102" height="49" rx="12" transform="rotate(-11.88 0.0488281 21.0234)" fill="#19C1F9"/>
<path d="M94.268 19.0857C94.5826 20.5812 93.8668 22.3052 92.1017 24.1779C90.3464 26.0401 87.6199 27.9747 84.1083 29.8631C77.0899 33.6373 67.0188 37.1829 55.5607 39.5933C44.1026 42.0038 33.4566 42.8164 25.5125 42.1898C21.5376 41.8764 18.2627 41.2043 15.9059 40.2071C13.5359 39.2043 12.1861 37.9149 11.8715 36.4193C11.5569 34.9238 12.2727 33.1998 14.0378 31.3271C15.7931 29.4649 18.5197 27.5303 22.0313 25.6419C29.0497 21.8677 39.1207 18.3221 50.5788 15.9117C62.037 13.5012 72.6829 12.6886 80.6271 13.3151C84.6019 13.6286 87.8768 14.3007 90.2336 15.2979C92.6037 16.3007 93.9534 17.5901 94.268 19.0857Z" stroke="white" stroke-width="0.8"/>
<path d="M96.9442 31.8072C97.2589 33.3028 96.543 35.0267 94.7779 36.8994C93.0226 38.7617 90.2961 40.6963 86.7845 42.5847C79.7661 46.3589 69.695 49.9045 58.2369 52.3149C46.7788 54.7253 36.1329 55.538 28.1887 54.9114C24.2139 54.5979 20.939 53.9258 18.5821 52.9286C16.2121 51.9259 14.8623 50.6365 14.5477 49.1409C14.2331 47.6453 14.9489 45.9214 16.7141 44.0487C18.4694 42.1864 21.1959 40.2518 24.7075 38.3634C31.7259 34.5892 41.7969 31.0437 53.255 28.6332C64.7132 26.2228 75.3591 25.4102 83.3033 26.0367C87.2781 26.3502 90.553 27.0223 92.9098 28.0195C95.2799 29.0223 96.6296 30.3117 96.9442 31.8072Z" stroke="white" stroke-width="0.8"/>
</svg>
