<svg width="182" height="164" viewBox="0 0 182 164" fill="none" xmlns="http://www.w3.org/2000/svg">
<ellipse cx="83.5" cy="65" rx="83.5" ry="65" transform="matrix(0.981627 0.190809 0 1 17.9603 1.20227)" fill="#FFE3E7" fill-opacity="0.2"/>
<ellipse cx="83.5" cy="65" rx="83.5" ry="65" transform="matrix(0.981627 0.190809 0 1 0.000366211 0.00012207)" fill="#FFE3E7"/>
<ellipse cx="83.5" cy="65" rx="83.5" ry="65" transform="matrix(0.981627 0.190809 0 1 7.98279 0.534302)" fill="#FFE3E7" fill-opacity="0.5"/>
<path d="M101.61 73.9112C100.479 73.4997 99.3963 73.3237 98.3939 73.3578C96.5985 70.902 94.3983 68.9739 91.8314 68.0396C90.2505 67.4642 88.7837 67.3962 87.4812 67.6729L88.9915 58.2572C89.0761 57.7281 89.117 57.1864 89.117 56.6364C89.117 51.4218 85.1906 44.8083 79.3261 42.6738C74.6161 40.9595 70.456 43.0818 69.6792 47.9125L69.2046 50.875L68.5934 49.2867C66.9093 44.9521 63.423 41.5108 59.7804 40.1851C54.2392 38.1682 50.0004 41.4354 50.0004 47.0418C50.0004 48.5565 50.3122 50.2063 50.9706 51.9014L57.7486 69.3505C54.4334 69.806 52.1734 72.64 52.1734 76.6002V88.1627C52.1734 91.3511 53.5859 94.9379 55.9531 97.7565L62.1938 105.193C66.18 109.944 71.1549 113.573 76.2099 115.413L86.9135 119.314C100.103 124.238 110.845 116.6 110.845 102.681V87.1441C110.845 81.5508 106.486 75.6859 101.61 73.9112ZM89.1151 76.9224C89.1151 75.3037 90.2152 74.3888 91.8314 74.9771C93.3281 75.5218 94.5477 77.2778 94.5477 78.8925V86.914C94.5477 88.5255 93.3253 89.3959 91.8314 88.8521C90.2152 88.2638 89.1151 86.5482 89.1151 84.9439V76.9224ZM79.3228 49.609C80.9594 50.2046 82.6 52.1764 82.6 54.2676C82.6 54.4522 82.5861 54.634 82.5575 54.8116L79.3907 74.5682C78.3449 73.7684 77.2177 72.9968 76.0633 72.5766C75.4555 72.3554 74.8454 72.1941 74.2461 72.0965L72.8132 71.8101L76.1162 51.2315C76.3756 49.7561 77.7609 49.0405 79.3228 49.609ZM56.3973 49.3614C56.3973 47.4435 57.8627 46.4202 59.6595 47.0742C60.8733 47.516 62.0363 48.6653 62.5945 50.1095L70.9186 71.5381L64.3017 70.2325L56.8427 51.0266C56.6227 50.4696 56.3973 49.8672 56.3973 49.3614ZM86.9149 112.5L76.2113 108.599C72.604 107.286 69.0511 104.695 66.2031 101.3L59.9597 93.8605C59.1638 92.9183 58.6925 91.7206 58.6925 90.5355V78.973C58.6925 77.3499 59.7748 76.3158 61.0815 76.4865L75.3828 79.346C75.6151 79.51 75.8459 79.435 76.0633 79.5141C77.6808 80.1029 79.335 82.0811 79.335 84.1824C79.335 85.778 78.3147 86.8389 77.0031 86.6709L69.1231 85.0674C67.4893 84.7088 66.3009 85.763 66.3009 87.4728C66.3009 90.3938 68.8569 91.8835 69.5197 92.1247C69.8789 92.2555 78.2947 94.0728 78.421 94.0889C81.6194 94.4976 84.0587 92.9279 85.1751 90.2398C86.847 92.7469 89.1966 94.8306 91.8314 95.7896C92.9622 96.2012 94.0465 96.3776 95.0488 96.3435C96.7207 98.7543 99.0431 100.727 101.61 101.661C101.637 101.671 102.979 102.095 104.143 102.161C103.226 111.138 95.8922 115.768 86.9149 112.5ZM104.326 92.7929C104.326 94.3972 103.104 95.2675 101.61 94.7237C100.113 94.179 98.8937 92.423 98.8937 90.8083V82.7868C98.8937 81.1753 99.9938 80.2605 101.61 80.8487C103.107 81.3935 104.326 83.1494 104.326 84.7642V92.7929Z" fill="#1356B4"/>
<path d="M96.61 73.9112C95.4792 73.4997 94.3963 73.3237 93.3939 73.3578C91.5985 70.902 89.3983 68.9739 86.8314 68.0396C85.2505 67.4642 83.7837 67.3962 82.4812 67.6729L83.9915 58.2572C84.0761 57.7281 84.117 57.1864 84.117 56.6364C84.117 51.4218 80.1906 44.8083 74.3261 42.6738C69.6161 40.9595 65.456 43.0818 64.6792 47.9125L64.2046 50.875L63.5934 49.2867C61.9093 44.9521 58.423 41.5108 54.7804 40.1851C49.2392 38.1682 45.0004 41.4354 45.0004 47.0418C45.0004 48.5565 45.3122 50.2063 45.9706 51.9014L52.7486 69.3505C49.4334 69.806 47.1734 72.64 47.1734 76.6002V88.1627C47.1734 91.3511 48.5859 94.9379 50.9531 97.7565L57.1938 105.193C61.18 109.944 66.1549 113.573 71.2099 115.413L81.9135 119.314C95.1025 124.238 105.845 116.6 105.845 102.681V87.1441C105.845 81.5508 101.486 75.6859 96.61 73.9112Z" fill="#FFE3E7"/>
<path d="M96.61 73.9112C95.4792 73.4997 94.3963 73.3237 93.3939 73.3578C91.5985 70.902 89.3983 68.9739 86.8314 68.0396C85.2505 67.4642 83.7837 67.3962 82.4812 67.6729L83.9915 58.2572C84.0761 57.7281 84.117 57.1864 84.117 56.6364C84.117 51.4218 80.1906 44.8083 74.3261 42.6738C69.6161 40.9595 65.456 43.0818 64.6792 47.9125L64.2046 50.875L63.5934 49.2867C61.9093 44.9521 58.423 41.5108 54.7804 40.1851C49.2392 38.1682 45.0004 41.4354 45.0004 47.0418C45.0004 48.5565 45.3122 50.2063 45.9706 51.9014L52.7486 69.3505C49.4334 69.806 47.1734 72.64 47.1734 76.6002V88.1627C47.1734 91.3511 48.5859 94.9379 50.9531 97.7565L57.1938 105.193C61.18 109.944 66.1549 113.573 71.2099 115.413L81.9135 119.314C95.1025 124.238 105.845 116.6 105.845 102.681V87.1441C105.845 81.5508 101.486 75.6859 96.61 73.9112ZM84.1151 76.9224C84.1151 75.3037 85.2152 74.3888 86.8314 74.9771C88.3281 75.5218 89.5477 77.2778 89.5477 78.8925V86.914C89.5477 88.5255 88.3253 89.3959 86.8314 88.8521C85.2152 88.2638 84.1151 86.5482 84.1151 84.9439V76.9224ZM74.3228 49.609C75.9594 50.2046 77.6 52.1764 77.6 54.2676C77.6 54.4522 77.5861 54.634 77.5575 54.8116L74.3907 74.5682C73.3449 73.7684 72.2177 72.9968 71.0633 72.5766C70.4555 72.3554 69.8454 72.1941 69.2461 72.0965L67.8132 71.8101L71.1162 51.2315C71.3756 49.7561 72.7609 49.0405 74.3228 49.609ZM51.3973 49.3614C51.3973 47.4435 52.8627 46.4202 54.6595 47.0742C55.8733 47.516 57.0363 48.6653 57.5945 50.1095L65.9186 71.5381L59.3017 70.2325L51.8427 51.0266C51.6227 50.4696 51.3973 49.8672 51.3973 49.3614ZM81.9149 112.5L71.2113 108.599C67.604 107.286 64.0511 104.695 61.2031 101.3L54.9597 93.8605C54.1638 92.9183 53.6925 91.7206 53.6925 90.5355V78.973C53.6925 77.3499 54.7748 76.3158 56.0815 76.4865L70.3828 79.346C70.6151 79.51 70.8459 79.435 71.0633 79.5141C72.6808 80.1029 74.335 82.0811 74.335 84.1824C74.335 85.778 73.3147 86.8389 72.0031 86.6709L64.1231 85.0674C62.4893 84.7088 61.3009 85.763 61.3009 87.4728C61.3009 90.3938 63.8569 91.8835 64.5197 92.1247C64.8789 92.2555 73.2947 94.0728 73.421 94.0889C76.6194 94.4976 79.0587 92.9279 80.1751 90.2398C81.847 92.7469 84.1966 94.8306 86.8314 95.7896C87.9622 96.2012 89.0465 96.3776 90.0488 96.3435C91.7207 98.7543 94.0431 100.727 96.61 101.661C96.6371 101.671 97.9791 102.095 99.143 102.161C98.2262 111.138 90.8922 115.768 81.9149 112.5ZM99.3263 92.7929C99.3263 94.3972 98.104 95.2675 96.61 94.7237C95.1134 94.179 93.8937 92.423 93.8937 90.8083V82.7868C93.8937 81.1753 94.9938 80.2605 96.61 80.8487C98.1067 81.3935 99.3263 83.1494 99.3263 84.7642V92.7929Z" fill="#1976F9"/>
</svg>
