<svg width="123" height="47" viewBox="0 0 123 47" fill="none" xmlns="http://www.w3.org/2000/svg">
<path d="M17.9553 18.8574H19.7638L23.1944 31.1954H21.7028L20.7333 27.6461H16.8553L15.9603 31.1954H14.4688L17.9553 18.8574ZM18.8316 19.8527H18.7943L17.1722 26.4254H20.3977L18.8316 19.8527Z" fill="white"/>
<path d="M25.5984 27.2888C25.5984 29.1104 26.1018 30.2559 27.9104 30.2559C29.2901 30.2559 30.2409 29.655 30.2409 28.209C30.2409 26.6128 29.4952 26.2184 28.246 25.7489L26.4375 25.0729C25.3188 24.641 24.4611 23.7959 24.4611 21.8429C24.4611 19.8898 25.8035 18.6504 27.7985 18.6504C29.924 18.6504 31.1918 19.871 31.285 22.1245H29.924C29.924 20.7724 29.2528 19.871 27.8917 19.871C26.3815 19.871 25.8595 20.7912 25.8595 21.8241C25.8595 22.9508 26.1578 23.4579 26.9409 23.7396L28.8985 24.4719C30.8376 25.2043 31.6393 26.3686 31.6393 28.0024C31.6393 30.331 30.2036 31.4954 27.8544 31.4954C25.5052 31.4954 24.2188 29.9555 24.2188 27.3076L25.5984 27.2888Z" fill="white"/>
<path d="M36.935 31.1954H35.574V20.0968H32.3857V18.8574H40.0859V20.0968H36.9164L36.935 31.1954Z" fill="white"/>
<path d="M42.9771 31.1954H41.616V18.8574H45.3449C47.489 18.8574 48.906 19.9091 48.906 22.2189C48.906 23.6273 48.1043 24.8668 46.6873 25.0546V25.0921C47.9738 25.2423 48.7755 26.3691 48.7755 27.8902C48.7755 30.463 48.9992 30.5381 49.1857 30.9324V31.2141H47.806C47.5263 30.4066 47.4145 29.693 47.4145 28.3597C47.4145 26.7259 46.706 25.7869 45.1771 25.7869H42.9584L42.9771 31.1954ZM42.9771 24.5287H45.3449C46.2958 24.5287 47.489 24.078 47.489 22.2752C47.489 20.4912 46.4822 20.0968 45.289 20.0968H42.9771V24.5287Z" fill="white"/>
<path d="M54.1085 18.8574H55.917L59.3476 31.1954H57.8561L56.8865 27.6461H53.0271L52.1322 31.1954H50.6406L54.1085 18.8574ZM54.9848 19.8527H54.9475L53.3254 26.4254H56.5509L54.9848 19.8527Z" fill="white"/>
<path d="M67.1032 29.9747H72.1V31.2141H65.7422V18.8574H67.1032V29.9747Z" fill="white"/>
<path d="M75.1201 31.1954H73.759V18.8574H75.1201V31.1954Z" fill="white"/>
<path d="M79.8183 18.8574L83.2862 28.9606C83.4353 29.3925 83.5659 29.7494 83.715 30.3127H83.7709C83.7523 29.862 83.715 29.3925 83.715 28.9418V18.8574H85.0761V31.1954H82.8387L79.4268 21.3363C79.2217 20.7729 79.0912 20.2283 78.9607 19.4771H78.9234C78.942 20.0968 78.9607 20.7353 78.9607 21.3551V31.1954H77.5996V18.8574H79.8183Z" fill="white"/>
<path d="M88.9353 18.8574V27.74C88.9353 28.6977 89.0658 30.2564 91.2472 30.2564C93.4286 30.2564 93.5591 28.6977 93.5591 27.74V18.8574H94.9202V28.2282C94.9202 30.4254 93.4659 31.477 91.2472 31.477C89.0098 31.477 87.5742 30.4254 87.5742 28.2282V18.8574H88.9353Z" fill="white"/>
<path d="M98.2586 18.8574L100.832 23.6649L103.404 18.8574H104.915L101.633 24.848L104.989 31.1954H103.442L100.832 26.0311L98.184 31.1954H96.6738L100.067 24.848L96.7671 18.8574H98.2586Z" fill="white"/>
<path d="M108.512 11.4395H66.3756C66.0027 11.4395 65.6857 11.7399 65.6857 12.1343C65.6857 12.5286 65.984 12.8291 66.3756 12.8291H108.512C111.085 12.8291 113.192 14.9324 113.192 17.5427V32.0778C113.192 34.6881 111.104 36.7914 108.512 36.7914H80.1725H14.5438C11.9708 36.7914 9.86398 34.6881 9.86398 32.0778V17.5427C9.88263 14.9324 11.9708 12.8291 14.5438 12.8291H56.7177C57.0906 12.8291 57.4075 12.5286 57.4075 12.1343C57.4075 11.7399 57.1092 11.4395 56.7177 11.4395H14.5438C11.2064 11.4395 8.50293 14.1624 8.50293 17.5239V32.059C8.50293 35.4205 11.2064 38.1435 14.5438 38.1435H80.1725H108.512C111.85 38.1435 114.553 35.4205 114.553 32.059V17.5427C114.553 14.1812 111.85 11.4395 108.512 11.4395Z" fill="white"/>
<path d="M66.8412 9.22457L63.2428 8.60485C62.9258 7.94758 61.8817 5.71286 61.8817 5.71286L61.5461 4.98047L59.8308 8.60485L56.2324 9.22457L58.8054 12.0227L58.2274 16.0039L61.5461 14.1635L64.8648 15.9851L64.2869 12.0039C64.753 11.4968 66.3005 9.80672 66.375 9.71283L66.8412 9.22457ZM63.8021 11.8537L64.2869 15.1776L61.5275 13.6377L58.7681 15.1588L59.2528 11.8349L57.1087 9.48747L60.1105 8.96166L61.5275 5.95699L62.9445 8.96166L65.9462 9.48747L63.8021 11.8537Z" fill="white"/>
<path d="M59.5172 12.455L60.5054 13.8259L60.9342 13.6005L59.2749 10.1263L61.4563 13.3L61.5308 13.2625L62.2953 13.6756L60.6173 9.95734L63.4699 14.3329L63.8614 14.5582L63.8055 14.1263L61.9597 9.78832L63.5445 12.3423L63.4512 11.7414L63.936 11.2155L63.3021 9.61931L64.1224 11.009L65.297 9.73199L62.7241 9.28128L61.5308 6.74609L60.3376 9.28128L57.7646 9.73199L59.6105 11.7414L59.5172 12.455Z" fill="white"/>
<path d="M59.4052 13.1875L59.2001 14.5584L59.9086 14.164L59.4052 13.1875Z" fill="white"/>
<path d="M108.94 20.4353C108.94 21.3367 108.232 22.0503 107.337 22.0503C106.461 22.0503 105.733 21.3367 105.733 20.4353C105.733 19.5527 106.461 18.8203 107.337 18.8203C108.232 18.8203 108.94 19.5339 108.94 20.4353ZM105.976 20.4353C105.976 21.2053 106.572 21.8062 107.337 21.8062C108.101 21.8062 108.698 21.2053 108.698 20.4353C108.698 19.6842 108.101 19.0644 107.337 19.0644C106.572 19.0644 105.976 19.6654 105.976 20.4353ZM106.74 19.5151H107.523C107.822 19.5151 108.157 19.609 108.157 20.0034C108.157 20.3602 107.878 20.4917 107.598 20.4917L108.139 21.3179H107.878L107.374 20.4917H106.983V21.3179H106.759V19.5151H106.74ZM106.964 20.3226H107.486C107.654 20.3226 107.933 20.2851 107.933 19.9846C107.933 19.7217 107.691 19.6842 107.467 19.6842H106.964V20.3226Z" fill="white"/>
</svg>
