<svg width="102" height="27" viewBox="0 0 102 27" fill="none" xmlns="http://www.w3.org/2000/svg">
<path d="M12.7657 0.707031C5.8036 0.707031 0.100586 6.33599 0.100586 13.3722C0.100586 20.3343 5.72954 26.0373 12.7657 26.0373C19.7279 26.0373 25.4309 20.4084 25.4309 13.3722C25.4309 6.33599 19.7279 0.707031 12.7657 0.707031ZM12.7657 25.0004C6.32206 25.0004 1.13749 19.8159 1.13749 13.3722C1.13749 6.92851 6.32206 1.74395 12.7657 1.74395C19.2094 1.74395 24.394 6.92851 24.394 13.3722C24.468 19.7418 19.2094 25.0004 12.7657 25.0004Z" fill="white"/>
<path d="M12.7655 22.7782C13.2098 22.7782 13.432 22.4819 13.5061 22.1116C13.5802 22.2597 13.7283 22.4078 13.8764 22.4819C14.0246 22.4819 14.2468 22.4819 14.3949 22.4078C14.543 22.3338 14.6911 22.1857 14.7652 22.0375C14.8393 21.8894 14.8393 21.6672 14.7652 21.5191C14.9874 21.8153 15.2837 21.8894 15.654 21.7413C16.0984 21.5191 16.2465 21.2228 16.0243 20.7784C15.5059 19.5193 14.9874 18.3343 14.469 17.0752C14.3949 16.927 14.3949 16.853 14.3208 16.7048C14.2468 16.6308 14.2468 16.5567 14.1727 16.4826C14.1727 16.4086 14.0986 16.4086 14.0246 16.3345C14.8393 16.4086 15.2096 16.7048 15.4318 16.853C15.5059 16.927 15.5059 16.927 15.7281 16.853C15.8021 16.853 15.9503 16.853 16.0243 16.853C16.0984 16.927 16.2465 17.0011 16.3206 17.0011C16.6168 17.2233 16.9131 17.4455 17.2094 17.6677C17.3575 17.8158 17.5056 17.9639 17.5056 18.1861C17.5056 18.3343 17.0612 18.7046 16.9872 18.8527C16.6909 19.149 17.1353 19.5934 17.7278 19.5934C17.5797 19.4452 17.5056 19.2971 17.5797 19.149C17.6538 19.149 17.7278 19.149 17.876 19.0749C18.0241 19.0008 17.95 18.6305 18.0241 18.5565C18.2463 18.3343 18.8388 18.3343 19.2832 18.3343C19.4313 18.3343 19.6535 18.2602 19.5795 18.038C19.8016 18.038 19.8757 18.2602 19.8757 18.4083C20.0979 18.2602 20.246 17.7417 19.5054 17.5936C19.6535 17.4455 19.8757 17.4455 20.0238 17.5936C20.172 17.3714 19.8016 17.0011 19.2091 17.2233C19.2091 17.2233 18.9129 16.853 18.1722 17.7417C18.0981 17.6677 17.95 17.5936 17.876 17.5195C17.5797 17.2233 16.839 16.4826 16.839 16.4826C16.839 16.0382 16.765 15.2235 16.2465 14.7791C16.0243 14.5569 15.8021 14.4829 15.2837 14.3347C15.2837 14.3347 15.5059 13.9644 15.5799 13.8163C16.0243 14.2607 16.9131 14.4088 16.9131 13.6682C17.6538 14.4088 18.3203 13.9644 18.3203 13.52C18.3203 13.7422 18.3944 13.9644 18.4685 14.1866C18.5425 14.4088 18.9129 15.3717 19.7276 15.3717C19.7276 15.6679 19.7276 16.7789 20.7645 17.0011C20.8386 17.0011 20.8386 17.0011 20.9126 17.0752C21.357 17.5936 23.0605 18.1121 23.2086 17.9639C23.0605 17.8899 22.8383 17.7417 22.8383 17.1492C22.8383 16.7789 22.7643 14.7051 22.7643 11.8165C22.7643 10.7796 22.6902 7.44667 19.3573 7.00228C18.8388 6.92822 18.3944 7.00228 17.95 7.29855C17.3575 7.74294 17.0612 8.48359 17.4316 9.2983V9.37237C17.5797 9.59457 17.5056 9.7427 17.3575 9.89083C17.0612 10.1871 16.765 10.3352 16.3947 10.4093C16.1725 10.4093 15.9503 10.3352 15.8021 10.1871C15.4318 9.81676 15.2096 9.37237 15.0615 8.85391C14.9133 7.89107 15.1355 7.37261 15.1355 7.29855C15.4318 6.78009 15.9503 6.3357 16.6168 6.3357C16.9131 5.74317 17.8019 5.96537 17.8019 5.96537C18.0241 6.03943 18.0981 6.03944 18.1722 6.18757C18.1722 6.18757 18.5425 5.59505 18.1722 5.37285C17.8019 5.15066 16.9872 5.07659 16.9872 5.07659C16.9872 4.70626 16.3946 4.41 15.2096 4.6322C13.8764 4.8544 13.5802 4.33594 13.5802 4.33594C13.5061 5.00252 14.0246 5.29879 14.1727 5.44692C13.6542 6.03944 12.9136 7.15042 12.7655 8.70579C12.6173 7.15042 11.8767 6.03944 11.3582 5.44692C11.5063 5.37285 12.0248 5.00252 11.9507 4.33594C11.9507 4.33594 11.6545 4.8544 10.3213 4.6322C9.21032 4.41 8.54374 4.70626 8.54374 5.07659C8.54374 5.07659 7.72902 5.15066 7.35869 5.37285C6.98837 5.59505 7.35869 6.18757 7.35869 6.18757C7.43276 6.1135 7.50682 6.03943 7.72902 5.96537C7.72902 5.96537 8.6178 5.74317 8.91406 6.3357C9.58065 6.40976 10.0991 6.78009 10.3954 7.29855C10.3954 7.29855 10.6916 7.817 10.4694 8.85391C10.3954 9.37237 10.0991 9.81676 9.72878 10.1871C9.58065 10.3352 9.35846 10.4833 9.13626 10.4093C8.76593 10.3352 8.46967 10.1871 8.17341 9.89083C8.02528 9.7427 7.95122 9.59457 8.09935 9.37237V9.2983C8.46967 8.48359 8.17341 7.74294 7.58089 7.29855C7.1365 7.00228 6.69211 6.92822 6.17365 7.00228C2.91478 7.44667 2.76666 10.7796 2.76666 11.8165C2.76666 14.7051 2.69259 16.7789 2.69259 17.1492C2.69259 17.7417 2.4704 17.8899 2.32227 17.9639C2.54446 18.1121 4.24796 17.5936 4.61829 17.0752C4.61829 17.0752 4.69235 17.0011 4.76641 17.0011C5.80333 16.7789 5.80333 15.6679 5.80333 15.3717C6.61804 15.3717 6.98837 14.4088 7.06243 14.1866C7.1365 13.9644 7.21057 13.7422 7.21057 13.52C7.21057 13.9644 7.87715 14.3347 8.61781 13.6682C8.61781 14.4088 9.50659 14.2607 9.95098 13.8163C10.025 13.9644 10.2472 14.3347 10.2472 14.3347C9.72878 14.4088 9.50658 14.5569 9.28439 14.7791C8.69187 15.2976 8.69187 16.1123 8.69187 16.4826C8.69187 16.4826 7.95122 17.2233 7.65496 17.5195C7.58089 17.5936 7.43276 17.6677 7.35869 17.7417C6.54398 16.853 6.32178 17.2233 6.32178 17.2233C5.72926 17.0011 5.433 17.3714 5.50707 17.5936C5.6552 17.4455 5.87739 17.5195 6.02552 17.5936C5.21081 17.7417 5.433 18.3343 5.6552 18.4083C5.6552 18.2602 5.72926 18.038 5.95146 18.038C5.95146 18.2602 6.09959 18.3343 6.24772 18.3343C6.61804 18.3343 7.28463 18.3343 7.50683 18.5565C7.65496 18.6305 7.58089 19.0008 7.65496 19.0749C7.72902 19.149 7.87715 19.149 7.95122 19.149C7.95122 19.2971 7.95122 19.3712 7.80308 19.5934C8.39561 19.6674 8.76593 19.149 8.54374 18.8527C8.39561 18.7046 8.02528 18.3343 8.02528 18.1861C8.02528 18.038 8.17341 17.8158 8.32154 17.6677C8.61781 17.4455 8.91406 17.2233 9.21032 17.0011C9.28439 16.927 9.35846 16.853 9.50659 16.853C9.58065 16.7789 9.72878 16.7789 9.80285 16.853C10.025 16.927 10.025 16.927 10.0991 16.853C10.3213 16.7048 10.6916 16.4086 11.5063 16.3345C11.4323 16.3345 11.4323 16.4086 11.3582 16.4826C11.2842 16.5567 11.2842 16.6308 11.2101 16.7048C11.136 16.7789 11.136 16.927 11.062 17.0752C10.5435 18.3343 10.025 19.5193 9.50659 20.7784C9.35846 21.2228 9.50659 21.5191 9.87691 21.7413C10.1732 21.8894 10.5435 21.8153 10.7657 21.5191C10.6916 21.7413 10.6916 21.8894 10.7657 22.0375C10.8398 22.1857 10.9879 22.3338 11.136 22.4078C11.2841 22.4819 11.5063 22.4819 11.6545 22.4819C11.8767 22.4078 11.9507 22.3338 12.0248 22.1116C12.0989 22.4819 12.3211 22.7782 12.7655 22.7782Z" fill="white"/>
<path d="M34.0975 8.92743C34.7641 8.92743 36.2454 8.85336 37.0601 8.7793C37.0601 8.92743 37.0601 9.14962 37.0601 9.22369C37.0601 9.29775 37.0601 9.51995 37.0601 9.66808C36.3194 9.59401 35.1344 9.51995 34.7641 9.51995C34.4678 9.51995 33.505 9.51995 32.9124 9.59401V12.7048H33.579C34.9122 12.7048 37.5785 12.9269 37.5785 15.223C37.5785 17.0746 36.0232 17.8893 34.0234 17.8893C33.8012 17.8893 32.9865 17.8893 32.394 17.8893C32.1718 17.8893 31.8755 17.8893 31.6533 17.8893C31.7274 16.4821 31.7274 14.6304 31.7274 13.0751C31.7274 11.6678 31.7274 9.51995 31.6533 8.85336C32.468 8.85336 33.8012 8.92743 34.0975 8.92743ZM32.9124 17.1487C33.2087 17.1487 33.6531 17.1487 33.9493 17.1487C35.4306 17.1487 36.2454 16.4821 36.2454 15.1489C36.2454 13.7417 35.2085 13.2973 32.8384 13.2973V17.1487H32.9124Z" fill="white"/>
<path d="M38.9853 12.2579C39.5037 11.6654 40.3925 11.3691 41.1331 11.3691C42.4663 11.3691 43.3551 12.0357 43.3551 13.5911V16.7018C43.3551 17.3684 43.5032 17.5166 43.7254 17.5166C43.7995 17.5166 43.9476 17.5165 44.0217 17.4425L44.0957 17.7387C43.7254 17.9609 43.3551 17.9609 43.1329 17.9609C42.6885 17.9609 42.4663 17.7387 42.3922 17.4425L42.3182 17.1462C41.6516 17.6647 40.9109 17.9609 40.3184 17.9609C39.2074 17.9609 38.4668 17.3684 38.4668 16.3315C38.4668 15.2205 39.2815 14.7021 40.4666 14.4799L41.7257 14.2577C42.1701 14.1836 42.3922 14.0355 42.3922 13.7392C42.3922 12.4061 41.7997 12.0357 40.8369 12.0357C40.0962 12.0357 39.5778 12.2579 39.1334 13.0726H38.9853V12.2579ZM42.3922 14.628L41.5775 14.7761C40.6888 14.9243 39.6518 15.2205 39.6518 16.1834C39.6518 16.924 40.0222 17.2944 40.8369 17.2944C41.3553 17.2944 41.7997 17.1462 42.3182 16.5537V14.628H42.3922Z" fill="white"/>
<path d="M45.8736 11.5938C46.0218 11.5938 46.2439 11.5938 46.4661 11.5938C46.3921 12.5566 46.318 14.112 46.318 14.186C46.8365 14.186 47.5771 14.2601 48.0215 14.2601C48.4659 14.2601 49.2066 14.2601 49.5769 14.186C49.5769 14.112 49.5769 12.5566 49.5028 11.5938C49.725 11.5938 50.0213 11.5938 50.1694 11.5938C50.3175 11.5938 50.5397 11.5938 50.7619 11.5938C50.6879 12.5566 50.6138 14.112 50.6138 14.7785C50.6138 15.297 50.6138 17.0005 50.7619 17.9634C50.5397 17.9634 50.3916 17.9634 50.1694 17.9634C49.9472 17.9634 49.725 17.9634 49.5028 17.9634C49.5769 17.0005 49.5769 15.297 49.5769 14.9267C49.0584 14.8526 48.2437 14.8526 48.0215 14.8526C47.6512 14.8526 46.8365 14.8526 46.318 14.9267C46.318 15.3711 46.318 17.0005 46.4661 17.9634C46.2439 17.9634 46.0958 17.9634 45.8736 17.9634C45.6514 17.9634 45.4292 17.9634 45.207 17.9634C45.2811 17.0005 45.3552 15.297 45.3552 14.7785C45.3552 14.112 45.3552 12.5566 45.207 11.5938C45.4292 11.5938 45.7255 11.5938 45.8736 11.5938Z" fill="white"/>
<path d="M53.0562 11.5956C53.2044 11.5956 53.4266 11.5956 53.6488 11.5956C53.5747 12.5584 53.5747 14.1138 53.5747 14.336H53.7969C54.2413 14.336 56.3151 11.9659 56.5373 11.5956C56.6854 11.5956 56.9817 11.5956 57.1298 11.5956C57.278 11.5956 57.5742 11.5956 57.7224 11.5956L54.7597 14.2619C55.1301 14.7063 57.1298 16.9282 58.0186 17.8911C57.6483 17.8911 57.4261 17.8911 57.278 17.8911C57.0558 17.8911 56.6854 17.8911 56.4632 17.8911C56.0188 17.1504 54.6116 15.521 53.7969 14.6322H53.5747C53.5747 15.0766 53.5747 16.9282 53.6488 17.8911C53.5006 17.8911 53.2784 17.8911 53.0562 17.8911C52.834 17.8911 52.6118 17.8911 52.3896 17.8911C52.4637 16.9282 52.5378 15.2247 52.5378 14.7063C52.5378 14.0397 52.5378 12.4843 52.3896 11.5215C52.6118 11.5955 52.834 11.5956 53.0562 11.5956Z" fill="white"/>
<path d="M63.4269 8.85336C63.8713 8.85336 64.3898 8.7793 64.7601 8.7793C67.0561 8.7793 67.9449 9.44588 67.9449 11.0753C67.9449 13.0751 66.2414 13.7417 64.1676 13.7417C64.0194 13.7417 63.5751 13.7417 63.3529 13.6676V15.8155C63.3529 16.408 63.3529 17.2227 63.4269 17.8152C63.2047 17.8152 62.9825 17.8152 62.7603 17.8152C62.5381 17.8152 62.2419 17.8152 62.0938 17.8152C62.1678 16.408 62.1678 14.5564 62.1678 13.001C62.1678 11.5938 62.1678 9.44588 62.0938 8.7793C62.6122 8.7793 63.1307 8.85336 63.4269 8.85336ZM63.9454 13.0751C65.7229 13.0751 66.6858 12.4085 66.6858 11.0753C66.6858 9.81621 65.7229 9.51995 64.4638 9.51995C64.2416 9.51995 63.501 9.51995 63.3529 9.51995V13.001C63.5751 13.0751 63.7972 13.0751 63.9454 13.0751Z" fill="white"/>
<path d="M74.4645 14.7042C74.4645 16.6299 73.2054 18.0371 71.2797 18.0371C69.354 18.0371 68.1689 16.6299 68.1689 14.8523C68.1689 12.7785 69.5021 11.4453 71.4278 11.4453C73.2795 11.4453 74.4645 12.7785 74.4645 14.7042ZM69.354 14.7782C69.354 16.1855 69.9465 17.5187 71.2797 17.5187C72.5388 17.5187 73.2795 16.2596 73.2795 14.6301C73.2795 13.2969 72.761 11.8897 71.3538 11.8897C70.0206 11.8897 69.354 13.2969 69.354 14.7782Z" fill="white"/>
<path d="M80.5373 12.9287H80.3891C79.9447 12.1881 79.3522 11.9659 78.6856 11.9659C77.2043 11.9659 76.5377 13.3731 76.5377 14.7804C76.5377 16.3357 77.4265 17.5948 78.9819 17.5948C79.5003 17.5948 79.9447 17.5208 80.6854 16.706L80.8335 16.8542L80.6854 17.4467C80.0929 17.817 79.4263 18.0392 78.6116 18.0392C76.6859 18.0392 75.4268 16.706 75.4268 14.7804C75.4268 12.7806 76.834 11.5215 78.8338 11.5215C79.5003 11.5215 80.1669 11.6696 80.9816 12.0399L80.5373 12.9287Z" fill="white"/>
<path d="M86.9053 12.9287H86.7571C86.3127 12.1881 85.7202 11.9659 85.0536 11.9659C83.5723 11.9659 82.9058 13.3731 82.9058 14.7804C82.9058 16.3357 83.7945 17.5948 85.3499 17.5948C85.8683 17.5948 86.3127 17.5208 87.0534 16.706L87.1275 16.8542L86.9793 17.4467C86.3868 17.817 85.7202 18.0392 84.9055 18.0392C82.9798 18.0392 81.7207 16.706 81.7207 14.7804C81.7207 12.7806 83.1279 11.5215 85.1277 11.5215C85.7943 11.5215 86.4609 11.6696 87.2756 12.0399L86.9053 12.9287Z" fill="white"/>
<path d="M88.758 17.8149C88.684 17.8149 88.4618 17.8149 88.3877 17.8149C88.4618 16.8521 88.5358 15.1486 88.5358 14.6301C88.5358 13.9635 88.5358 12.4082 88.3877 11.4453C88.6099 11.4453 88.9061 11.4453 89.0543 11.4453C89.2024 11.4453 89.4246 11.4453 89.6468 11.4453C89.5727 12.4082 89.4987 13.9635 89.4987 14.6301C89.4987 15.1486 89.4987 15.8892 89.4987 16.2596C90.1653 15.4448 92.6094 12.3341 93.2019 11.5194C93.3501 11.5194 93.4241 11.5194 93.5723 11.5194C93.6463 11.5194 93.9426 11.5194 94.0167 11.5194C93.9426 12.4822 93.8685 14.0376 93.8685 14.7042C93.8685 15.2226 93.8685 16.9261 94.0167 17.889C93.7945 17.889 93.6463 17.889 93.4241 17.889C93.2019 17.889 92.9797 17.889 92.7575 17.889C92.8316 16.9261 92.9057 15.2226 92.9057 14.7042C92.9057 14.0376 92.9057 13.2229 92.9057 13.0007C92.091 13.8895 89.7949 16.778 89.1283 17.889C88.9802 17.8149 88.8321 17.8149 88.758 17.8149Z" fill="white"/>
<path d="M95.7942 17.8149C95.7201 17.8149 95.4979 17.8149 95.4238 17.8149C95.4979 16.8521 95.4979 15.1486 95.4979 14.6301C95.4979 13.9635 95.4979 12.4082 95.4238 11.4453C95.646 11.4453 95.9423 11.4453 96.0904 11.4453C96.2385 11.4453 96.4607 11.4453 96.6829 11.4453C96.5348 12.4822 96.5348 14.0376 96.5348 14.7042C96.5348 15.2226 96.5348 15.9633 96.5348 16.3336C97.2014 15.5189 99.6455 12.4082 100.238 11.5934C100.386 11.5934 100.46 11.5934 100.608 11.5934C100.682 11.5934 100.979 11.5934 101.053 11.5934C100.979 12.4822 100.979 14.0376 100.979 14.7042C100.979 15.2226 100.979 16.9261 101.053 17.889C100.831 17.889 100.682 17.889 100.46 17.889C100.238 17.889 100.016 17.889 99.7937 17.889C99.8677 16.9261 99.8677 15.2226 99.8677 14.7042C99.8677 14.0376 99.8677 13.2229 99.8677 13.0007C99.053 13.8895 96.757 16.778 96.0904 17.889C96.0163 17.8149 95.9423 17.8149 95.7942 17.8149Z" fill="white"/>
</svg>
