<svg width="102" height="23" viewBox="0 0 102 23" fill="none" xmlns="http://www.w3.org/2000/svg">
<g clip-path="url(#clip0_0_908)">
<path d="M0.00394154 11.448C0.00394154 17.3809 4.81267 22.2125 10.712 22.2125C16.6114 22.2125 21.4201 17.3809 21.4201 11.448C21.4201 5.51519 16.6213 0.683594 10.712 0.683594C4.80275 0.683594 0.00394154 5.51519 0.00394154 11.448ZM0.370793 11.448C0.370793 5.71362 5.01097 1.05068 10.712 1.05068C16.4131 1.05068 21.0533 5.71362 21.0533 11.448C21.0533 17.1825 16.423 21.8454 10.712 21.8454C5.00105 21.8454 0.370793 17.1825 0.370793 11.448ZM3.34526 8.50146C6.08177 6.69581 9.10582 5.64417 14.2417 6.53707C14.5293 6.36841 14.678 6.21959 14.7573 5.88228C13.4783 5.41598 12.0902 5.25724 10.2857 5.28701C8.66956 5.33661 5.7645 5.93188 4.20786 6.85455L4.68377 6.25928C5.77441 5.62433 8.60016 4.77111 10.712 4.7215C12.2092 4.69174 12.9825 4.78103 14.7573 5.25724C14.5987 4.94969 14.2318 4.80087 13.6964 4.55284C11.9712 3.77899 8.7588 3.70954 6.13135 4.87032C6.47837 4.63221 6.83531 4.42387 7.21207 4.24529C8.08458 3.84844 9.50241 3.46152 11.2772 3.49128C12.695 3.51112 14.3805 4.00718 15.4117 5.03898C15.5604 5.20764 15.6695 5.41598 15.729 5.63425C16.542 6.05094 17.0179 6.43786 17.2856 6.90415C17.4046 7.15218 17.4343 7.42005 17.3947 7.68792C17.6624 7.83674 17.8904 8.04509 18.0689 8.29311C18.1879 8.4717 18.2672 8.67012 18.3068 8.88838C18.3465 9.14633 18.3663 9.43405 18.0986 9.77137C18.3762 9.91026 18.5944 10.2972 18.634 10.4658C18.7629 11.081 18.3663 11.6861 17.8408 12.1524C17.2459 12.6783 15.9174 13.3132 14.8366 13.591C12.695 14.1367 10.8013 14.3649 9.2942 14.6427C10.3055 14.9006 11.3466 15.0296 12.3877 15.0296C15.5902 15.0296 18.4159 13.5116 18.4159 13.5116C18.4159 13.5116 18.3564 13.7101 18.287 13.8886C16.2545 15.1189 13.0222 15.6447 11.644 15.5852C10.3749 15.5356 9.11573 15.3272 7.90612 14.9502C7.54918 15.0395 7.20216 15.1585 6.86505 15.3074C8.61999 16.111 9.94859 16.2896 11.4556 16.3987C12.9825 16.5078 15.5208 16.1407 17.6624 15.357C17.5632 15.4562 17.5137 15.6149 17.4145 15.7042C16.314 16.2796 14.0038 16.865 12.8338 16.9146C11.6639 16.9642 10.2559 16.9146 9.03641 16.6864C7.97552 16.4781 7.11292 16.1407 6.21067 15.7439C6.06194 15.853 5.9628 16.0118 5.93305 16.2003C9.45284 18.0555 12.7644 18.0952 16.5222 16.9146L16.1751 17.2519C12.0406 18.9385 8.80837 18.2837 6.2999 17.0634C6.21067 17.0237 6.13135 16.984 6.04212 16.9444C6.27016 17.3511 8.18373 18.75 10.3254 18.9286C11.8027 19.0476 13.5973 18.7996 14.6681 18.373L14.0434 18.7004C12.8537 19.256 11.5449 19.504 10.246 19.4048C7.6979 19.2361 6.26024 18.0952 5.61577 17.4999C5.31833 17.2221 5.17952 16.8948 5.09028 16.5078C4.51522 16.2003 4.14837 15.8927 3.85092 15.4165C3.67245 15.1387 3.71211 14.8312 3.75177 14.5732C3.76169 14.4938 3.78152 14.4145 3.82118 14.345C3.54356 14.1466 3.26594 13.9283 3.14696 13.7101C2.89909 13.2537 3.04782 12.8568 3.22628 12.5592C3.07756 12.4104 2.95858 12.2318 2.86935 12.0334C2.80986 11.825 2.79003 11.6167 2.80986 11.3984C2.87926 11.0115 3.05773 10.6444 3.32543 10.3567C3.87075 9.71184 4.74326 9.20586 6.25033 8.7098C7.71773 8.22367 8.31263 8.1443 9.41318 7.88635C10.7021 7.58871 12.2588 7.4895 13.5477 7.03313C9.93867 6.39818 6.19084 6.9736 3.12713 9.08681L3.34526 8.50146ZM15.6298 6.25928C15.5902 6.43786 15.3919 6.6462 15.263 6.7851C15.6596 6.89423 16.0462 7.03313 16.4329 7.18195C16.3933 6.83471 15.9868 6.48747 15.6298 6.25928ZM4.51522 13.5116C4.31692 13.4025 4.11862 13.2835 3.93024 13.1545C3.82118 13.3827 4.01948 13.6406 4.2376 13.7597C4.31692 13.6704 4.42599 13.591 4.51522 13.5116ZM16.6808 8.76933C16.9287 8.87846 17.1765 9.00744 17.4046 9.15626C17.5731 8.83878 17.4641 8.64036 17.127 8.35264C16.9981 8.50146 16.8494 8.64036 16.6808 8.76933ZM15.9074 9.24555C15.3819 9.49357 14.6284 9.7416 13.5378 10.0194C12.6554 10.2377 10.484 10.5551 8.1639 11.0611C7.42029 11.2199 5.43731 11.6961 4.45573 12.5294C4.73335 12.7477 4.9019 12.8072 5.19935 12.9759C5.60586 12.7179 6.15118 12.4699 6.97412 12.2517C8.40186 11.8747 9.46276 11.706 10.7517 11.4976C12.0406 11.2893 14.4202 10.7932 15.7488 10.317C16.1553 10.1781 16.5321 9.97971 16.8791 9.72176C16.7998 9.62255 15.9471 9.20586 15.9074 9.24555ZM5.86365 14.8312C6.09169 14.7022 6.31973 14.5831 6.5676 14.4938C6.19084 14.3351 5.81407 14.1664 5.42739 13.9879C5.26875 14.0871 5.11011 14.2061 4.97131 14.3351C5.26875 14.5038 5.5662 14.6724 5.86365 14.8312ZM4.64411 14.9502C4.6342 15.1883 4.78292 15.4066 5.1002 15.6645C5.13986 15.5356 5.20926 15.4165 5.28858 15.3173C5.07045 15.1982 4.85233 15.0792 4.64411 14.9502ZM6.43871 10.5155C9.05624 9.7416 11.7928 9.5035 14.5689 8.76933C13.4882 8.4717 12.8933 8.35264 11.7432 8.48162C10.0279 8.68996 8.33246 9.02728 6.67667 9.51342C6.06194 9.70192 2.82969 10.6246 3.76169 11.9143C3.76169 11.9243 4.31692 11.1405 6.43871 10.5155ZM16.2445 7.82682C15.7488 7.60856 15.2431 7.42998 14.7177 7.29108C14.4301 7.51927 14.1029 7.70777 13.746 7.83674C14.45 7.96572 14.9754 8.15422 15.5703 8.3328C15.6893 8.39233 16.1652 7.93595 16.2445 7.82682ZM17.5335 10.3567C17.4542 10.4262 17.3649 10.4956 17.2658 10.5651C16.6709 11.0214 15.7389 11.3885 14.44 11.7358C11.7531 12.46 9.79986 12.5691 7.57892 13.1148C7.13275 13.2239 6.6965 13.3628 6.28007 13.5414C6.6965 13.7497 7.14267 13.9482 7.59875 14.1268C8.46135 13.8688 9.34378 13.6605 10.2361 13.5216C10.7319 13.4323 12.2687 13.1644 13.3692 12.9263C15.382 12.4997 18.3068 11.5671 17.5335 10.3567Z" fill="white"/>
<path d="M31.6826 16.1519H33.8936L34.1613 14.5248H35.6783L35.946 16.1519H38.157L36.293 6.72679H33.5565L31.6826 16.1519ZM34.9149 9.57416L35.3214 12.4513H34.5084L34.9149 9.57416ZM40.2293 10.4869C40.5763 10.4869 41.2307 10.2587 41.2307 9.56424C41.2307 8.74078 40.487 8.69117 40.2689 8.69117C39.8525 8.69117 39.446 8.78047 39.0692 8.95905L39.0494 6.92521C39.6641 6.75655 40.3086 6.67718 40.9431 6.67718C42.7179 6.67718 43.521 7.92725 43.521 9.14755C43.521 10.3381 42.827 11.0623 42.1726 11.3401V11.4294C42.8071 11.6278 43.6598 12.2429 43.6598 13.6914C43.6598 15.4673 42.4205 16.4495 40.844 16.4495C39.9913 16.4495 39.446 16.3205 38.7817 15.9634L38.8213 14.0089C39.2774 14.2173 39.7633 14.3065 40.259 14.2966C40.953 14.2966 41.2406 13.7807 41.2406 13.4037C41.2406 12.8779 40.9035 12.5207 40.1599 12.5207H39.2675V10.4869H40.2293ZM44.7009 6.72679H50.6399V16.1519H48.4685V8.99873H46.8822V16.1519H44.7108V6.72679H44.7009ZM51.8694 16.1519H54.0506V13.0466H54.7843C56.9458 13.0466 57.6002 11.102 57.6002 9.86187C57.6002 8.62173 56.8367 6.72679 54.7744 6.72679H51.8694V16.1519ZM54.0506 8.80031H54.5662C55.062 8.80031 55.3693 9.09794 55.3693 9.88171C55.3693 10.9036 54.8438 10.973 54.5662 10.973H54.0407L54.0506 8.80031ZM61.6355 16.2709C64.2134 16.2709 65.0859 13.8502 65.0859 11.4294C65.0859 9.00865 64.2134 6.58789 61.6355 6.58789C59.0577 6.58789 58.1851 9.00865 58.1851 11.4294C58.1851 13.8502 59.0577 16.2709 61.6355 16.2709ZM61.6355 13.9891C60.8721 13.9891 60.4755 13.0862 60.4755 11.4294C60.4755 9.77258 60.8721 8.86976 61.6355 8.86976C62.399 8.86976 62.7956 9.77258 62.7956 11.4294C62.7956 13.0862 62.399 13.9891 61.6355 13.9891ZM27.4688 6.73671H31.9305V9.08802H29.6897V16.1618H27.4688V6.73671ZM66.1171 6.73671H67.9612L69.5972 8.95905L71.2431 6.73671H73.0872V16.1618H70.9159V10.4075L69.6071 12.0544L68.2983 10.4075V16.1618H66.127L66.1171 6.73671Z" fill="white"/>
<path d="M74.5518 16.1497H77.1495C77.7146 16.1497 80.0645 15.9116 80.0744 13.0642C80.0744 10.6534 78.2501 10.2367 77.0702 10.2367H76.6835V8.98663H79.5588V6.72461H74.5518V16.1497ZM76.6835 14.2647V12.1217H77.0008C77.2586 12.1217 77.9427 12.1316 77.9427 13.1039C77.9427 14.096 77.2586 14.2647 77.0008 14.2647H76.6835ZM87.8973 6.72461H90.029V10.1176H91.5459V6.72461H93.6776V16.1497H91.5459V12.3797H90.029V16.1497H87.8973V6.72461ZM95.1054 6.72461H97.2371V10.1176H97.7031L98.9226 6.72461H101.233L99.5671 11.199L101.461 16.1497H98.9623L97.7427 12.3598H97.2371V16.1497H95.1153L95.1054 6.72461ZM80.4908 16.1695H82.7018L82.9695 14.5425H84.4865L84.7542 16.1695H86.9652L85.1012 6.74445H82.3548L80.4908 16.1695ZM83.733 9.59182L84.1494 12.469H83.3265L83.733 9.59182Z" fill="white"/>
</g>
<defs>
<clipPath id="clip0_0_908">
<rect width="101.459" height="21.5388" fill="white" transform="translate(0 0.683594)"/>
</clipPath>
</defs>
</svg>
