<svg width="180" height="39" viewBox="0 0 180 39" fill="none" xmlns="http://www.w3.org/2000/svg">
<g clip-path="url(#clip0_0_1017)">
<path fill-rule="evenodd" clip-rule="evenodd" d="M0 19.2418C0 29.7282 8.50922 38.2375 18.9957 38.2375C29.4821 38.2375 37.9914 29.7282 37.9914 19.2418C37.9914 8.75531 29.4821 0.246094 18.9957 0.246094C8.50922 0.246094 0 8.75531 0 19.2418ZM0.670851 19.2418C0.670851 9.10839 8.89761 0.881637 19.031 0.881637C29.1644 0.881637 37.3911 9.10839 37.3911 19.2418C37.3911 29.3399 29.1644 37.5666 19.031 37.5666C8.89761 37.6019 0.670851 29.3752 0.670851 19.2418Z" fill="#476BF0"/>
<path fill-rule="evenodd" clip-rule="evenodd" d="M5.93073 14.0511C10.8032 10.8734 16.17 9.00209 25.2795 10.591C25.7738 10.3085 26.0563 10.026 26.1975 9.42579C23.9378 8.61371 21.4662 8.33124 18.2885 8.36655C15.4286 8.43717 10.2736 9.49641 7.51958 11.1206L8.36698 10.0613C10.3089 8.93148 15.3226 7.44854 19.0653 7.34262C21.7134 7.30731 23.0904 7.44854 26.2328 8.29594C25.9503 7.76632 25.3148 7.48385 24.3615 7.06016C21.325 5.68315 15.6051 5.57722 10.9445 7.62508C11.5447 7.2367 12.1096 6.88362 12.8864 6.53054C14.4399 5.82438 16.9468 5.15353 20.0892 5.18883C22.5961 5.22414 25.5973 6.10684 27.4333 7.90755C27.751 8.26063 27.9276 8.64902 27.9982 8.96679C29.4458 9.70825 30.2932 10.3791 30.7522 11.1912C30.9288 11.6149 31.0347 12.0739 30.9288 12.5682C31.529 12.9213 31.8115 13.2391 32.1292 13.6274C32.3411 13.9452 32.5176 14.3336 32.5529 14.6867C32.6235 15.1457 32.6589 15.64 32.1999 16.2402C32.6942 16.4874 33.0826 17.1582 33.1532 17.476C33.365 18.5706 32.6942 19.6298 31.7408 20.4772C30.6816 21.4305 28.316 22.525 26.4093 23.0194C22.5961 23.9727 19.2418 24.3964 16.5584 24.8907C17.7589 25.1731 19.3831 25.5615 22.0665 25.5615C27.751 25.5615 32.7648 22.8781 32.7648 22.8781C32.7648 22.8781 32.6589 23.2312 32.5529 23.549C28.9515 25.7381 23.1963 26.6561 20.7601 26.5502C18.2532 26.4442 16.17 26.0558 14.1222 25.4203C13.4866 25.5968 12.8864 25.7734 12.2862 26.0558C15.3933 27.4682 17.7589 27.7859 20.4423 27.9978C23.161 28.2096 27.6451 27.5388 31.4584 26.1618C31.2818 26.3383 31.2112 26.6208 31.0347 26.762C29.0928 27.7859 24.9617 28.8099 22.9139 28.8805C20.866 28.9511 18.3591 28.8805 16.17 28.4921C14.2987 28.139 12.7452 27.5388 11.1563 26.8326C10.8738 27.0445 10.7326 27.3269 10.662 27.6447C16.7703 30.893 22.6314 30.9636 29.3046 28.8805L28.7044 29.4807C21.3603 32.4466 15.6404 31.2814 11.1916 29.1629C11.0504 29.0923 10.8738 29.0217 10.7326 28.9511C11.1563 29.6573 14.5459 32.1288 18.3238 32.4466C20.9366 32.6584 24.1143 32.1994 26.021 31.458L24.8911 32.0229C23.9731 32.4819 21.5368 33.5058 18.1473 33.2587C13.6279 32.9409 11.0857 30.9636 9.92053 29.9044C9.39091 29.4101 9.14375 28.8452 8.96721 28.139C7.94328 27.6094 7.30774 27.0445 6.77812 26.2324C6.46035 25.7381 6.53096 25.2085 6.60158 24.7494L6.7075 24.3257C6.21319 23.9727 5.71888 23.5843 5.50703 23.1959C5.04803 22.3838 5.33049 21.713 5.64826 21.148C5.3658 20.8303 5.11864 20.5478 5.01272 20.23C4.9068 19.8416 4.87149 19.4886 4.9068 19.1002C4.97741 18.4293 5.3658 17.7938 5.8248 17.2642C6.81343 16.1343 8.36698 15.2516 11.0504 14.3689C13.6632 13.5215 14.6871 13.3803 16.6643 12.9213C18.9594 12.3917 21.7134 12.2151 24.0084 11.403C17.6177 10.2732 10.9445 11.2971 5.54234 15.0398L5.93073 14.0511ZM27.7157 10.0966C27.6451 10.4144 27.292 10.7675 27.0802 11.0146C27.7864 11.1912 28.4925 11.4383 29.1634 11.7208C29.0574 11.0853 28.3513 10.485 27.7157 10.0966ZM8.0139 22.8781C7.5902 22.631 7.30774 22.4897 6.98996 22.2426C6.81343 22.631 7.1665 23.09 7.51958 23.3018C7.66082 23.1606 7.83736 23.0194 8.0139 22.8781ZM29.5871 14.5101C30.0461 14.722 30.4698 14.8985 30.8581 15.181C31.1406 14.6161 30.9641 14.263 30.3638 13.7687C30.152 14.0511 29.8695 14.2983 29.5871 14.5101ZM28.2101 15.3575C27.292 15.7812 25.915 16.2402 24.0084 16.7345C22.4549 17.1229 18.6063 17.6879 14.4753 18.5706C13.1689 18.853 9.63806 19.7004 7.90797 21.148C8.40228 21.5364 8.68475 21.6423 9.24968 21.9248C9.95583 21.4658 10.9445 21.0421 12.3921 20.6537C14.9343 19.9829 16.8056 19.7004 19.1006 19.312C21.3603 18.9589 25.5973 18.0762 27.9629 17.2288C28.7397 16.9464 29.4458 16.5933 29.9754 16.1696C29.7989 16.0284 28.2807 15.2869 28.2101 15.3575ZM10.4148 25.2084C10.7679 24.9966 11.1916 24.7848 11.6506 24.6082C10.9798 24.3258 10.3089 24.0433 9.63806 23.7255C9.32029 23.9021 9.03783 24.1139 8.82598 24.3257C9.3556 24.6082 9.84991 24.926 10.4148 25.2084ZM8.22574 25.4203C8.22574 25.844 8.4729 26.2324 9.03783 26.6914C9.10844 26.4442 9.21437 26.303 9.39091 26.0911C8.96721 25.8793 8.61413 25.6321 8.22574 25.4203ZM11.4388 17.5819C16.0641 16.2402 20.9366 15.8165 25.8797 14.5101C23.9378 13.9805 22.9139 13.7687 20.866 14.0158C17.9001 14.3689 14.6518 15.0044 11.8625 15.8165C10.7679 16.1343 5.01272 17.7585 6.67219 20.0535C6.67219 20.0888 7.66082 18.7118 11.4388 17.5819ZM28.8103 12.8507C28.0688 12.4976 27.1155 12.1798 26.0916 11.8973C25.6326 12.2504 25.1383 12.5682 24.3615 12.8507C25.5973 13.0625 26.5506 13.4156 27.6098 13.7334C27.8217 13.8393 28.6691 13.0272 28.8103 12.8507ZM31.1053 17.2995C30.9641 17.4054 30.8228 17.5466 30.6463 17.6525C29.5871 18.4646 27.9276 19.1002 25.6326 19.7357C20.866 21.0068 17.4058 21.2186 13.4513 22.172C12.6745 22.3485 11.8978 22.631 11.1563 22.9134C11.8978 23.3018 12.6745 23.6196 13.4866 23.9374C15.0755 23.4784 15.8523 23.2665 18.1826 22.8781C19.0653 22.7369 21.784 22.2426 23.7612 21.8189C27.292 21.1127 32.4823 19.4533 31.1053 17.2995Z" fill="#476BF0"/>
<path fill-rule="evenodd" clip-rule="evenodd" d="M56.1748 27.5051H60.094L60.553 24.6451H63.2364L63.6954 27.5051H67.6146L64.2956 10.875H59.4231L56.1748 27.5051ZM61.93 15.8887L62.6715 20.9731H61.2238L61.93 15.8887Z" fill="#476BF0"/>
<path fill-rule="evenodd" clip-rule="evenodd" d="M71.3565 17.3356C71.992 17.3356 73.1219 16.9472 73.1219 15.7115C73.1219 14.2638 71.7802 14.1579 71.4271 14.1579C70.9681 14.1579 70.156 14.2285 69.3086 14.6169L69.2733 11.0155C70.5797 10.6977 71.533 10.5918 72.6276 10.5918C75.77 10.5918 77.2176 12.8162 77.2176 14.97C77.2176 17.0885 75.9818 18.3595 74.8167 18.8539V19.0304C75.9465 19.3835 77.4648 20.478 77.4648 23.0202C77.4648 26.1626 75.2757 27.8927 72.4863 27.8927C70.9681 27.8927 70.0148 27.6808 68.8496 27.0453L68.9202 23.5851C70.0148 24.0441 70.7562 24.0794 71.4977 24.0794C72.7335 24.0794 73.2278 23.1614 73.2278 22.4906C73.2278 21.5726 72.6276 20.937 71.3212 20.937H69.7323V17.3356H71.3565Z" fill="#476BF0"/>
<path fill-rule="evenodd" clip-rule="evenodd" d="M89.8237 27.5051H85.9398V14.8648H83.1505V27.5051H79.2666V10.875H89.8237V27.5051Z" fill="#476BF0"/>
<path fill-rule="evenodd" clip-rule="evenodd" d="M92.0107 27.5051H95.8593V22.0323H97.1657C100.979 22.0323 102.179 18.6074 102.179 16.4184C102.179 14.2646 100.838 10.875 97.1657 10.875H92.0107V27.5051ZM95.8593 14.547H96.7773C97.66 14.547 98.1896 15.0766 98.1896 16.4537C98.1896 18.2544 97.2716 18.3603 96.7773 18.3603H95.8593V14.547Z" fill="#476BF0"/>
<path fill-rule="evenodd" clip-rule="evenodd" d="M109.313 27.716C113.903 27.716 115.422 23.4437 115.422 19.1715C115.422 14.8992 113.868 10.627 109.313 10.627C104.723 10.627 103.205 14.8992 103.205 19.1715C103.205 23.4437 104.759 27.716 109.313 27.716ZM109.313 23.6909C107.972 23.6909 107.265 22.102 107.265 19.1715C107.265 16.2409 107.972 14.6521 109.313 14.6521C110.69 14.6521 111.361 16.2409 111.361 19.1715C111.397 22.102 110.69 23.6909 109.313 23.6909Z" fill="#476BF0"/>
<path fill-rule="evenodd" clip-rule="evenodd" d="M132.228 27.5051H136.853C137.842 27.5051 142.008 27.0814 142.043 22.0676C142.043 17.8307 138.795 17.0892 136.712 17.0892H136.041V14.9001H141.16V10.875H132.263V27.5051H132.228ZM136.041 24.1861V20.4081H136.606C137.065 20.4081 138.265 20.4435 138.265 22.1382C138.265 23.9036 137.029 24.1861 136.606 24.1861H136.041Z" fill="#476BF0"/>
<path fill-rule="evenodd" clip-rule="evenodd" d="M166.158 27.5051H162.416V20.8672H159.697V27.5051H155.919V10.875H159.697V16.8774H162.416V10.875H166.158V27.5051Z" fill="#476BF0"/>
<path fill-rule="evenodd" clip-rule="evenodd" d="M179.577 10.875L176.611 18.784L180.001 27.5051H175.552L173.398 20.8318H172.48V27.5051H168.702V10.875H172.48V16.8774H173.292L175.481 10.875H179.577Z" fill="#476BF0"/>
<path fill-rule="evenodd" clip-rule="evenodd" d="M48.7246 10.875H56.6336V15.0413H52.6438V27.5051H48.7246V10.875Z" fill="#476BF0"/>
<path fill-rule="evenodd" clip-rule="evenodd" d="M125.802 27.5051V17.3717L123.472 20.2669L121.142 17.3717V27.5051H117.293V10.875H120.577L123.472 14.7942L126.367 10.875H129.651V27.5051H125.802Z" fill="#476BF0"/>
<path fill-rule="evenodd" clip-rule="evenodd" d="M142.786 27.5402H146.705L147.164 24.6803H149.848L150.342 27.5402H154.261L150.942 10.9102H146.07L142.786 27.5402ZM148.541 15.9239L149.283 21.0082H147.835L148.541 15.9239Z" fill="#476BF0"/>
</g>
<defs>
<clipPath id="clip0_0_1017">
<rect width="180" height="37.9914" fill="white" transform="translate(0 0.246094)"/>
</clipPath>
</defs>
</svg>
