<svg width="75" height="23" viewBox="0 0 75 23" fill="none" xmlns="http://www.w3.org/2000/svg">
<g clip-path="url(#clip0_0_914)">
<path d="M63.8722 14.1892L64.5207 14.2768C64.3734 14.9924 63.769 15.3721 63.0763 15.3721C62.0003 15.3721 61.4844 14.6127 61.4844 13.6196C61.4844 12.6266 62.0298 11.8818 63.1058 11.8818C63.769 11.8818 64.2554 12.203 64.4913 12.8018L63.8722 13.0647C63.7248 12.7142 63.4742 12.4659 63.0763 12.4659C62.3835 12.4659 62.1477 13.0209 62.1477 13.6196C62.1477 14.2476 62.413 14.7879 63.1058 14.7879C63.5185 14.8026 63.769 14.5835 63.8722 14.1892ZM41.2324 19.2422H42.0578C42.382 19.2422 42.6179 19.0815 42.6179 18.7602C42.6179 18.4389 42.382 18.2929 42.0578 18.2929H41.2324V19.2422ZM40.5986 19.8263V16.4528H43.0748V17.037H41.2324V17.7087H42.161C42.839 17.7087 43.2517 18.0154 43.2517 18.731C43.2517 19.4174 42.839 19.8263 42.161 19.8263H40.5986ZM43.6349 19.8263V16.4528H44.2834V19.2422H44.3866L45.2415 16.4528H46.4354V19.8263H45.7869V17.037H45.6984L44.8583 19.8263H43.6349ZM47.6735 18.1615H48.4547C48.7937 18.1615 49.0148 17.8986 49.0148 17.5773C49.0148 17.2414 48.8085 17.0224 48.4547 17.0224H47.6735V18.1615ZM47.0397 19.8263V16.4528H48.4547C49.1622 16.4528 49.6486 16.8617 49.6486 17.5773C49.6486 18.2929 49.1622 18.7164 48.4547 18.7164H47.6735V19.8117H47.0397V19.8263ZM49.6634 19.8263L50.7246 18.0446L49.6928 16.4528H50.4593L51.2257 17.7818H51.491V16.4528H52.1396V17.7818H52.4049L53.1713 16.4528H53.9378L52.906 18.0446L53.9673 19.8263H53.2156L52.4049 18.3513H52.1396V19.8263H51.491V18.3513H51.2257L50.4151 19.8263H49.6634ZM55.1907 18.3805H56.1782L55.7655 17.0224H55.6328L55.1907 18.3805ZM54.0999 19.8263L55.2349 16.4528H56.1782L57.3131 19.8263H56.6351L56.3551 18.9793H54.999L54.719 19.8263H54.0999ZM40.5838 15.3283V11.9548H41.7925L42.3821 14.7441H42.4705L43.0158 11.9548H44.2245V15.3283H43.576V12.5243H43.4875L42.9716 15.3137H41.8957L41.3208 12.5243H41.2324V15.3137H40.5838V15.3283ZM46.3322 14.8026C47.0397 14.8026 47.3345 14.2622 47.3345 13.6342C47.3345 12.9771 46.9955 12.4805 46.288 12.4805C45.5805 12.4805 45.3005 13.0209 45.3005 13.6342C45.3005 14.2622 45.6247 14.8026 46.3322 14.8026ZM46.3175 15.3867C45.2563 15.3867 44.6372 14.6273 44.6372 13.6342C44.6372 12.6412 45.2563 11.8964 46.3175 11.8964C47.3787 11.8964 47.9978 12.6412 47.9978 13.6342C47.9978 14.6273 47.3787 15.3867 46.3175 15.3867ZM50.7246 14.1892L51.3731 14.2768C51.2257 14.9924 50.6214 15.3721 49.9287 15.3721C48.8527 15.3721 48.3368 14.6127 48.3368 13.6196C48.3368 12.6266 48.8822 11.8818 49.9581 11.8818C50.6214 11.8818 51.1078 12.203 51.3437 12.8018L50.7246 13.0647C50.5772 12.7142 50.3266 12.4659 49.9287 12.4659C49.2359 12.4659 49.0001 13.0209 49.0001 13.6196C49.0001 14.2476 49.2654 14.7879 49.9581 14.7879C50.3708 14.8026 50.6214 14.5835 50.7246 14.1892ZM51.8595 15.3283V11.9548H52.5081V13.2691H52.8471L53.8936 11.9548H54.6748L53.3924 13.5028L54.719 15.3137H53.9378L52.8471 13.8387H52.5081V15.3137H51.8595V15.3283ZM56.3993 14.8026C57.1068 14.8026 57.4016 14.2622 57.4016 13.6342C57.4016 12.9771 57.0626 12.4805 56.3551 12.4805C55.6476 12.4805 55.3675 13.0209 55.3675 13.6342C55.3675 14.2622 55.6771 14.8026 56.3993 14.8026ZM56.3698 15.3867C55.3086 15.3867 54.7043 14.6273 54.7043 13.6342C54.7043 12.6412 55.3086 11.8964 56.3698 11.8964C57.4311 11.8964 58.0501 12.6412 58.0501 13.6342C58.0501 14.6273 57.4458 15.3867 56.3698 15.3867ZM59.1114 13.3275H59.9368C60.2168 13.3275 60.4232 13.2107 60.4232 12.9332C60.4232 12.6266 60.2316 12.5389 59.9368 12.5389H59.1114V13.3275ZM59.1114 14.7441H59.9957C60.3053 14.7441 60.5116 14.6419 60.5116 14.3206C60.5116 13.9993 60.2905 13.8825 59.9957 13.8825H59.1114V14.7441ZM58.4923 15.3283V11.9548H60.0399C60.6 11.9548 61.0422 12.1884 61.0422 12.7726C61.0422 13.1669 60.8948 13.459 60.5411 13.5904C60.9243 13.6926 61.1307 13.9847 61.1307 14.379C61.1307 14.9924 60.6885 15.3137 60.0989 15.3137H58.4923V15.3283ZM65.0071 15.3283V11.9548H65.6557V13.2691H65.9947L67.0265 11.9548H67.8076L66.5401 13.532L67.8519 15.3283H67.0707L65.9947 13.8533H65.6557V15.3283H65.0071ZM69.0752 13.8825H70.0628L69.6501 12.5243H69.5174L69.0752 13.8825ZM67.9698 15.3283L69.1195 11.9548H70.0628L71.1977 15.3283H70.5197L70.2397 14.4813H68.8689L68.5888 15.3283H67.9698ZM73.5266 13.4736V12.5243H72.7749C72.4358 12.5243 72.2 12.6266 72.2 12.9917C72.2 13.3568 72.4358 13.459 72.7749 13.459H73.5266V13.4736ZM71.5073 15.3283L71.6547 14.4082C71.6989 14.1162 71.8463 13.9117 72.1263 13.7657C71.7726 13.6196 71.5367 13.2837 71.5367 12.8894C71.5367 12.2469 72.1263 11.9402 72.7012 11.9402H74.1309V15.3137H73.4971V14.0285H72.7454C72.4358 14.0285 72.3327 14.1308 72.2884 14.4521L72.1558 15.3283H71.5073ZM0.448242 22.9078V8.7857H14.7161V0.300781H37.518V22.9078H0.448242Z" fill="white"/>
<path d="M8.21527 18.4552H7.90574L6.44653 11.9564H3.71973V19.828H5.13472V13.3292H5.44425L6.85923 19.828H9.26177L10.7062 13.3292H11.0158V19.828H12.4308V11.9564H9.70395L8.21527 18.4552ZM22.5863 19.828H27.5535V18.4552H24.0307V16.4836H27.0671V15.1693H24.0307V13.3292H27.5535V11.9564H22.5863V19.828ZM17.5011 18.645C15.8798 18.645 15.1281 17.4475 15.1281 15.8849C15.1281 14.3223 15.8798 13.1247 17.5011 13.1247C19.1225 13.1247 19.8742 14.3223 19.8742 15.8849C19.8742 17.4475 19.1225 18.645 17.5011 18.645ZM17.5011 11.752C15.0691 11.752 13.6541 13.4168 13.6541 15.8557C13.6541 18.2945 15.0691 20.0178 17.5011 20.0178C19.9332 20.0178 21.3481 18.2945 21.3481 15.8557C21.3481 13.4168 19.9332 11.752 17.5011 11.752ZM28.5557 19.828H30.0887L31.8132 16.7173L33.6556 19.828H35.1885L32.727 15.7096L35.0411 11.9564H33.5082L31.8869 14.7604L30.236 11.9564H28.7031L30.9141 15.6658L28.5557 19.828Z" fill="#1875F8"/>
</g>
<defs>
<clipPath id="clip0_0_914">
<rect width="74.2522" height="22.6724" fill="white" transform="translate(0 0.246094)"/>
</clipPath>
</defs>
</svg>
