<svg width="93" height="31" viewBox="0 0 93 31" fill="none" xmlns="http://www.w3.org/2000/svg">
<path d="M11.231 20.9824V25.7228H10.2383V23.5869H8.1135V25.7228H7.11523V20.9824H8.10793V22.6555H10.2327V20.9824H11.231Z" fill="white" fill-opacity="0.7"/>
<path d="M15.414 25.7228V22.7224L12.6925 25.7228H12.1348V20.9824H13.1219V24.0051L15.8769 21.0047H16.4346V25.7451L15.414 25.7228Z" fill="white" fill-opacity="0.7"/>
<path d="M22.2408 25.7228L20.5677 23.3694V25.7228H19.5861V23.3694L17.9131 25.7228H16.7363L18.6771 23.0515L17.0654 20.9824H18.2142L19.5806 22.7838V20.9824H20.5621V22.7838L21.9229 20.9824H23.0383L21.4321 23.0515L23.3729 25.7228H22.2408Z" fill="white" fill-opacity="0.7"/>
<path d="M27.1137 20.9824V21.897H24.7714V22.6778H26.556V23.5757H24.7714V24.8138H27.1137V25.7228H23.7676V20.9824H27.1137Z" fill="white" fill-opacity="0.7"/>
<path d="M27.8496 25.7228V20.9824H31.1958V21.897H28.8646V25.7228H27.8496Z" fill="white" fill-opacity="0.7"/>
<path d="M33.7341 25.7223C33.2676 25.7124 32.8143 25.565 32.4312 25.2987C32.0481 25.0323 31.7521 24.6588 31.5804 24.2249C31.4087 23.791 31.3688 23.3161 31.4659 22.8597C31.5629 22.4033 31.7925 21.9856 32.1259 21.6592C32.4593 21.3327 32.8817 21.1119 33.34 21.0244C33.7984 20.937 34.2723 20.9867 34.7025 21.1675C35.1327 21.3483 35.4999 21.652 35.7582 22.0406C36.0165 22.4293 36.1544 22.8855 36.1545 23.3521C36.1584 23.6687 36.0981 23.9828 35.9772 24.2755C35.8564 24.5682 35.6774 24.8333 35.4512 25.0548C35.2249 25.2764 34.9561 25.4497 34.661 25.5645C34.3659 25.6792 34.0505 25.7329 33.7341 25.7223ZM33.7341 21.8909C33.443 21.8798 33.1552 21.956 32.9077 22.1096C32.6602 22.2633 32.4642 22.4874 32.345 22.7532C32.2258 23.019 32.1888 23.3144 32.2388 23.6014C32.2887 23.8884 32.4233 24.154 32.6252 24.3639C32.8272 24.5739 33.0873 24.7187 33.3721 24.7797C33.657 24.8408 33.9536 24.8153 34.2238 24.7065C34.4941 24.5978 34.7256 24.4107 34.8888 24.1694C35.052 23.928 35.1392 23.6434 35.1395 23.3521C35.1502 23.1621 35.1217 22.9719 35.0556 22.7935C34.9895 22.6151 34.8873 22.4522 34.7554 22.315C34.6235 22.1779 34.4647 22.0694 34.289 21.9964C34.1132 21.9235 33.9243 21.8876 33.7341 21.8909Z" fill="white" fill-opacity="0.7"/>
<path d="M36.7715 25.7235V20.9831H39.0915C39.41 20.9648 39.7267 21.0426 40.0005 21.2061C40.1972 21.337 40.3586 21.5144 40.4702 21.7226C40.5817 21.9308 40.6401 22.1634 40.6401 22.3996C40.6401 22.6358 40.5817 22.8684 40.4702 23.0766C40.3586 23.2849 40.1972 23.4623 40.0005 23.5931C39.7286 23.7566 39.4138 23.8343 39.0971 23.8162H37.7865V25.7235H36.7715ZM38.9632 22.9071C39.0858 22.9163 39.209 22.9012 39.3257 22.8625C39.4229 22.8318 39.5078 22.7709 39.568 22.6886C39.6283 22.6064 39.6608 22.5071 39.6608 22.4052C39.6608 22.3033 39.6283 22.204 39.568 22.1217C39.5078 22.0395 39.4229 21.9786 39.3257 21.9479C39.2098 21.9056 39.0863 21.8885 38.9632 21.8977H37.7865V22.8904L38.9632 22.9071Z" fill="white" fill-opacity="0.7"/>
<path d="M43.32 25.7223C42.8535 25.7124 42.4003 25.565 42.0172 25.2987C41.634 25.0323 41.3381 24.6588 41.1663 24.2249C40.9946 23.791 40.9548 23.3161 41.0518 22.8597C41.1489 22.4033 41.3785 21.9856 41.7119 21.6592C42.0453 21.3327 42.4676 21.1119 42.926 21.0244C43.3843 20.937 43.8583 20.9867 44.2885 21.1675C44.7186 21.3483 45.0859 21.652 45.3442 22.0406C45.6025 22.4293 45.7403 22.8855 45.7404 23.3521C45.7444 23.6687 45.6841 23.9828 45.5632 24.2755C45.4423 24.5682 45.2633 24.8333 45.0371 25.0548C44.8109 25.2764 44.5421 25.4497 44.2469 25.5645C43.9518 25.6792 43.6365 25.7329 43.32 25.7223ZM43.32 21.8909C43.0289 21.8798 42.7411 21.956 42.4936 22.1096C42.2461 22.2633 42.0502 22.4874 41.931 22.7532C41.8118 23.019 41.7748 23.3144 41.8247 23.6014C41.8746 23.8884 42.0092 24.154 42.2111 24.3639C42.4131 24.5739 42.6732 24.7187 42.958 24.7797C43.2429 24.8408 43.5395 24.8153 43.8098 24.7065C44.08 24.5978 44.3116 24.4107 44.4747 24.1694C44.6379 23.928 44.7252 23.6434 44.7254 23.3521C44.7362 23.1621 44.7076 22.9719 44.6415 22.7935C44.5755 22.6151 44.4733 22.4522 44.3414 22.315C44.2094 22.1779 44.0507 22.0694 43.8749 21.9964C43.6992 21.9235 43.5103 21.8876 43.32 21.8909Z" fill="white" fill-opacity="0.7"/>
<path d="M50.3485 24.8082H51.001V26.6988H50.0083V25.7228H46.8462V26.6988H45.8535V24.8082H46.4112C46.6643 24.3087 46.8285 23.769 46.8964 23.2132C46.9793 22.4726 47.0184 21.7277 47.0135 20.9824H50.3597L50.3485 24.8082ZM47.9839 21.897C47.9839 22.3712 47.9485 22.8447 47.8779 23.3136C47.8016 23.8261 47.6649 24.3278 47.4708 24.8082H49.3558V21.897H47.9839Z" fill="white" fill-opacity="0.7"/>
<path d="M54.9945 22.8878C54.9188 22.5878 54.7435 22.3223 54.4973 22.1349C54.2511 21.9475 53.9486 21.8492 53.6393 21.856C53.2652 21.8791 52.914 22.0439 52.6572 22.317C52.4005 22.5901 52.2575 22.9508 52.2575 23.3256C52.2575 23.7004 52.4005 24.0611 52.6572 24.3341C52.914 24.6072 53.2652 24.772 53.6393 24.7951C53.9514 24.8032 54.2567 24.7032 54.5036 24.5122C54.7505 24.3212 54.9239 24.0507 54.9945 23.7466L55.9426 24.0366C55.7949 24.5293 55.4895 24.9598 55.0734 25.2621C54.6573 25.5643 54.1535 25.7216 53.6393 25.7097C53.318 25.7253 52.9969 25.6755 52.6954 25.5632C52.3939 25.451 52.1184 25.2787 51.8855 25.0568C51.6526 24.835 51.4671 24.5681 51.3405 24.2724C51.2138 23.9767 51.1484 23.6584 51.1484 23.3367C51.1484 23.015 51.2138 22.6967 51.3405 22.401C51.4671 22.1053 51.6526 21.8385 51.8855 21.6166C52.1184 21.3947 52.3939 21.2224 52.6954 21.1102C52.9969 20.998 53.318 20.9481 53.6393 20.9637C54.1487 20.9424 54.6506 21.0915 55.0657 21.3874C55.4809 21.6834 55.7855 22.1093 55.9314 22.5978L54.9945 22.8878Z" fill="white" fill-opacity="0.7"/>
<path d="M60.1306 20.9824L58.4017 23.0515L60.4931 25.7228H59.2717L57.4927 23.3694V25.7228H56.5V20.9824H57.4927V22.7782L58.9371 20.9824H60.1306Z" fill="white" fill-opacity="0.7"/>
<path d="M64.1506 25.7228V22.7224L61.3956 25.7228H60.8379V20.9824H61.8306V24.0051L64.5856 21.0047H65.1433V25.7451L64.1506 25.7228Z" fill="white" fill-opacity="0.7"/>
<path d="M69.3186 25.7222V22.7218L66.5636 25.7222H66.0059V20.9818H66.9986V24.0045L69.7536 21.0041H70.3113V25.7445L69.3186 25.7222ZM67.612 20.6584L68.6716 19.543L69.3241 20.162L68.2701 21.2774L67.612 20.6584Z" fill="white" fill-opacity="0.7"/>
<path d="M76.9286 20.9824V25.7228H75.9359V23.5869H73.8111V25.7228H72.8184V20.9824H73.8111V22.6555H75.9359V20.9824H76.9286Z" fill="white" fill-opacity="0.7"/>
<path d="M79.9603 25.7224C79.4936 25.7136 79.0398 25.5672 78.6559 25.3014C78.272 25.0357 77.9752 24.6625 77.8026 24.2288C77.6301 23.795 77.5894 23.3199 77.6859 22.8631C77.7823 22.4063 78.0115 21.9881 78.3447 21.6611C78.6779 21.3341 79.1002 21.1127 79.5587 21.0248C80.0172 20.9369 80.4915 20.9864 80.922 21.167C81.3525 21.3476 81.7201 21.6514 81.9786 22.0401C82.2371 22.4289 82.3751 22.8853 82.3752 23.3522C82.3791 23.6683 82.319 23.982 82.1984 24.2743C82.0779 24.5665 81.8994 24.8314 81.6738 25.0529C81.4481 25.2743 81.18 25.4478 80.8855 25.5629C80.5911 25.678 80.2764 25.7322 79.9603 25.7224ZM79.9603 21.891C79.6691 21.8788 79.3808 21.954 79.1326 22.1069C78.8843 22.2598 78.6875 22.4835 78.5675 22.7492C78.4474 23.0149 78.4096 23.3104 78.4589 23.5978C78.5081 23.8851 78.6422 24.1512 78.8439 24.3617C79.0456 24.5723 79.3056 24.7176 79.5906 24.7792C79.8756 24.8407 80.1725 24.8156 80.4431 24.707C80.7137 24.5984 80.9456 24.4114 81.109 24.17C81.2724 23.9286 81.3599 23.6438 81.3602 23.3522C81.3717 23.1625 81.3439 22.9725 81.2785 22.794C81.213 22.6156 81.1114 22.4526 80.9799 22.3154C80.8484 22.1781 80.69 22.0696 80.5145 21.9966C80.3391 21.9235 80.1504 21.8876 79.9603 21.891Z" fill="white" fill-opacity="0.7"/>
<path d="M87.0954 20.9824V24.8082H87.7925V26.6988H86.8054V25.7228H83.002V20.9824H83.9891V24.8082H86.1027V20.9824H87.0954Z" fill="white" fill-opacity="0.7"/>
<path d="M66.5758 10.5153C68.1127 10.5153 69.3587 9.26931 69.3587 7.73236C69.3587 6.19541 68.1127 4.94946 66.5758 4.94946C65.0388 4.94946 63.7929 6.19541 63.7929 7.73236C63.7929 9.26931 65.0388 10.5153 66.5758 10.5153Z" fill="white" fill-opacity="0.7"/>
<path d="M56.1402 2.50168C55.1085 2.49611 54.0986 2.79908 53.2402 3.37168C54.2975 4.57635 54.8805 6.12445 54.8805 7.72727C54.8805 9.33009 54.2975 10.8782 53.2402 12.0829C53.9198 12.5315 54.6949 12.815 55.5035 12.9109C56.3122 13.0068 57.1321 12.9124 57.8977 12.6352C58.6634 12.358 59.3537 11.9057 59.9136 11.3144C60.4734 10.7231 60.8874 10.0091 61.1223 9.22939C61.3573 8.44971 61.4067 7.6259 61.2668 6.8237C61.1269 6.02149 60.8014 5.2631 60.3163 4.60901C59.8313 3.95492 59.2001 3.42325 58.4731 3.0564C57.7461 2.68955 56.9434 2.49768 56.1291 2.49609L56.1402 2.50168Z" fill="white" fill-opacity="0.7"/>
<path d="M50.9097 7.73255C50.9075 6.86956 51.1192 6.01949 51.5261 5.2584C51.9329 4.49732 52.522 3.84897 53.2408 3.37138C52.3541 2.35502 51.1784 1.63349 49.8706 1.30324C48.5629 0.972983 47.1855 1.04973 45.9225 1.52322C44.6596 1.9967 43.5712 2.84437 42.8029 3.95294C42.0346 5.06151 41.623 6.37818 41.623 7.72697C41.623 9.07576 42.0346 10.3924 42.8029 11.501C43.5712 12.6096 44.6596 13.4572 45.9225 13.9307C47.1855 14.4042 48.5629 14.481 49.8706 14.1507C51.1784 13.8204 52.3541 13.0989 53.2408 12.0826C52.5236 11.606 51.9354 10.9594 51.5287 10.2004C51.122 9.44147 50.9093 8.59365 50.9097 7.73255Z" fill="white" fill-opacity="0.7"/>
<path d="M37.4202 9.53964C38.4181 9.53964 39.2271 8.73065 39.2271 7.73271C39.2271 6.73477 38.4181 5.92578 37.4202 5.92578C36.4223 5.92578 35.6133 6.73477 35.6133 7.73271C35.6133 8.73065 36.4223 9.53964 37.4202 9.53964Z" fill="white" fill-opacity="0.7"/>
<path d="M29.0767 11.8488C31.3498 11.8488 33.1925 10.0061 33.1925 7.73297C33.1925 5.45989 31.3498 3.61719 29.0767 3.61719C26.8036 3.61719 24.9609 5.45989 24.9609 7.73297C24.9609 10.0061 26.8036 11.8488 29.0767 11.8488Z" fill="white" fill-opacity="0.7"/>
</svg>
