<svg width="89" height="21" viewBox="0 0 89 21" fill="none" xmlns="http://www.w3.org/2000/svg">
<g clip-path="url(#clip0_0_941)">
<mask id="mask0_0_941" style="mask-type:luminance" maskUnits="userSpaceOnUse" x="0" y="0" width="89" height="21">
<path d="M88.4235 0.248047H0.000976562V20.0864H88.4235V0.248047Z" fill="white"/>
</mask>
<g mask="url(#mask0_0_941)">
<path d="M8.99175 6.73495C8.6229 6.73495 8.32227 6.43228 8.32227 6.06095V0.974186C8.32227 0.605396 8.6229 0.302734 8.99175 0.302734H11.9147C12.2836 0.302734 12.5842 0.605396 12.5842 0.976729V6.06349C12.5842 6.43483 12.2836 6.73749 11.9147 6.73749H8.99175V6.73495Z" fill="white"/>
<path d="M6.29394 10.8438C6.18025 11.1973 5.8013 11.3906 5.45014 11.2761L0.647518 9.70432C0.298881 9.58987 0.104351 9.20836 0.218037 8.85483L1.11995 6.05711C1.23363 5.70358 1.61259 5.51029 1.96122 5.62474L6.76637 7.19655C7.11498 7.311 7.30954 7.69251 7.19585 8.04604L6.29394 10.8438Z" fill="white"/>
<path d="M14.6069 10.8457C14.7206 11.1992 15.0995 11.3925 15.4507 11.2781L20.2558 9.70628C20.6045 9.59182 20.799 9.21032 20.6853 8.85679L19.7834 6.05907C19.6697 5.70554 19.2908 5.51224 18.9421 5.62669L14.137 7.1985C13.7858 7.31295 13.5938 7.69446 13.7075 8.04799L14.6069 10.8457Z" fill="white"/>
<path d="M9.34385 14.6958C9.64196 14.9145 9.70765 15.3367 9.49291 15.6369L6.52191 19.752C6.30464 20.0522 5.88527 20.1183 5.58716 19.8996L3.22249 18.1701C2.92438 17.9513 2.85869 17.5291 3.07343 17.229L6.04696 13.1164C6.2617 12.8162 6.6836 12.7501 6.98171 12.9688L9.34385 14.6958Z" fill="white"/>
<path d="M11.5614 14.6958C11.2632 14.9145 11.1976 15.3367 11.4123 15.6369L14.3833 19.752C14.598 20.0522 15.0199 20.1183 15.318 19.8996L17.6827 18.1701C17.9808 17.9513 18.0465 17.5291 17.8318 17.229L14.8583 13.1164C14.641 12.8162 14.2216 12.7501 13.9235 12.9688L11.5614 14.6958Z" fill="white"/>
<path d="M84.9414 3.42773H87.9174C88.309 3.42773 88.5238 3.88809 88.2711 4.19075L83.5367 9.84978C83.3927 10.0227 83.3927 10.2771 83.5367 10.4475L88.3115 16.1421C88.5642 16.4448 88.352 16.9051 87.9579 16.9051H84.9768C84.8378 16.9051 84.7064 16.8415 84.6205 16.7347L79.5173 10.4449C79.3783 10.2745 79.3783 10.0278 79.5173 9.85741L84.5826 3.5956C84.6711 3.49132 84.8024 3.42773 84.9414 3.42773Z" fill="white"/>
<path d="M75.4466 16.9063H77.8289C78.0815 16.9063 78.2862 16.7003 78.2862 16.4459V3.88418C78.2862 3.62984 78.0815 3.42383 77.8289 3.42383H75.4466C75.1939 3.42383 74.9893 3.62984 74.9893 3.88418V16.4459C74.9868 16.6977 75.1939 16.9063 75.4466 16.9063Z" fill="white"/>
<path d="M37.8918 16.9063H35.4817C35.229 16.9063 35.0244 16.7003 35.0244 16.4459V12.3104C35.0244 12.0561 34.8197 11.8501 34.5671 11.8501H30.0272C29.7746 11.8501 29.5674 12.0561 29.5674 12.3104V16.4434C29.5674 16.6977 29.3628 16.9038 29.1102 16.9038H26.6975C26.4449 16.9038 26.2402 16.6977 26.2402 16.4434V3.88418C26.2402 3.62984 26.4449 3.42383 26.6975 3.42383H29.1102C29.3628 3.42383 29.5674 3.62984 29.5674 3.88418V8.37579C29.5674 8.63013 29.7721 8.83615 30.0272 8.83615H34.5671C34.8197 8.83615 35.0244 8.63013 35.0244 8.37579V3.88418C35.0244 3.62984 35.229 3.42383 35.4817 3.42383H37.8918C38.1444 3.42383 38.3491 3.62984 38.3491 3.88418V16.4434C38.3491 16.6977 38.1444 16.9063 37.8918 16.9063Z" fill="white"/>
<path d="M42.1895 10.1649C42.1895 5.97336 45.3423 3.14258 49.4881 3.14258C52.4793 3.14258 54.1897 4.70676 55.137 6.34978C55.2709 6.58123 55.1724 6.87881 54.9324 6.99326L52.7799 8.01824C52.5677 8.11998 52.3126 8.04368 52.1938 7.84021C51.6608 6.93476 50.63 6.23533 49.4881 6.23533C47.2851 6.23533 45.7289 7.94448 45.7289 10.1649C45.7289 12.3827 47.2851 14.0918 49.4881 14.0918C50.63 14.0918 51.6633 13.395 52.1938 12.4895C52.3126 12.286 52.5677 12.2097 52.7799 12.3115L54.9324 13.3365C55.1724 13.4509 55.2709 13.7485 55.137 13.9799C54.1998 15.595 52.4743 17.1871 49.4881 17.1871C45.3423 17.1871 42.1895 14.3385 42.1895 10.1649Z" fill="white"/>
<path d="M70.6125 16.9063H68.1998C67.9472 16.9063 67.7426 16.7003 67.7426 16.4459V6.89809C67.7426 6.64375 67.5379 6.43774 67.2853 6.43774H62.7454C62.4928 6.43774 62.2881 6.64375 62.2881 6.89809V16.4434C62.2881 16.6977 62.0835 16.9038 61.8309 16.9038H59.4182C59.1656 16.9038 58.9609 16.6977 58.9609 16.4434V3.88418C58.9609 3.62984 59.1656 3.42383 59.4182 3.42383H62.2881H67.7451H70.615C70.8677 3.42383 71.0723 3.62984 71.0723 3.88418V16.4434C71.0723 16.6977 70.8677 16.9063 70.6125 16.9063Z" fill="white"/>
</g>
</g>
<defs>
<clipPath id="clip0_0_941">
<rect width="88.4225" height="19.8384" fill="white" transform="translate(0 0.246094)"/>
</clipPath>
</defs>
</svg>
