<svg width="70" height="43" viewBox="0 0 70 43" fill="none" xmlns="http://www.w3.org/2000/svg">
<path d="M38.6738 16.5983L32.9048 22.7176V16.5983H29.1707V32.4443H32.9048V26.3157L39.4466 32.4443H44.404C44.4085 32.4443 44.4085 32.4396 44.4062 32.4373C44.4062 32.4373 36.5084 24.3884 36.5084 24.3861L43.263 16.6075C43.2675 16.6029 43.263 16.5959 43.2584 16.5959L38.6738 16.5983Z" fill="white"/>
<path d="M58.7306 19.0686C57.3221 17.5734 55.3853 16.7831 53.1285 16.7831C51.2398 16.7831 49.5866 17.4255 48.3449 18.6388C48.6285 17.0373 49.1887 15.8934 50.1102 15.0453C51.0546 14.1741 52.3602 13.4184 54.2969 13.2497C56.1148 13.0902 59.1925 12.9839 59.1925 12.9839L59.1786 9.24023C59.1786 9.24023 55.7443 9.29801 53.492 9.51755C50.3228 9.82951 48.1392 11.3894 46.6872 13.3606C45.1689 15.4196 44.4326 18.3314 44.4326 22.2599V23.4986C44.4326 26.2625 45.1735 28.5896 46.5752 30.2234C48.0111 31.8988 50.085 32.7839 52.5774 32.7839C54.8228 32.7839 56.9013 31.9265 58.4308 30.369C59.9495 28.823 60.7838 26.7339 60.7838 24.49C60.7838 22.3986 60.0547 20.4736 58.7306 19.0686ZM52.5683 29.3036C51.7771 29.3036 51.0317 29.098 50.3823 28.7375C50.172 28.6242 49.9753 28.4925 49.7923 28.3469C48.7177 27.5081 48.0226 26.1908 48.0226 24.7118C48.0226 22.1768 50.0576 20.1201 52.566 20.1201C55.0743 20.1201 57.1094 22.1768 57.1094 24.7118C57.1094 27.2469 55.0789 29.3036 52.5683 29.3036Z" fill="white"/>
<path d="M18.5918 16.252V20.0234C21.0476 20.0234 23.0438 22.0431 23.0438 24.5227C23.0438 27.0023 21.0453 29.0221 18.5918 29.0221C16.136 29.0221 14.1398 27.0023 14.1398 24.5227H10.4082C10.4082 29.0914 14.0713 32.7935 18.5918 32.7935C23.1124 32.7935 26.7755 29.0914 26.7755 24.5227C26.7755 19.954 23.1124 16.252 18.5918 16.252Z" fill="white"/>
<path d="M8.93359 23.0325H12.6653C12.6653 20.5505 14.6638 18.5331 17.1172 18.5331V14.7617C12.5967 14.7617 8.93359 18.4638 8.93359 23.0325Z" fill="white" fill-opacity="0.5"/>
</svg>
