<svg width="96" height="29" viewBox="0 0 96 29" fill="none" xmlns="http://www.w3.org/2000/svg">
<g clip-path="url(#clip0_0_853)">
<path d="M27.0788 1.1673V21.2461C27.0773 22.8578 26.4364 24.4031 25.2967 25.5428C24.157 26.6825 22.6117 27.3234 21 27.3249H7C5.38826 27.3234 3.84297 26.6825 2.7033 25.5428C1.56363 24.4031 0.922708 22.8578 0.921202 21.2461V7.24609C0.922708 5.63436 1.56363 4.08907 2.7033 2.9494C3.84297 1.80973 5.38826 1.1688 7 1.1673H27.0788ZM28 0.246094H7C5.14348 0.246094 3.36301 0.983592 2.05025 2.29635C0.737498 3.6091 0 5.38958 0 7.24609L0 21.2461C0 23.1026 0.737498 24.8831 2.05025 26.1958C3.36301 27.5086 5.14348 28.2461 7 28.2461H21C22.8565 28.2461 24.637 27.5086 25.9497 26.1958C27.2625 24.8831 28 23.1026 28 21.2461V0.246094Z" fill="white" fill-opacity="0.7"/>
<path d="M23.1395 10.7442H19.7788L16.5774 14.247V7.24701H13.9844V8.95294C13.901 8.843 13.81 8.73496 13.7114 8.62881C13.1808 8.10756 12.5469 7.70317 11.8506 7.44168C11.1543 7.18019 10.4109 7.06739 9.66837 7.11054C8.95555 7.07771 8.24487 7.21116 7.59251 7.50033C6.94016 7.78949 6.36402 8.22646 5.90964 8.77666C5.54193 9.22673 5.27543 9.75069 5.12825 10.3129C4.98107 10.8752 4.95666 11.4625 5.05667 12.035C5.65943 14.7304 8.16146 15.1625 9.99818 15.4014C11.4482 15.589 12.8414 15.8563 12.8016 17.1471C12.7618 18.4379 11.2492 18.8075 10.237 18.8075C7.64968 18.8075 7.56439 16.8969 7.56439 16.8969H4.80078C4.84855 17.9457 5.24932 18.9477 5.93807 19.7401C6.90476 20.8262 8.3548 21.3721 10.2484 21.3721C11.6103 21.4029 12.9366 20.9359 13.9787 20.0585V21.1958H16.5717V17.9261L17.4929 16.9253L20.1143 21.23H23.1338L19.3353 14.9237L23.1395 10.7442ZM13.9844 13.8945C12.1249 12.3648 8.08754 13.3258 7.65537 11.4209C7.42791 10.42 8.42304 9.53296 9.71955 9.53296C10.8568 9.53296 12.0453 9.79453 12.4888 11.4209H13.9844V13.8945Z" fill="white" fill-opacity="0.7"/>
<path d="M34.6004 19.479C34.7984 19.5439 35.0061 19.5747 35.2145 19.57C35.3418 19.5754 35.4689 19.5551 35.5881 19.5101C35.7074 19.4652 35.8163 19.3965 35.9083 19.3084C36.0858 19.1218 36.2078 18.8894 36.2608 18.6374L32.5703 10.8242H35.0212L37.3924 16.431L39.468 10.8242H41.8051L38.4785 18.5236C38.1703 19.3633 37.7031 20.1356 37.1024 20.7982C36.8952 21.0248 36.6444 21.2071 36.3649 21.3342C36.0854 21.4612 35.783 21.5304 35.4761 21.5375C35.3116 21.5539 35.1459 21.5539 34.9814 21.5375C34.8582 21.5228 34.7365 21.4981 34.6174 21.4635L34.3388 21.3782C34.2689 21.3477 34.1967 21.323 34.1227 21.3043V19.2799C34.2682 19.3753 34.4302 19.4428 34.6004 19.479Z" fill="white" fill-opacity="0.7"/>
<path d="M45.8035 18.3171C45.6613 18.3626 45.5021 18.391 45.3258 18.4365C45.1496 18.482 44.9619 18.4934 44.7572 18.5048C44.5679 18.5195 44.3778 18.5195 44.1885 18.5048C43.8064 18.5231 43.4234 18.5022 43.0456 18.4422C42.7381 18.373 42.4466 18.2456 42.1869 18.0669C41.9536 17.8842 41.7731 17.6428 41.6638 17.3675C41.5417 17.0384 41.4838 16.6891 41.4932 16.3382V13.5234H43.4948V15.9231C43.4869 16.1057 43.518 16.2879 43.5858 16.4576C43.6257 16.5976 43.7119 16.7199 43.8303 16.8045C43.9521 16.9001 44.0975 16.961 44.2511 16.9808C44.4524 17.012 44.6558 17.0272 44.8595 17.0263C45.1336 17.0362 45.4076 17.0056 45.6727 16.9353C45.8416 16.882 46.0037 16.8095 46.1561 16.7192V13.5234H48.1577V21.2513H46.1561V18.2034L45.8035 18.3171Z" fill="white" fill-opacity="0.7"/>
<path d="M55.9139 20.2913C55.9243 20.4144 55.9591 20.5342 56.0162 20.6438C56.0452 20.7246 56.0964 20.7956 56.1641 20.8485C56.214 20.8891 56.2722 20.9183 56.3347 20.9338V21.2523H54.1113L54.0203 20.8883C53.9627 20.7163 53.9376 20.535 53.9464 20.3538L53.4971 20.803C53.34 20.9347 53.1705 21.0508 52.991 21.1499C52.7774 21.2626 52.5499 21.3468 52.3143 21.4001C52.0285 21.4612 51.7366 21.4898 51.4443 21.4854C51.118 21.4903 50.7931 21.4404 50.4833 21.3376C50.2068 21.2369 49.9521 21.0844 49.7327 20.8883C49.5206 20.6793 49.3557 20.4273 49.2494 20.1491C49.1243 19.8207 49.0645 19.4711 49.0731 19.1199C49.0689 18.8177 49.1189 18.5172 49.2209 18.2328C49.3178 17.9727 49.4603 17.732 49.6417 17.522C49.8303 17.3136 50.0559 17.142 50.307 17.0159C50.5768 16.8688 50.872 16.7742 51.1771 16.7372L53.1389 16.4472C53.2173 16.436 53.2951 16.4208 53.372 16.4017C53.4571 16.3916 53.5378 16.3581 53.6052 16.3051C53.6756 16.2612 53.7342 16.2006 53.7758 16.1288C53.8267 16.0305 53.8521 15.921 53.8497 15.8103C53.8469 15.6908 53.8278 15.5722 53.7928 15.4578C53.7479 15.3514 53.6777 15.2577 53.5881 15.1848C53.4796 15.0935 53.351 15.0292 53.2128 14.9972C53.0266 14.9525 52.8356 14.9315 52.6442 14.9346C52.4296 14.9322 52.2156 14.9571 52.0073 15.0086C51.86 15.0544 51.7256 15.1343 51.6149 15.2417C51.518 15.3365 51.4424 15.4509 51.3931 15.5772L51.3078 15.998H49.2892C49.2952 15.8663 49.3104 15.7352 49.3347 15.6056C49.37 15.4096 49.4292 15.2186 49.5109 15.037C49.6058 14.8337 49.7221 14.6412 49.8578 14.4627C50.0107 14.2397 50.2035 14.0469 50.4264 13.894C50.6977 13.7098 50.9974 13.5714 51.3135 13.4846C51.7196 13.3737 52.138 13.3145 52.5589 13.3083C53.1344 13.2947 53.7088 13.3637 54.2648 13.513C54.6313 13.6378 54.9708 13.8307 55.2656 14.0817C55.4855 14.2899 55.6497 14.5499 55.7433 14.838C55.8173 15.1085 55.8556 15.3877 55.857 15.6682V19.7624C55.86 19.9401 55.879 20.1171 55.9139 20.2913ZM53.5028 17.6528C53.3454 17.7231 53.1788 17.7709 53.0081 17.7949L52.4736 17.8973C52.2673 17.9312 52.0639 17.9806 51.8651 18.0451C51.7083 18.0927 51.5604 18.1657 51.4273 18.2612C51.3144 18.3551 51.2249 18.4738 51.1657 18.6081C51.1035 18.7653 51.0745 18.9338 51.0804 19.1028C51.0799 19.2459 51.1029 19.388 51.1486 19.5236C51.2032 19.6416 51.2827 19.7464 51.3818 19.8307C51.4712 19.9082 51.5758 19.9663 51.6888 20.0013C51.8188 20.045 51.9554 20.0662 52.0926 20.0638C52.1899 20.0586 52.2867 20.0473 52.3826 20.0297C52.5122 20.0146 52.6399 19.986 52.7636 19.9444C52.901 19.8898 53.0325 19.8212 53.1559 19.7397C53.2925 19.6589 53.4107 19.5504 53.5028 19.4212C53.6285 19.2798 53.7182 19.11 53.7644 18.9265C53.8318 18.7112 53.8663 18.4869 53.8667 18.2612V17.4765C53.7519 17.5477 53.6299 17.6068 53.5028 17.6528Z" fill="white" fill-opacity="0.7"/>
<path d="M61.5196 15.7187C61.4641 15.5721 61.3789 15.4385 61.2694 15.3264C61.1576 15.2177 61.0238 15.1343 60.877 15.0819C60.6919 15.0307 60.5004 15.0058 60.3084 15.0079C60.0223 14.992 59.7394 15.0743 59.5066 15.2411C59.3061 15.3887 59.1458 15.5842 59.0403 15.8097C58.9325 16.0601 58.8598 16.3242 58.8242 16.5945C58.7919 16.8549 58.7729 17.1168 58.7673 17.3792C58.7671 17.6451 58.7804 17.9108 58.8071 18.1753C58.8298 18.4412 58.8991 18.7011 59.0118 18.943C59.1113 19.1722 59.2728 19.3692 59.4781 19.5116C59.7213 19.6789 60.0139 19.7591 60.3084 19.7391C60.5202 19.7468 60.7303 19.6977 60.9168 19.5969C61.0749 19.5095 61.2172 19.3961 61.3376 19.2614C61.4492 19.1272 61.5376 18.9754 61.5992 18.8122C61.6448 18.6764 61.6697 18.5345 61.6731 18.3914H63.76C63.7596 18.5579 63.7406 18.7238 63.7032 18.8861C63.6431 19.11 63.5651 19.3286 63.47 19.54C63.353 19.7774 63.218 20.0055 63.0663 20.2224C62.881 20.4577 62.6604 20.6629 62.4123 20.8308C62.138 21.0264 61.8349 21.1779 61.5139 21.2801C61.1243 21.404 60.7171 21.4635 60.3084 21.4564C59.7772 21.4671 59.2488 21.3784 58.7503 21.1948C58.3135 21.0205 57.9239 20.7458 57.613 20.393C57.2904 20.0176 57.0519 19.5774 56.9136 19.1022C56.744 18.538 56.6615 17.9512 56.669 17.3621C56.6571 16.7659 56.7455 16.1719 56.9306 15.605C57.0891 15.1334 57.3405 14.6984 57.6698 14.3256C57.9839 13.9804 58.373 13.7119 58.8071 13.5408C59.278 13.3488 59.7828 13.254 60.2913 13.2622C60.5388 13.2675 60.7857 13.2884 61.0305 13.3248C61.2835 13.3577 61.5317 13.4207 61.7698 13.5124C62.0167 13.6132 62.2545 13.7349 62.4806 13.8763C62.7224 14.0368 62.9373 14.2345 63.1175 14.462C63.3021 14.6939 63.4498 14.9528 63.5553 15.2297C63.6809 15.5593 63.7538 15.9067 63.7714 16.259H61.6845C61.6484 16.0737 61.5931 15.8926 61.5196 15.7187Z" fill="white" fill-opacity="0.7"/>
<path d="M70.7675 13.5234V15.1498H68.4304V21.2513H66.4231V15.1498H64.0859V13.5234H70.7675Z" fill="white" fill-opacity="0.7"/>
<path d="M76.3396 16.3155V13.5234H78.3412V21.2513H76.3396V17.9418H73.3883V21.2513H71.3867V13.5234H73.3883V16.3155H76.3396Z" fill="white" fill-opacity="0.7"/>
<path d="M81.7183 18.2887L84.5615 13.5234H86.6655V21.2513H84.6638V16.5884H84.6297L81.9002 21.2513H79.7109V13.5234H81.7126V18.2887H81.7183Z" fill="white" fill-opacity="0.7"/>
<path d="M92.9115 13.5234H95.5841L92.3883 16.7363L95.7149 21.2513H93.0991L90.8245 17.9816L90.0114 18.8118V21.2513H88.0098V13.5234H90.0114V16.4576L92.9115 13.5234Z" fill="white" fill-opacity="0.7"/>
</g>
<defs>
<clipPath id="clip0_0_853">
<rect width="95.7141" height="28" fill="white" transform="translate(0 0.246094)"/>
</clipPath>
</defs>
</svg>
