<svg width="112" height="40" viewBox="0 0 112 40" fill="none" xmlns="http://www.w3.org/2000/svg">
<path d="M86.0822 16.8303V25.7426H88.026V22.1019H92.1714V25.7426H94.1152V16.8303H92.1714V20.4843H88.026V16.8303H86.0822Z" fill="white"/>
<path d="M98.4943 22.1481H99.7042L102.689 25.7433H105.201L101.223 21.1336L104.699 16.8303H102.464L99.5676 20.6503H98.4943V16.8303H96.549V25.7433H98.4943V22.1481Z" fill="white"/>
<path d="M82.7402 25.7423H84.7873L80.991 16.8301H79.0078L75.1201 25.7423H77.0899L77.8713 23.9477H82.0041L82.7402 25.7423ZM78.4529 22.4608L79.9593 18.8826L81.375 22.4608H78.4529Z" fill="white"/>
<path d="M71.0522 20.304H68.6858V18.314H73.7715L73.776 16.8301H66.7412V25.7423H70.8012C73.0785 25.7423 74.385 24.722 74.385 22.9427C74.385 21.2414 73.2011 20.304 71.0522 20.304ZM70.7135 24.2584H68.6858V21.7879H70.7135C71.948 21.7879 72.5229 22.2015 72.5229 23.0235C72.5229 23.8632 71.9139 24.2584 70.7135 24.2584Z" fill="white"/>
<path d="M51.2675 18.3142L53.3035 16.8303H46.49V25.7433H53.3035V24.2587H48.4346V21.977H52.5874V20.4931H48.4346V18.3142H51.2675Z" fill="white"/>
<path d="M41.3474 20.3043H38.9809V18.3142H42.7579L44.7938 16.8303H37.0363V25.7433H41.0963C43.3736 25.7433 44.6794 24.7222 44.6794 22.943C44.6794 21.2416 43.4962 20.3043 41.3474 20.3043ZM41.0087 24.2587H38.9809V21.7882H41.0087C42.2424 21.7882 42.8173 22.2018 42.8173 23.0238C42.8173 23.8634 42.209 24.2587 41.0087 24.2587Z" fill="white"/>
<path d="M58.8245 16.8303H55.1151V25.7426H57.0589V23.2185H58.8245C61.1917 23.2185 62.6624 21.9873 62.6624 20.02C62.6624 18.0527 61.1917 16.8303 58.8245 16.8303ZM58.7814 21.7346H57.0589V18.3142H58.7814C60.0278 18.3142 60.7126 18.9217 60.7126 20.0244C60.7126 21.127 60.027 21.7346 58.7814 21.7346Z" fill="white"/>
<path d="M33.6979 23.8131C33.1826 24.0892 32.6053 24.2322 32.0193 24.2289C30.2663 24.2289 28.994 22.9911 28.994 21.2861C28.994 19.581 30.2663 18.3469 32.0193 18.3469C32.6529 18.3378 33.2727 18.5299 33.7878 18.8949L35.1827 17.8782L35.0906 17.7981C34.2736 17.0907 33.1884 16.7168 31.9442 16.7168C30.5946 16.7168 29.3698 17.1664 28.4956 17.984C27.6213 18.8016 27.1318 19.9623 27.1318 21.2405C27.1318 22.5187 27.6146 23.6985 28.4911 24.5462C29.3676 25.394 30.5917 25.8641 31.9316 25.8641C33.3332 25.8641 34.5573 25.3808 35.3877 24.5014L34.1287 23.5839L33.6979 23.8131Z" fill="white"/>
<mask id="mask0_0_918" style="mask-type:luminance" maskUnits="userSpaceOnUse" x="7" y="13" width="16" height="16">
<path d="M22.5092 21.2444C22.5093 20.8032 22.4695 20.3629 22.3903 19.9287L20.7912 21.0938C20.7912 21.1438 20.7912 21.1945 20.7912 21.2407C20.7929 22.5048 20.3665 23.7331 19.5799 24.7295C18.7933 25.7259 17.6919 26.433 16.4515 26.7379C15.2111 27.0428 13.9032 26.9281 12.7365 26.4119C11.5697 25.8957 10.6114 25.0079 10.0145 23.8901C9.4176 22.7723 9.21648 21.489 9.44324 20.2449C9.67 19.0009 10.3116 17.8678 11.2656 17.0265C12.2196 16.1853 13.431 15.6843 14.7066 15.6036C15.9821 15.5228 17.2482 15.867 18.3029 16.5811L19.7476 15.5277C18.4366 14.4814 16.805 13.907 15.1205 13.8985C13.436 13.8901 11.7986 14.4482 10.4771 15.4813C9.15553 16.5144 8.22829 17.9611 7.84752 19.584C7.46675 21.2069 7.65507 22.9096 8.38159 24.4127C9.1081 25.9159 10.3296 27.1301 11.8458 27.8562C13.3619 28.5823 15.0826 28.7771 16.7254 28.4087C18.3682 28.0403 19.8357 27.1306 20.8869 25.8288C21.9381 24.527 22.5107 22.9104 22.5107 21.2444H22.5092Z" fill="white"/>
</mask>
<g mask="url(#mask0_0_918)">
<mask id="mask1_0_918" style="mask-type:luminance" maskUnits="userSpaceOnUse" x="7" y="13" width="16" height="16">
<path d="M22.8792 13.5293H7.28027V28.9568H22.8792V13.5293Z" fill="white"/>
</mask>
<g mask="url(#mask1_0_918)">
<mask id="mask2_0_918" style="mask-type:luminance" maskUnits="userSpaceOnUse" x="7" y="13" width="16" height="16">
<path d="M22.8811 13.5254H7.28223V28.9529H22.8811V13.5254Z" fill="white"/>
</mask>
<g mask="url(#mask2_0_918)">
<rect x="7.25391" y="13.4941" width="15.6516" height="15.4796" fill="white"/>
</g>
</g>
</g>
<path d="M20.9562 16.748C21.3094 17.1992 21.6085 17.6892 21.8476 18.2084L15.0787 23.1421L12.251 21.3886V19.2795L15.0787 21.0323L20.9562 16.748Z" fill="white"/>
</svg>
