<svg width="153" height="45" viewBox="0 0 153 45" fill="none" xmlns="http://www.w3.org/2000/svg">
<g clip-path="url(#clip0_280_100)">
<path d="M30.4551 18.9714H33.3968C33.6505 19.598 33.9851 20.1202 34.4004 20.538C35.4387 21.5823 36.7768 22.1045 38.4149 22.1045C39.8915 22.1045 40.9759 21.8608 41.6681 21.3734C42.3834 20.8861 42.741 20.2594 42.741 19.4936C42.741 19.0758 42.5909 18.7161 42.291 18.4144C42.0142 18.1127 41.5528 17.8459 40.9067 17.6138C40.2607 17.3817 39.6839 17.2076 39.1763 17.0916C38.6918 16.9524 37.9766 16.7899 37.0306 16.6042C33.2238 15.8151 31.3203 14.1094 31.3203 11.4869C31.3203 10.1177 31.897 8.96887 33.0507 8.04056C34.2043 7.08904 35.8193 6.61328 37.8958 6.61328C40.4799 6.61328 42.5218 7.48357 44.0214 9.22415C44.6214 10.0132 45.0597 10.8835 45.3365 11.8351H42.3949C42.1872 11.3708 41.8873 10.9415 41.4951 10.547C40.6183 9.66506 39.4186 9.22415 37.8958 9.22415C36.673 9.22415 35.727 9.45626 35.058 9.92039C34.412 10.3845 34.089 10.9067 34.089 11.4869C34.089 11.9046 34.2274 12.2644 34.5042 12.566C34.8041 12.8678 35.2772 13.1347 35.9232 13.3668C36.5692 13.5988 37.1345 13.7845 37.619 13.9238C38.1266 14.0398 38.8533 14.1906 39.7993 14.3763C43.6062 15.1653 45.5096 16.8711 45.5096 19.4936C45.5096 20.9789 44.8866 22.2205 43.6407 23.2184C42.3949 24.2163 40.6529 24.7153 38.4149 24.7153C35.6002 24.7153 33.4313 23.7638 31.9086 21.8608C31.2626 21.0253 30.7781 20.0622 30.4551 18.9714Z" fill="#154359"/>
<path d="M46.0205 9.57297V6.9621H48.27V3.13281H51.0386V6.9621H56.5759V9.57297H51.0386V21.7571H56.7489V24.3679H48.27V9.57297H46.0205Z" fill="#154359"/>
<path d="M59.8718 22.1392C58.2567 20.3987 57.4492 18.2404 57.4492 15.6643C57.4492 13.0882 58.2567 10.9415 59.8718 9.22415C61.4868 7.48357 63.448 6.61328 65.7552 6.61328C67.2087 6.61328 68.4315 6.89178 69.4236 7.44876C70.4388 8.00574 71.1771 8.60915 71.6386 9.25898L71.95 9.78116H71.9846V6.9614H74.7533V24.3672H71.9846V21.5823H71.95L71.6386 22.0697C71.2232 22.6962 70.508 23.2997 69.4928 23.8798C68.4777 24.4368 67.2317 24.7153 65.7552 24.7153C63.448 24.7153 61.4868 23.8566 59.8718 22.1392ZM61.8791 11.0343C60.7716 12.2411 60.2179 13.7845 60.2179 15.6643C60.2179 17.5441 60.7716 19.0874 61.8791 20.2942C63.0096 21.501 64.417 22.1045 66.1012 22.1045C67.7855 22.1045 69.1814 21.501 70.2888 20.2942C71.4194 19.0874 71.9846 17.5441 71.9846 15.6643C71.9846 13.7845 71.4194 12.2411 70.2888 11.0343C69.1814 9.82751 67.7855 9.22415 66.1012 9.22415C64.417 9.22415 63.0096 9.82751 61.8791 11.0343Z" fill="#154359"/>
<path d="M76.9668 24.3687V6.96289H79.7355V9.74782H79.7701C80.0931 9.16759 80.4853 8.68026 80.9468 8.28573C82.0773 7.2878 83.4616 6.96289 85.0998 6.96289H86.9155V9.57376H85.0998C83.5309 9.57376 82.2388 10.0843 81.2236 11.1055C80.2315 12.1034 79.7355 13.3915 79.7355 14.9695V24.3687H76.9668Z" fill="#154359"/>
<path d="M88.3545 9.57297V6.9621H90.509V3.13281H93.2782V6.9621H98.8149V9.57297H93.2782V21.7571H98.9884V24.3679H90.509V9.57297H88.3545Z" fill="#154359"/>
<path d="M101.694 22.1392C100.01 20.4219 99.167 18.2636 99.167 15.6643C99.167 13.0651 100.01 10.9067 101.694 9.18932C103.379 7.47197 105.478 6.61328 107.993 6.61328C110.508 6.61328 112.607 7.46036 114.291 9.15449C115.976 10.8487 116.817 12.9606 116.817 15.4902V16.5346H101.936C102.121 18.1592 102.778 19.4936 103.909 20.538C105.039 21.5823 106.401 22.1045 107.993 22.1045C109.7 22.1045 111.165 21.5823 112.388 20.538C112.941 20.0738 113.38 19.5517 113.703 18.9714H116.471C116.056 20.0622 115.468 21.0253 114.707 21.8608C112.907 23.7638 110.669 24.7153 107.993 24.7153C105.478 24.7153 103.379 23.8566 101.694 22.1392ZM102.005 14.0977H113.876C113.668 12.7286 113.034 11.5797 111.972 10.6515C110.911 9.69989 109.584 9.22415 107.993 9.22415C106.401 9.22415 105.062 9.69989 103.978 10.6515C102.894 11.5797 102.236 12.7286 102.005 14.0977Z" fill="#154359"/>
<path d="M120.342 22.1392C118.682 20.4219 117.851 18.2636 117.851 15.6643C117.851 13.0651 118.682 10.9067 120.342 9.18932C122.004 7.47197 124.057 6.61328 126.503 6.61328C129.341 6.61328 131.59 7.63442 133.252 9.67667C133.967 10.5818 134.486 11.5913 134.809 12.7054H132.04C131.786 12.0787 131.406 11.4985 130.899 10.9648C129.791 9.80438 128.325 9.22415 126.503 9.22415C124.819 9.22415 123.411 9.82751 122.28 11.0343C121.174 12.2411 120.62 13.7845 120.62 15.6643C120.62 17.5441 121.196 19.0874 122.35 20.2942C123.504 21.501 124.888 22.1045 126.503 22.1045C128.395 22.1045 129.906 21.4662 131.036 20.1898C131.545 19.6561 131.936 19.0179 132.213 18.2752H134.982C134.682 19.4588 134.152 20.538 133.39 21.5127C131.637 23.6478 129.341 24.7153 126.503 24.7153C124.057 24.7153 122.004 23.8566 120.342 22.1392Z" fill="#154359"/>
<path d="M136.728 24.3681V0H139.497V9.57321H139.532C139.877 9.0162 140.327 8.52886 140.881 8.11111C142.15 7.11319 143.649 6.61422 145.38 6.61422C147.48 6.61422 149.152 7.28725 150.398 8.6333C151.667 9.95616 152.301 11.7779 152.301 14.0987V24.3681H149.533V14.2727C149.533 12.6018 149.118 11.3486 148.287 10.5131C147.456 9.65439 146.315 9.22509 144.861 9.22509C143.269 9.22509 141.977 9.75888 140.985 10.8265C139.992 11.8708 139.497 13.2516 139.497 14.969V24.3681H136.728Z" fill="#154359"/>
<mask id="mask0_280_100" style="mask-type:alpha" maskUnits="userSpaceOnUse" x="30" y="26" width="64" height="16">
<path d="M30.5078 26.75H93.2139V41.0156H30.5078V26.75Z" fill="#D9D9D9"/>
</mask>
<g mask="url(#mask0_280_100)">
<path d="M80.0693 36.1005H81.582C81.7124 36.4227 81.8845 36.6912 82.098 36.906C82.6319 37.443 83.3199 37.7115 84.1622 37.7115C84.9215 37.7115 85.4791 37.5862 85.8349 37.3355C86.2028 37.085 86.3866 36.7628 86.3866 36.369C86.3866 36.1542 86.3095 35.9692 86.1552 35.8141C86.0129 35.6589 85.7756 35.5218 85.4435 35.4024C85.1113 35.2831 84.8147 35.1935 84.5538 35.1339C84.3046 35.0623 83.9368 34.9788 83.4505 34.8833C81.493 34.4776 80.5142 33.6005 80.5142 32.2521C80.5142 31.548 80.8108 30.9573 81.404 30.48C81.9971 29.9907 82.8276 29.7461 83.8953 29.7461C85.224 29.7461 86.2739 30.1936 87.0451 31.0885C87.3535 31.4943 87.5789 31.9417 87.7212 32.4311H86.2087C86.1019 32.1924 85.9477 31.9716 85.746 31.7688C85.2951 31.3152 84.6783 31.0885 83.8953 31.0885C83.2665 31.0885 82.7801 31.2079 82.4361 31.4466C82.104 31.6852 81.9378 31.9537 81.9378 32.2521C81.9378 32.4668 82.009 32.6518 82.1514 32.8069C82.3056 32.9621 82.5488 33.0993 82.881 33.2187C83.2132 33.338 83.5038 33.4334 83.753 33.505C84.014 33.5647 84.3876 33.6423 84.874 33.7377C86.8315 34.1434 87.8102 35.0205 87.8102 36.369C87.8102 37.1327 87.4899 37.7711 86.8493 38.2842C86.2087 38.7974 85.3129 39.054 84.1622 39.054C82.7149 39.054 81.5997 38.5647 80.8167 37.5862C80.4846 37.1566 80.2354 36.6613 80.0693 36.1005Z" fill="#154359"/>
<path d="M71.4332 37.73C70.6028 36.835 70.1875 35.7252 70.1875 34.4006C70.1875 33.076 70.6028 31.9722 71.4332 31.0892C72.2636 30.1942 73.272 29.7467 74.4583 29.7467C75.2057 29.7467 75.8404 29.8899 76.3623 30.1763C76.8843 30.4627 77.2581 30.767 77.4835 31.0892L77.6436 31.3576H77.6614V26.3457H79.085V38.8756H77.6614V37.4436H77.6436L77.4835 37.6942C77.27 38.0164 76.9021 38.3266 76.3802 38.6249C75.8582 38.9113 75.2175 39.0545 74.4583 39.0545C73.272 39.0545 72.2636 38.6131 71.4332 37.73ZM72.4652 32.0199C71.8958 32.6405 71.6111 33.434 71.6111 34.4006C71.6111 35.3672 71.8958 36.1607 72.4652 36.7813C73.0465 37.4018 73.7702 37.7121 74.6362 37.7121C75.5023 37.7121 76.22 37.4018 76.7895 36.7813C77.3708 36.1607 77.6614 35.3672 77.6614 34.4006C77.6614 33.434 77.3708 32.6405 76.7895 32.0199C76.22 31.3994 75.5023 31.0892 74.6362 31.0892C73.7702 31.0892 73.0465 31.3994 72.4652 32.0199Z" fill="#154359"/>
<path d="M64.8506 38.8754V29.9255H66.2742V31.3574H66.2919C66.4581 31.0591 66.6597 30.8085 66.897 30.6056C67.4782 30.0925 68.1901 29.8359 69.0324 29.8359H70.1001V31.2679H69.0324C68.2257 31.2679 67.5614 31.5305 67.0394 32.0555C66.5292 32.5686 66.2742 33.2309 66.2742 34.0424V38.8754H64.8506Z" fill="#154359"/>
<path d="M55.5923 37.7294C54.7619 36.8344 54.3467 35.7246 54.3467 34.4C54.3467 33.0755 54.7619 31.9716 55.5923 31.0885C56.4228 30.1936 57.4312 29.7461 58.6175 29.7461C59.3649 29.7461 59.9936 29.8893 60.5038 30.1757C61.0258 30.462 61.4054 30.7723 61.6427 31.1064L61.8029 31.3749H61.8206V29.9251H63.2442V38.875H61.8206V37.443H61.8029L61.6427 37.6935C61.4291 38.0157 61.0614 38.326 60.5394 38.6243C60.0174 38.9107 59.3768 39.054 58.6175 39.054C57.4312 39.054 56.4228 38.6124 55.5923 37.7294ZM56.6245 32.0193C56.055 32.6399 55.7703 33.4334 55.7703 34.4C55.7703 35.3666 56.055 36.1601 56.6245 36.7807C57.2058 37.4012 57.9295 37.7115 58.7955 37.7115C59.6615 37.7115 60.3793 37.4012 60.9487 36.7807C61.53 36.1601 61.8206 35.3666 61.8206 34.4C61.8206 33.4334 61.53 32.6399 60.9487 32.0193C60.3793 31.3989 59.6615 31.0885 58.7955 31.0885C57.9295 31.0885 57.2058 31.3989 56.6245 32.0193Z" fill="#154359"/>
<path d="M41.2588 29.9258H42.7713L44.3729 37.5332H44.8178L46.3303 29.9258H48.9107L50.4232 37.5332H50.8681L52.4697 29.9258H53.9822L52.0248 38.8756H49.2666L47.754 31.2683H47.4871L45.9745 38.8756H43.2162L41.2588 29.9258Z" fill="#154359"/>
<path d="M32.7115 37.7294C31.8811 36.8344 31.4658 35.7246 31.4658 34.4C31.4658 33.0755 31.8811 31.9716 32.7115 31.0885C33.542 30.1936 34.5503 29.7461 35.7367 29.7461C36.484 29.7461 37.1129 29.8893 37.623 30.1757C38.1449 30.462 38.5246 30.7723 38.7619 31.1064L38.922 31.3749H38.9398V29.9251H40.3634V38.875H38.9398V37.443H38.922L38.7619 37.6935C38.5483 38.0157 38.1806 38.326 37.6586 38.6243C37.1366 38.9107 36.4959 39.054 35.7367 39.054C34.5503 39.054 33.542 38.6124 32.7115 37.7294ZM33.7436 32.0193C33.1741 32.6399 32.8894 33.4334 32.8894 34.4C32.8894 35.3666 33.1741 36.1601 33.7436 36.7807C34.325 37.4012 35.0486 37.7115 35.9146 37.7115C36.7806 37.7115 37.4984 37.4012 38.0678 36.7807C38.6491 36.1601 38.9398 35.3666 38.9398 34.4C38.9398 33.4334 38.6491 32.6399 38.0678 32.0193C37.4984 31.3989 36.7806 31.0885 35.9146 31.0885C35.0486 31.0885 34.325 31.3989 33.7436 32.0193Z" fill="#154359"/>
</g>
<path d="M4.97139 26.0479C4.42938 25.7504 3.87021 26.4266 4.24972 26.9169C5.93531 29.0927 8.18714 30.7476 10.124 32.6989C14.1684 36.4067 18.2058 40.0648 22.0161 44.0172C22.3743 44.3888 22.1048 45.0101 21.5911 45C21.3559 44.9949 21.1187 44.9898 20.8806 44.9929C20.7796 44.9908 20.6545 44.932 20.5848 44.8578C18.9033 43.0619 17.2025 41.2831 15.3302 39.6851C12.82 37.562 10.232 35.5316 7.79753 33.3183C4.48792 30.5202 0.733195 27.386 0.0145486 22.8457C0.0115205 22.8284 0.00950188 22.8112 0.00748319 22.7939C-0.130796 21.2375 1.67692 20.6253 2.97997 21.338C4.50407 22.0944 6.02615 22.8579 7.55227 23.6102C12.1548 25.8672 16.9431 27.923 22.0453 28.6947C22.2603 28.7272 22.661 28.7393 22.7831 28.4561C22.8972 28.1901 22.8992 27.9343 22.6631 27.72C17.4478 22.9899 9.5013 21.2294 5.08242 15.3865C5.07233 15.3733 5.06324 15.3601 5.05416 15.3459C2.58532 11.5955 5.54369 8.13238 9.71121 9.15274C13.4891 9.85024 16.929 12.9326 20.7887 12.2625C22.6822 11.9336 21.3397 9.81163 20.5868 9.03088C18.7791 6.9699 17.0088 4.92108 15.1728 2.89053C14.8366 2.52097 15.099 1.92501 15.5987 1.924C16.393 1.92196 17.1874 1.93922 17.9838 1.93618C18.0918 1.93618 18.23 1.99506 18.3037 2.07324C20.4293 4.53325 23.091 6.66329 24.4233 9.70201C25.5144 11.9793 24.1417 14.3529 21.7808 14.956C17.4811 15.9652 13.2217 13.0534 8.98548 12.3762C8.49902 12.2981 8.1397 12.8291 8.4001 13.2503C10.3542 16.412 17.3458 20.1451 20.0226 22.1675C21.9949 23.4924 23.9752 24.8072 25.9322 26.1545C26.7084 26.6895 27.4039 27.3332 27.958 28.1099C29.2964 29.8592 28.1771 32.0045 26.2532 32.5081C25.3378 32.7812 24.4001 32.8146 23.4594 32.7416C18.5763 32.37 13.9515 30.5598 9.56384 28.4683C7.94287 27.6815 6.55605 26.9423 4.98653 26.056C4.98249 26.0529 4.97745 26.051 4.9724 26.0489L4.97139 26.0479Z" fill="#154359"/>
</g>
<defs>
<clipPath id="clip0_280_100">
<rect width="153" height="45" fill="white"/>
</clipPath>
</defs>
</svg>
