<svg width="153" height="46" viewBox="0 0 153 46" fill="none" xmlns="http://www.w3.org/2000/svg">
<g clip-path="url(#clip0_0_994)">
<path d="M30.4551 19.2175H33.3968C33.6505 19.8441 33.9851 20.3663 34.4004 20.7841C35.4387 21.8284 36.7768 22.3506 38.4149 22.3506C39.8915 22.3506 40.9759 22.1069 41.6681 21.6195C42.3834 21.1322 42.741 20.5055 42.741 19.7397C42.741 19.3219 42.5909 18.9622 42.291 18.6605C42.0142 18.3588 41.5528 18.092 40.9067 17.8599C40.2607 17.6278 39.6839 17.4537 39.1763 17.3377C38.6918 17.1985 37.9766 17.036 37.0306 16.8503C33.2238 16.0612 31.3203 14.3554 31.3203 11.733C31.3203 10.3638 31.897 9.21496 33.0507 8.28666C34.2043 7.33513 35.8193 6.85938 37.8958 6.85938C40.4799 6.85938 42.5218 7.72967 44.0214 9.47025C44.6214 10.2593 45.0597 11.1296 45.3365 12.0811H42.3949C42.1872 11.6169 41.8873 11.1876 41.4951 10.7931C40.6183 9.91116 39.4186 9.47025 37.8958 9.47025C36.673 9.47025 35.727 9.70236 35.058 10.1665C34.412 10.6306 34.089 11.1528 34.089 11.733C34.089 12.1507 34.2274 12.5104 34.5042 12.8121C34.8041 13.1139 35.2772 13.3807 35.9232 13.6129C36.5692 13.8449 37.1345 14.0305 37.619 14.1699C38.1266 14.2859 38.8533 14.4367 39.7993 14.6224C43.6062 15.4114 45.5096 17.1172 45.5096 19.7397C45.5096 21.225 44.8866 22.4666 43.6407 23.4645C42.3949 24.4624 40.6529 24.9614 38.4149 24.9614C35.6002 24.9614 33.4313 24.0099 31.9086 22.1069C31.2626 21.2714 30.7781 20.3083 30.4551 19.2175Z" fill="#154359"/>
<path d="M46.0205 9.81906V7.20819H48.27V3.37891H51.0386V7.20819H56.5759V9.81906H51.0386V22.0032H56.7489V24.614H48.27V9.81906H46.0205Z" fill="#154359"/>
<path d="M59.8718 22.3853C58.2567 20.6448 57.4492 18.4864 57.4492 15.9104C57.4492 13.3343 58.2567 11.1876 59.8718 9.47025C61.4868 7.72967 63.448 6.85938 65.7552 6.85938C67.2087 6.85938 68.4315 7.13787 69.4236 7.69485C70.4388 8.25184 71.1771 8.85524 71.6386 9.50508L71.95 10.0273H71.9846V7.20749H74.7533V24.6133H71.9846V21.8284H71.95L71.6386 22.3158C71.2232 22.9423 70.508 23.5458 69.4928 24.1259C68.4777 24.6829 67.2317 24.9614 65.7552 24.9614C63.448 24.9614 61.4868 24.1027 59.8718 22.3853ZM61.8791 11.2804C60.7716 12.4872 60.2179 14.0305 60.2179 15.9104C60.2179 17.7902 60.7716 19.3335 61.8791 20.5403C63.0096 21.7471 64.417 22.3506 66.1012 22.3506C67.7855 22.3506 69.1814 21.7471 70.2888 20.5403C71.4194 19.3335 71.9846 17.7902 71.9846 15.9104C71.9846 14.0305 71.4194 12.4872 70.2888 11.2804C69.1814 10.0736 67.7855 9.47025 66.1012 9.47025C64.417 9.47025 63.0096 10.0736 61.8791 11.2804Z" fill="#154359"/>
<path d="M76.9668 24.6148V7.20898H79.7355V9.99392H79.7701C80.0931 9.41369 80.4853 8.92636 80.9468 8.53182C82.0773 7.53389 83.4616 7.20898 85.0998 7.20898H86.9155V9.81986H85.0998C83.5309 9.81986 82.2388 10.3304 81.2236 11.3516C80.2315 12.3495 79.7355 13.6376 79.7355 15.2156V24.6148H76.9668Z" fill="#154359"/>
<path d="M88.3545 9.81906V7.20819H90.509V3.37891H93.2782V7.20819H98.8149V9.81906H93.2782V22.0032H98.9884V24.614H90.509V9.81906H88.3545Z" fill="#154359"/>
<path d="M101.694 22.3853C100.01 20.668 99.167 18.5097 99.167 15.9104C99.167 13.3112 100.01 11.1528 101.694 9.43542C103.379 7.71806 105.478 6.85938 107.993 6.85938C110.508 6.85938 112.607 7.70645 114.291 9.40059C115.976 11.0948 116.817 13.2067 116.817 15.7363V16.7807H101.936C102.121 18.4053 102.778 19.7397 103.909 20.7841C105.039 21.8284 106.401 22.3506 107.993 22.3506C109.7 22.3506 111.165 21.8284 112.388 20.7841C112.941 20.3199 113.38 19.7977 113.703 19.2175H116.471C116.056 20.3083 115.468 21.2714 114.707 22.1069C112.907 24.0099 110.669 24.9614 107.993 24.9614C105.478 24.9614 103.379 24.1027 101.694 22.3853ZM102.005 14.3438H113.876C113.668 12.9747 113.034 11.8258 111.972 10.8976C110.911 9.94599 109.584 9.47025 107.993 9.47025C106.401 9.47025 105.062 9.94599 103.978 10.8976C102.894 11.8258 102.236 12.9747 102.005 14.3438Z" fill="#154359"/>
<path d="M120.342 22.3853C118.682 20.668 117.851 18.5097 117.851 15.9104C117.851 13.3112 118.682 11.1528 120.342 9.43542C122.004 7.71806 124.057 6.85938 126.503 6.85938C129.341 6.85938 131.59 7.88051 133.252 9.92277C133.967 10.8279 134.486 11.8374 134.809 12.9514H132.04C131.786 12.3248 131.406 11.7446 130.899 11.2108C129.791 10.0505 128.325 9.47025 126.503 9.47025C124.819 9.47025 123.411 10.0736 122.28 11.2804C121.174 12.4872 120.62 14.0305 120.62 15.9104C120.62 17.7902 121.196 19.3335 122.35 20.5403C123.504 21.7471 124.888 22.3506 126.503 22.3506C128.395 22.3506 129.906 21.7123 131.036 20.4359C131.545 19.9021 131.936 19.264 132.213 18.5213H134.982C134.682 19.7049 134.152 20.7841 133.39 21.7588C131.637 23.8939 129.341 24.9614 126.503 24.9614C124.057 24.9614 122.004 24.1027 120.342 22.3853Z" fill="#154359"/>
<path d="M136.727 24.6142V0.246094H139.497V9.8193H139.531C139.877 9.26229 140.327 8.77495 140.881 8.35721C142.149 7.35928 143.649 6.86031 145.379 6.86031C147.479 6.86031 149.152 7.53334 150.398 8.87939C151.667 10.2023 152.301 12.024 152.301 14.3448V24.6142H149.533V14.5188C149.533 12.8479 149.118 11.5947 148.286 10.7592C147.456 9.90048 146.314 9.47118 144.86 9.47118C143.269 9.47118 141.977 10.005 140.984 11.0726C139.992 12.1169 139.497 13.4977 139.497 15.2151V24.6142H136.727Z" fill="#154359"/>
<mask id="mask0_0_994" style="mask-type:alpha" maskUnits="userSpaceOnUse" x="30" y="26" width="64" height="16">
<path d="M30.5078 26.9961H93.2139V41.2617H30.5078V26.9961Z" fill="#D9D9D9"/>
</mask>
<g mask="url(#mask0_0_994)">
<path d="M80.0693 36.3465H81.582C81.7124 36.6687 81.8845 36.9373 82.098 37.152C82.6319 37.6891 83.3199 37.9575 84.1622 37.9575C84.9215 37.9575 85.4791 37.8323 85.8349 37.5816C86.2028 37.3311 86.3866 37.0089 86.3866 36.6151C86.3866 36.4003 86.3095 36.2153 86.1552 36.0602C86.0129 35.905 85.7756 35.7678 85.4435 35.6485C85.1113 35.5292 84.8147 35.4396 84.5538 35.3799C84.3046 35.3084 83.9368 35.2249 83.4505 35.1294C81.493 34.7237 80.5142 33.8466 80.5142 32.4981C80.5142 31.7941 80.8108 31.2034 81.404 30.7261C81.9971 30.2368 82.8276 29.9922 83.8953 29.9922C85.224 29.9922 86.2739 30.4397 87.0451 31.3346C87.3535 31.7403 87.5789 32.1878 87.7212 32.6772H86.2087C86.1019 32.4385 85.9477 32.2177 85.746 32.0148C85.2951 31.5613 84.6783 31.3346 83.8953 31.3346C83.2665 31.3346 82.7801 31.454 82.4361 31.6926C82.104 31.9313 81.9378 32.1998 81.9378 32.4981C81.9378 32.7129 82.009 32.8979 82.1514 33.053C82.3056 33.2082 82.5488 33.3454 82.881 33.4647C83.2132 33.5841 83.5038 33.6795 83.753 33.7511C84.014 33.8108 84.3876 33.8884 84.874 33.9838C86.8315 34.3895 87.8102 35.2666 87.8102 36.6151C87.8102 37.3788 87.4899 38.0172 86.8493 38.5303C86.2087 39.0435 85.3129 39.3001 84.1622 39.3001C82.7149 39.3001 81.5997 38.8107 80.8167 37.8323C80.4846 37.4027 80.2354 36.9074 80.0693 36.3465Z" fill="#154359"/>
<path d="M71.433 37.9761C70.6026 37.0811 70.1874 35.9713 70.1874 34.6467C70.1874 33.3221 70.6026 32.2183 71.433 31.3352C72.2634 30.4403 73.2719 29.9928 74.4582 29.9928C75.2056 29.9928 75.8402 30.136 76.3622 30.4224C76.8842 30.7088 77.2579 31.013 77.4833 31.3352L77.6435 31.6037H77.6613V26.5918H79.0849V39.1217H77.6613V37.6897H77.6435L77.4833 37.9403C77.2698 38.2625 76.902 38.5727 76.38 38.871C75.858 39.1574 75.2174 39.3006 74.4582 39.3006C73.2719 39.3006 72.2634 38.8592 71.433 37.9761ZM72.4651 32.266C71.8957 32.8866 71.611 33.6801 71.611 34.6467C71.611 35.6133 71.8957 36.4068 72.4651 37.0274C73.0464 37.6479 73.7701 37.9582 74.6361 37.9582C75.5022 37.9582 76.2199 37.6479 76.7894 37.0274C77.3707 36.4068 77.6613 35.6133 77.6613 34.6467C77.6613 33.6801 77.3707 32.8866 76.7894 32.266C76.2199 31.6455 75.5022 31.3352 74.6361 31.3352C73.7701 31.3352 73.0464 31.6455 72.4651 32.266Z" fill="#154359"/>
<path d="M64.8506 39.1215V30.1716H66.2742V31.6035H66.2919C66.4581 31.3052 66.6597 31.0546 66.897 30.8517C67.4782 30.3386 68.1901 30.082 69.0324 30.082H70.1001V31.514H69.0324C68.2257 31.514 67.5614 31.7766 67.0394 32.3016C66.5292 32.8147 66.2742 33.477 66.2742 34.2885V39.1215H64.8506Z" fill="#154359"/>
<path d="M55.5923 37.9755C54.7619 37.0805 54.3467 35.9707 54.3467 34.6461C54.3467 33.3216 54.7619 32.2177 55.5923 31.3346C56.4228 30.4397 57.4312 29.9922 58.6175 29.9922C59.3649 29.9922 59.9936 30.1354 60.5038 30.4218C61.0258 30.7081 61.4054 31.0184 61.6427 31.3525L61.8029 31.621H61.8206V30.1712H63.2442V39.1211H61.8206V37.6891H61.8029L61.6427 37.9396C61.4291 38.2618 61.0614 38.5721 60.5394 38.8704C60.0174 39.1568 59.3768 39.3001 58.6175 39.3001C57.4312 39.3001 56.4228 38.8585 55.5923 37.9755ZM56.6245 32.2654C56.055 32.886 55.7703 33.6795 55.7703 34.6461C55.7703 35.6127 56.055 36.4062 56.6245 37.0268C57.2058 37.6473 57.9295 37.9575 58.7955 37.9575C59.6615 37.9575 60.3793 37.6473 60.9487 37.0268C61.53 36.4062 61.8206 35.6127 61.8206 34.6461C61.8206 33.6795 61.53 32.886 60.9487 32.2654C60.3793 31.6449 59.6615 31.3346 58.7955 31.3346C57.9295 31.3346 57.2058 31.6449 56.6245 32.2654Z" fill="#154359"/>
<path d="M41.2588 30.1719H42.7713L44.3729 37.7793H44.8178L46.3303 30.1719H48.9107L50.4232 37.7793H50.8681L52.4697 30.1719H53.9822L52.0248 39.1217H49.2666L47.754 31.5144H47.4871L45.9745 39.1217H43.2162L41.2588 30.1719Z" fill="#154359"/>
<path d="M32.7115 37.9755C31.8811 37.0805 31.4658 35.9707 31.4658 34.6461C31.4658 33.3216 31.8811 32.2177 32.7115 31.3346C33.542 30.4397 34.5503 29.9922 35.7367 29.9922C36.484 29.9922 37.1129 30.1354 37.623 30.4218C38.1449 30.7081 38.5246 31.0184 38.7619 31.3525L38.922 31.621H38.9398V30.1712H40.3634V39.1211H38.9398V37.6891H38.922L38.7619 37.9396C38.5483 38.2618 38.1806 38.5721 37.6586 38.8704C37.1366 39.1568 36.4959 39.3001 35.7367 39.3001C34.5503 39.3001 33.542 38.8585 32.7115 37.9755ZM33.7436 32.2654C33.1741 32.886 32.8894 33.6795 32.8894 34.6461C32.8894 35.6127 33.1741 36.4062 33.7436 37.0268C34.325 37.6473 35.0486 37.9575 35.9146 37.9575C36.7806 37.9575 37.4984 37.6473 38.0678 37.0268C38.6491 36.4062 38.9398 35.6127 38.9398 34.6461C38.9398 33.6795 38.6491 32.886 38.0678 32.2654C37.4984 31.6449 36.7806 31.3346 35.9146 31.3346C35.0486 31.3346 34.325 31.6449 33.7436 32.2654Z" fill="#154359"/>
</g>
<path d="M4.97139 26.294C4.42938 25.9965 3.87021 26.6727 4.24972 27.163C5.93531 29.3388 8.18714 30.9937 10.124 32.945C14.1684 36.6528 18.2058 40.3109 22.0161 44.2633C22.3743 44.6349 22.1048 45.2562 21.5911 45.2461C21.3559 45.241 21.1187 45.2359 20.8806 45.239C20.7796 45.2369 20.6545 45.1781 20.5848 45.1039C18.9033 43.308 17.2025 41.5292 15.3302 39.9312C12.82 37.8081 10.232 35.7777 7.79753 33.5644C4.48792 30.7663 0.733195 27.6321 0.0145486 23.0918C0.0115205 23.0745 0.00950188 23.0573 0.00748319 23.04C-0.130796 21.4836 1.67692 20.8714 2.97997 21.5841C4.50407 22.3405 6.02615 23.104 7.55227 23.8563C12.1548 26.1133 16.9431 28.1691 22.0453 28.9408C22.2603 28.9733 22.661 28.9854 22.7831 28.7022C22.8972 28.4362 22.8992 28.1804 22.6631 27.9661C17.4478 23.236 9.5013 21.4755 5.08242 15.6326C5.07233 15.6194 5.06324 15.6062 5.05416 15.592C2.58532 11.8416 5.54369 8.37848 9.71121 9.39883C13.4891 10.0963 16.929 13.1787 20.7887 12.5086C22.6822 12.1797 21.3397 10.0577 20.5868 9.27697C18.7791 7.21599 17.0088 5.16717 15.1728 3.13663C14.8366 2.76707 15.099 2.17111 15.5987 2.17009C16.393 2.16806 17.1874 2.18532 17.9838 2.18228C18.0918 2.18228 18.23 2.24115 18.3037 2.31934C20.4293 4.77934 23.091 6.90938 24.4233 9.9481C25.5144 12.2254 24.1417 14.599 21.7808 15.2021C17.4811 16.2113 13.2217 13.2995 8.98548 12.6223C8.49902 12.5442 8.1397 13.0752 8.4001 13.4964C10.3542 16.6581 17.3458 20.3912 20.0226 22.4136C21.9949 23.7385 23.9752 25.0533 25.9322 26.4006C26.7084 26.9356 27.4039 27.5793 27.958 28.356C29.2964 30.1053 28.1771 32.2506 26.2532 32.7542C25.3378 33.0273 24.4001 33.0607 23.4594 32.9877C18.5763 32.616 13.9515 30.8059 9.56384 28.7144C7.94287 27.9276 6.55605 27.1884 4.98653 26.3021C4.98249 26.299 4.97745 26.2971 4.9724 26.295L4.97139 26.294Z" fill="#154359"/>
</g>
<defs>
<clipPath id="clip0_0_994">
<rect width="153" height="45" fill="white" transform="translate(0 0.246094)"/>
</clipPath>
</defs>
</svg>
